<svg id="angular" data-name="Layer 1" xmlns="http://www.w3.org/2000/svg" viewBox="0 0 1366 768"><defs><style>.cls-1{fill:#fdfdfd;}.cls-2{fill:#f4f2f2;}.cls-3{fill:#7c7c7c;}.cls-4{fill:#989494;}</style></defs><title>AngularJS-Vector</title><path class="cls-1" d="M756.83,282.3c0-8.45-2.69-12.84-9-15.15q-35.05-12.91-70.18-25.68C650.81,231.76,624,222,596.92,212.79c-4.6-1.57-10.47-2.12-15-.7-14.88,4.65-29.45,10.29-44,15.8Q484.52,248,431.24,268.36c-6.56,2.5-8.65,5.37-8.35,12.51.38,8.76,1.16,17.51,2,26.24.95,10.38,2,20.74,3.21,31.1s2.6,20.65,3.73,31c1.18,10.85,2,21.75,3.21,32.6,1.46,13,3.36,25.89,4.76,38.87,1.85,17.1,3.29,34.24,5.15,51.34a19.42,19.42,0,0,0,10.57,15.9q15.56,8.4,30.81,17.39c30,17.71,59.91,35.7,90,53.27,7.11,4.15,14.28,5.71,21.94-1s16.42-12.43,26.62-15.27c2.34-.66,4.44-2.23,6.59-3.5,11.29-6.68,22.52-13.46,33.84-20.08,18.94-11,38.1-21.73,56.76-33.21,4.07-2.5,7.57-7.3,9.33-11.82,2-5.08,1.79-11,2.4-16.62,1.43-13,2.69-26,4.19-39s3.22-25.91,4.83-38.87c1.3-10.49,2.61-21,3.84-31.49,1.11-9.52,2.05-19.07,3.18-28.59s2.42-19,3.58-28.53C754.64,300.83,755.79,291,756.83,282.3Z"/><path class="cls-2" d="M756.83,282.3c-1,8.68-2.19,18.53-3.4,28.38-1.16,9.51-2.45,19-3.58,28.53s-2.07,19.07-3.18,28.59c-1.23,10.51-2.54,21-3.84,31.49-1.61,13-3.33,25.9-4.83,38.87s-2.76,26-4.19,39c-.61,5.58-.41,11.54-2.4,16.62-1.76,4.52-5.26,9.32-9.33,11.82-18.66,11.48-37.82,22.16-56.76,33.21-11.32,6.62-22.55,13.4-33.84,20.08-2.15,1.27-4.25,2.84-6.59,3.5-10.2,2.84-18.92,8.57-26.62,15.27s-14.83,5.1-21.94,1c-30.12-17.57-60-35.56-90-53.27q-15.23-9-30.81-17.39A19.42,19.42,0,0,1,444.92,492c-1.86-17.1-3.3-34.24-5.15-51.34-1.4-13-3.3-25.9-4.76-38.87-1.23-10.85-2-21.75-3.21-32.6-1.13-10.35-2.57-20.66-3.73-31s-2.26-20.72-3.21-31.1c-.81-8.73-1.59-17.48-2-26.24-.3-7.14,1.79-10,8.35-12.51q53.29-20.3,106.65-40.47c14.59-5.51,29.16-11.15,44-15.8,4.52-1.42,10.39-.87,15,.7,27,9.24,53.89,19,80.76,28.68q35.15,12.69,70.18,25.68C754.14,269.46,756.83,273.85,756.83,282.3ZM589.89,214c-3.42.58-7,.64-10.24,1.83q-53.56,19.92-107,40.14-19.84,7.45-39.69,15c-2.41.91-4.51,1.8-4,5.25.88,5.91,1.32,11.89,2,17.83q5.87,52.27,11.71,104.53c3.45,31.22,6.74,62.46,10.23,93.67a6.35,6.35,0,0,0,2.67,4.15c13.59,8.07,27.3,15.95,41,23.89q43.83,25.44,87.7,50.84c1.39.79,3.22.82,4.84,1.21,5.48-2.76,11.13-5.24,16.41-8.34,16.19-9.5,32.17-19.38,48.38-28.85,21.55-12.58,43.23-24.93,64.88-37.34,3.64-2.09,6.08-4.5,6.41-9.24.71-10.11,2.07-20.17,3.25-30.24q4.2-35.91,8.5-71.81,4.2-35.16,8.48-70.3c1.8-14.81,3.64-29.62,5.47-44.58-2.62-1-4.76-1.87-6.93-2.66-27.19-9.85-54.36-19.78-81.59-29.5C638.22,230.8,614,222.43,589.89,214Z"/><path class="cls-3" d="M589.89,214c24.15,8.47,48.33,16.84,72.44,25.44,27.23,9.72,54.4,19.65,81.59,29.5,2.17.79,4.31,1.65,6.93,2.66-1.83,15-3.67,29.77-5.47,44.58q-4.26,35.14-8.48,70.3-4.29,35.9-8.5,71.81c-1.18,10.07-2.54,20.13-3.25,30.24-.33,4.74-2.77,7.15-6.41,9.24-21.65,12.41-43.33,24.76-64.88,37.34-16.21,9.47-32.19,19.35-48.38,28.85-5.28,3.1-10.93,5.58-16.41,8.34-.41-1.69-1.19-3.38-1.19-5.07q-.07-66.53,0-133c14.15-.05,28.3,0,42.45-.24,3.15-.05,4.58.92,5.76,3.9,6,15.12,12.24,30.14,18.52,45.14.63,1.49,2,3.74,3.14,3.77,10.9.29,21.8.17,33.27.17-1-2.68-1.75-4.69-2.61-6.64Q654.86,404.14,621.29,328q-16.29-36.91-32.61-73.8a8.66,8.66,0,0,1-.68-2.36c-.08-11.86-.14-23.73,0-35.6C588,215.5,589.21,214.73,589.89,214Z"/><path class="cls-4" d="M587.87,434.16q0,66.51,0,133c0,1.69.78,3.38,1.19,5.07-1.62-.39-3.45-.42-4.84-1.21q-43.89-25.35-87.7-50.84c-13.67-7.94-27.38-15.82-41-23.89a6.35,6.35,0,0,1-2.67-4.15c-3.49-31.21-6.78-62.45-10.23-93.67Q436.9,346.23,431,294c-.66-5.94-1.1-11.92-2-17.83-.52-3.45,1.58-4.34,4-5.25q19.85-7.49,39.69-15,53.48-20.12,107-40.14c3.2-1.19,6.82-1.25,10.24-1.83-.68.77-1.94,1.54-1.94,2.31-.09,11.87,0,23.74,0,35.6a8.66,8.66,0,0,0,.68,2.36c-1.57,2.29-3.58,4.4-4.65,6.91q-46.68,109.41-93.16,218.91c-.88,2.07-1.48,4.25-2.09,6,11.89,0,23.34.12,34.79-.17,1.29,0,3.08-2.17,3.69-3.71,5.83-14.85,11.38-29.81,17.26-44.64.6-1.52,2.85-3.36,4.37-3.38C561.88,433.94,574.87,434.11,587.87,434.16Z"/><path class="cls-1" d="M587.87,434.16c-13-.05-26-.22-39,0-1.52,0-3.77,1.86-4.37,3.38-5.88,14.83-11.43,29.79-17.26,44.64-.61,1.54-2.4,3.68-3.69,3.71-11.45.29-22.9.17-34.79.17.61-1.76,1.21-3.94,2.09-6Q537.4,370.57,584,261.14c1.07-2.51,3.08-4.62,4.65-6.91q16.3,36.9,32.61,73.8,33.57,76.11,67.11,152.23c.86,1.95,1.56,4,2.61,6.64-11.47,0-22.37.12-33.27-.17-1.09,0-2.51-2.28-3.14-3.77-6.28-15-12.52-30-18.52-45.14-1.18-3-2.61-3.95-5.76-3.9C616.17,434.15,602,434.11,587.87,434.16Zm0-32.34h33.41c-.76-2-1.24-3.51-1.9-5-4.81-10.56-9.59-21.14-14.5-31.66-5.32-11.4-10.78-22.74-16.18-34.11-1.17,1.14-2.89,2.07-3.45,3.46-6,14.78-11.72,29.63-17.54,44.47-2.94,7.49-5.86,15-8.91,22.8Z"/><path class="cls-3" d="M588.7,331.09c5.4,11.37,10.86,22.71,16.18,34.11,4.91,10.52,9.69,21.1,14.5,31.66.66,1.45,1.14,3,1.9,5H587.87q0-33.27,0-66.53A22.32,22.32,0,0,1,588.7,331.09Z"/><path class="cls-4" d="M588.7,331.09a22.32,22.32,0,0,0-.84,4.2q0,33.27,0,66.53H558.8c3.05-7.81,6-15.31,8.91-22.8,5.82-14.84,11.59-29.69,17.54-44.47C585.81,333.16,587.53,332.23,588.7,331.09Z"/></svg>