<svg id="asp" data-name="Layer 1" xmlns="http://www.w3.org/2000/svg" viewBox="0 0 1366 768"><defs><style>.cls-1{fill:#d2d2d2;}.cls-2{fill:#d0d0d0;}.cls-3{fill:#9f9f9f;}.cls-4{fill:#d7d7d7;}.cls-5{fill:#f6f6f6;}.cls-6{fill:#ededed;}.cls-7{fill:#f1f1f1;}.cls-8{fill:#dcdcdc;}.cls-9{fill:#e8e8e8;}.cls-10{fill:#e4e4e4;}.cls-11{fill:#dfdfdf;}.cls-12{fill:#878787;}.cls-13{fill:#a0a0a0;}.cls-14{fill:#a5a5a5;}.cls-15{fill:#999;}.cls-16{fill:#eaeaea;}.cls-17{fill:#9e9e9e;}.cls-18{fill:#929292;}.cls-19{fill:#aeaeae;}.cls-20{fill:#a1a1a1;}.cls-21{fill:#e1e1e1;}.cls-22{fill:#9d9d9d;}.cls-23{fill:#6c6c6c;}.cls-24{fill:#b8b8b8;}.cls-25{fill:#b6b6b6;}.cls-26{fill:#a4a4a4;}.cls-27{fill:#bdbdbd;}.cls-28{fill:#ddd;}.cls-29{fill:#c1c1c1;}.cls-30{fill:#747474;}.cls-31{fill:#a8a8a8;}.cls-32{fill:#acacac;}.cls-33{fill:#898989;}.cls-34{fill:#5d5d5d;}.cls-35{fill:#cdcdcd;}.cls-36{fill:#cbcbcb;}.cls-37{fill:#b7b7b7;}.cls-38{fill:#d4d4d4;}.cls-39{fill:#979797;}.cls-40{fill:#8b8b8b;}.cls-41{fill:#d6d6d6;}.cls-42{fill:#cfcfcf;}.cls-43{fill:#949494;}.cls-44{fill:#6d6d6d;}.cls-45{fill:#c3c3c3;}.cls-46{fill:#b5b5b5;}.cls-47{fill:#a9a9a9;}.cls-48{fill:#848484;}.cls-49{fill:#bcbcbc;}.cls-50{fill:#c4c4c4;}.cls-51{fill:#c9c9c9;}.cls-52{fill:#919191;}.cls-53{fill:#bbb;}.cls-54{fill:silver;}.cls-55{fill:#e0e0e0;}.cls-56{fill:#b3b3b3;}.cls-57{fill:#ababab;}.cls-58{fill:#ccc;}.cls-59{fill:#b4b4b4;}.cls-60{fill:#828282;}.cls-61{fill:#8f8f8f;}.cls-62{fill:#818181;}.cls-63{fill:#646464;}.cls-64{fill:#767676;}.cls-65{fill:#676767;}.cls-66{fill:#797979;}.cls-67{fill:#6a6a6a;}.cls-68{fill:#727272;}.cls-69{fill:#616161;}.cls-70{fill:#757575;}.cls-71{fill:#707070;}.cls-72{fill:#a3a3a3;}.cls-73{fill:#9b9b9b;}.cls-74{fill:#858585;}.cls-75{fill:#7c7c7c;}.cls-76{fill:#909090;}.cls-77{fill:#5c5c5c;}.cls-78{fill:#969696;}.cls-79{fill:#9c9c9c;}.cls-80{fill:#7d7d7d;}.cls-81{fill:#8e8e8e;}.cls-82{fill:#626262;}.cls-83{fill:#6b6b6b;}.cls-84{fill:#656565;}.cls-85{fill:#787878;}</style></defs><title>Net-Vector</title><path class="cls-1" d="M638.51,282.51c1.93,5.68,1.07,11.55.75,17.28-.29,5.07-1.63,10.09-2.62,15.11-3.4,17.29-11.17,32.58-22.3,46.05-7.34,8.87-16.51,15.78-26.33,21.86-10.63,6.57-22.18,10.41-34.34,12.74-3.4.65-6.8,1.27-10.2,1.9-4.63-2-9.47-.58-14.21-.89-1.22-.08-2.49.58-3.73.9-7.14-1.42-14.31-2.66-21.39-4.31a79.11,79.11,0,0,1-10.79-3.73c-10-3.92-18.72-9.86-27.05-16.54-11.78-9.42-20.37-21.35-26.87-34.72-5.46-11.22-9.39-23-9.88-35.69,2-6,.56-12.12.81-18.18,0-.58-.52-1.17-.81-1.76a87.68,87.68,0,0,1,4.27-21.89,118.35,118.35,0,0,1,10-22.22,101.57,101.57,0,0,1,29.54-31.9A103.94,103.94,0,0,1,506.6,191c3.89-1,8-1.09,12.07-1.59a6.93,6.93,0,0,0,2-.23c7-3.2,14.46-1.15,21.68-1.62,1.06-.07,2.17.61,3.26.95a9,9,0,0,0,2.78.83c12.66-.5,23.79,4.44,34.66,10a93,93,0,0,1,28.08,21.23c9.4,10.67,17.43,22.15,21.47,36,1.85,6.35,3.92,12.63,5.89,18.94A6.18,6.18,0,0,0,638.51,282.51Zm-203.25,9.68c-.12,56.16,42.74,99.18,98.2,99.28,57,.1,99-42.25,99.76-97.8.78-56.44-42.76-98.73-96.11-100.19C479.11,191.89,434.83,237.29,435.26,292.19Zm99.13,101.3c2.31,0,4.61,0,6.91,0a9.27,9.27,0,0,0,1.85-.4,6,6,0,0,0-1.64-.53q-6.9-.06-13.81,0a9.27,9.27,0,0,0-1.85.4,6.07,6.07,0,0,0,1.64.54C529.79,393.53,532.09,393.49,534.39,393.49Z"/><path class="cls-2" d="M429.55,282.53c.29.59.84,1.18.81,1.76-.25,6.06,1.18,12.2-.81,18.18Z"/><path class="cls-2" d="M525.53,397.46c1.24-.32,2.51-1,3.73-.9,4.74.31,9.58-1.08,14.21.89Z"/><path class="cls-2" d="M638.51,282.51a6.18,6.18,0,0,1-.06-7Z"/><path class="cls-3" d="M435.41,292.15c-.43-54.9,43.85-100.3,101.85-98.71,53.36,1.46,96.89,43.75,96.12,100.19-.76,55.55-42.74,97.9-99.76,97.8C478.16,391.33,435.29,348.31,435.41,292.15Zm126.72-27.78c-.32-2.95-1.64,4.7-4.56,10.2-1.33,1.58-1.45-3.86-1.93-2.23-.65-.62-1.59-1.12-1.91-1.88-.83-1.95-1.38-4-2.05-6l-2.06-7.76c-.63-2.44-1.27-4.89-1.9-7.34l-1-3-2.07-4.71-4-6.22c-2-1-3-3.77-5.89-3.14-.58-2.51-2.54-1.64-4.12-1.69l-11.91.76a19.17,19.17,0,0,0-3.71-.87c-3.13-.11-6.27.16-9.39,0s-5.87.49-8,2.89c-2.68.84-4.93,2.2-6,5-4.67,1.27-6,5.39-7.81,9.14-.13.28.36.85.57,1.29a1.87,1.87,0,0,0-.58.54c-3.51.27-3.69.44-4.25,4.16l-.94,1.74c-2.78,1.54-3.15,4.55-4.32,7.07-1.71,2.78-3.72,5.48-2.86,9.08-2.8.14-1.69,2.77-2.61,4.11l-1.11,5.89c-1,1.74-1.24,3.13,1.46,3.16.81,0,1.63-.06,2.44-.1l8-.06,5-1,2-.89,4.92-3a45.68,45.68,0,0,1,3.31-4.13,8.61,8.61,0,0,0,2.86-6.88l1.92-6.11,1.8-4.88a8.15,8.15,0,0,1,2.32-5.94l.7-1.11,1-2,1.35-1.87,1.84-1.92,1-1.08,3.92-2.06,3,8.12.91,3.9,1.16,4.95,1.12,5,1,3,1,3,1.91,4a12.2,12.2,0,0,0,8.91,9.08,10.08,10.08,0,0,0,2.77.83c9.45,0,18.89-.14,28.34-.23,4.92-1.59,9.15-4.11,11.79-8.77l1.32-2.7,5-6.89,2.93-4.23,4.21-7.92,2.81-5.06q5-8.07,9.92-16.14c1.5-1.55.43-2-1-2q-10.15,0-20.31.22a5.14,5.14,0,0,0-1.79.76c-3.14.33-5.07,3.25-7.15,5.72-1.84,5.12-6.64,36-13.07,25.08-.5,1.37,5.95-16.11,5.46-14.74l-1,3-1.38,5.88c-.62,2-1.23,4.07-1.85,6.1C559.33,262.13,562.39,263.7,562.13,264.37Zm-66.47,54.94h7l1.85-.28c-.35-.52-.57-1.28-1.05-1.52-2.63-1.28-5.18-.92-8.07-.33a6.33,6.33,0,0,0-5.45,4.92,5.91,5.91,0,0,0,2.51,6.59c1.46,1.08,3.11,1.92,4.68,2.86,1.28.76,2.63,1.44,3.86,2.28,1.72,1.18,2.45,3.1,1.6,4.81a5.53,5.53,0,0,1-3.61,2.78c-2.23.29-4.57-.33-6.86-.6-.81-.09-2-1.42-2.23.35-.11.69.7,2.13,1.25,2.22a32.24,32.24,0,0,0,8.33.71c3.1-.29,5.73-1.86,6.43-5.36s-.92-5.85-3.57-7.63c-1.93-1.29-4.09-2.22-6.08-3.43C491.79,325,491.68,322.89,495.66,319.31Zm46.93,10.92h0c0,4-.06,8,.06,12,0,.52.88,1.15,1.48,1.43.2.09,1.12-.71,1.21-1.2a19.2,19.2,0,0,0,.15-3.48c0-5.15,0-10.3,0-15.45a4.3,4.3,0,0,1,.43-1.28c.38.28.88.47,1.12.84,2.46,3.74,4.88,7.52,7.31,11.28,1.71,2.65,3.28,5.41,5.2,7.91A4.59,4.59,0,0,0,563,343.7c1.92,0,1.49-1.84,1.5-3.08,0-5.66,0-11.31,0-17a47.46,47.46,0,0,0-.16-5.47c-.06-.52-1-.92-1.59-1.38-.36.47-1,.91-1,1.43a22.42,22.42,0,0,0-.11,3.48c0,5.15,0,10.3,0,15.46a7.54,7.54,0,0,1-.39,1.71,6.89,6.89,0,0,1-1.38-1.24c-2.88-4.46-5.7-9-8.56-13.44-1.24-2-2.56-3.88-3.77-5.87-.91-1.5-2.31-2.17-3.76-1.44-.69.35-1.07,1.86-1.1,2.86C542.51,323.25,542.59,326.74,542.59,330.23ZM486,343.17a3.72,3.72,0,0,0-.1-.65c-3.17-8.22-6.25-16.47-9.58-24.62-.82-2-3.16-1.7-4.07.57-3.14,7.88-6.12,15.81-9.13,23.74-.15.39-.1,1.24.07,1.3.57.2,1.47.43,1.8.14a5.9,5.9,0,0,0,1.6-2.33c1.91-5.23.67-4.85,7.47-4.88a27.07,27.07,0,0,0,3.49,0c2.27-.33,3.33.74,3.93,2.79a19.71,19.71,0,0,0,1.71,4.11c.23.4,1.16.55,1.77.56C485.35,343.88,485.73,343.39,486,343.17Zm85.8-13c0,3.66.1,7.32,0,11-.08,2.23.9,2.95,2.94,2.9s4.34.13,6.48,0c1.68-.14,4.76.88,4.7-1.16-.08-2.67-3.18-1.25-4.9-1.33-6.62-.31-6.13,1.2-6.16-6.67,0-.33,0-.66,0-1-.1-1.7.72-2.4,2.39-2.37,2,0,4,0,6-.11.5,0,1-.67,1.44-1-.46-.55-.83-1.33-1.42-1.57a7.13,7.13,0,0,0-2.46-.14c-6.35-.09-5.92,1.3-5.93-6.27a4.17,4.17,0,0,0,0-.5c-.16-1.68.55-2.44,2.27-2.41,2.33,0,4.66,0,7-.12.48,0,.92-.7,1.38-1.07-.48-.52-.94-1.47-1.44-1.5-3.15-.16-6.32,0-9.47-.15-2.29-.09-2.81,1.1-2.76,3.08C571.88,323.18,571.83,326.67,571.83,330.16Zm-60,.3c0,1.66,0,3.32,0,5a63.4,63.4,0,0,0,.09,6.47c.07.69,1,1.29,1.6,1.94.43-.6,1.11-1.15,1.22-1.79a21.23,21.23,0,0,0,.07-3.48c.06-4.28-.93-5.4,4.64-5.14a8.94,8.94,0,0,0,2.47-.25,8.74,8.74,0,0,0,6.59-8.85c-.2-4-2.81-6.81-7.3-7.43-2.13-.3-4.31-.14-6.46-.28s-3,.72-2.94,2.88C511.89,323.16,511.82,326.81,511.81,330.46Zm21.35-32h71c1.34,0,2.67.05,4,0A9,9,0,0,0,610,298a8.92,8.92,0,0,0-1.75-.62,18.79,18.79,0,0,0-2.49,0q-72.75,0-145.49,0a23.18,23.18,0,0,0-4,.7,31.8,31.8,0,0,0,3.88.45Q496.67,298.52,533.16,298.49Zm63.73,33.45v9.5c0,1.2,0,2.62,1.68,2.32.55-.1,1.24-1.42,1.26-2.19.12-5,0-10,.08-15,0-2.14-.44-4.74.59-6.26.73-1.06,3.64-.55,5.53-.93.64-.13,1.15-.86,1.71-1.31-.57-.47-1.13-1.32-1.72-1.34-4-.14-8-.2-12-.06-1.67.06-4.55-1-4.7,1.23-.18,2.63,2.77,1.53,4.28,1.48,2.78-.11,3.41,1.13,3.3,3.57C596.79,325.94,596.88,328.94,596.89,331.94Zm-62.25,8c-.85,1-1.86,1.73-1.84,2.39s1.05,1.32,1.64,2c.66-.6,1.75-1.14,1.86-1.83S535.42,341.1,534.64,340Z"/><path class="cls-3" d="M435.65,290.07c-.43-54.91,43.85-100.3,101.85-98.72,53.36,1.47,96.89,43.76,96.12,100.2-.76,55.55-42.74,97.9-99.76,97.8C478.4,389.25,435.54,346.23,435.65,290.07Zm126.72-27.78c-.32-3-1.64,4.69-4.56,10.2-1.33,1.58-1.45-3.86-1.93-2.23-.65-.62-1.59-1.12-1.91-1.88-.82-2-1.38-4-2.05-6.05-.68-2.59-1.37-5.17-2.06-7.76s-1.26-4.89-1.9-7.34l-1-3-2.07-4.7-4-6.22c-2-1-3-3.77-5.89-3.15-.58-2.5-2.54-1.63-4.12-1.68l-11.91.76a18.33,18.33,0,0,0-3.71-.88c-3.13-.1-6.27.16-9.39,0s-5.86.48-8,2.88c-2.68.85-4.93,2.21-6,5-4.67,1.28-6,5.4-7.81,9.15-.13.28.36.85.57,1.29a2,2,0,0,0-.58.54c-3.51.27-3.69.44-4.24,4.16l-.95,1.73c-2.78,1.54-3.15,4.55-4.32,7.08-1.71,2.78-3.72,5.47-2.86,9.07-2.8.15-1.69,2.78-2.61,4.12L468,279.28c-1,1.75-1.24,3.14,1.46,3.16.81,0,1.63-.06,2.44-.09l8-.07,5-1,2-.89,4.92-3a46,46,0,0,1,3.31-4.13,8.63,8.63,0,0,0,2.86-6.88l1.92-6.11,1.8-4.89a8.18,8.18,0,0,1,2.32-5.94l.7-1.11,1-2,1.35-1.88,1.84-1.91,1-1.09,3.92-2.05,3,8.12.92,3.89,1.15,5,1.12,5,1,3,1,3,1.9,4a12.21,12.21,0,0,0,8.91,9.09,9.72,9.72,0,0,0,2.77.82c9.45,0,18.9-.13,28.34-.22,4.92-1.6,9.16-4.12,11.79-8.78L577,269.6l5-6.9,2.93-4.22,4.21-7.92c.94-1.69,1.87-3.38,2.81-5.06l9.93-16.15c1.49-1.54.42-2-1-2q-10.15,0-20.31.21a5.46,5.46,0,0,0-1.79.77c-3.14.33-5.07,3.25-7.15,5.71-1.84,5.13-6.64,36-13.07,25.09-.5,1.37,5.95-16.11,5.46-14.74l-1,3-1.38,5.88c-.62,2-1.23,4.08-1.85,6.11C559.57,260.05,562.64,261.62,562.37,262.29ZM495.9,317.23h7l1.84-.29c-.34-.51-.57-1.28-1.05-1.51-2.63-1.29-5.18-.92-8.07-.34a6.33,6.33,0,0,0-5.44,4.93,5.89,5.89,0,0,0,2.5,6.58,51.75,51.75,0,0,0,4.68,2.86c1.29.77,2.63,1.45,3.86,2.29,1.72,1.18,2.45,3.1,1.61,4.81a5.57,5.57,0,0,1-3.62,2.78c-2.23.28-4.57-.34-6.86-.6-.81-.09-1.95-1.42-2.23.34-.11.7.7,2.14,1.26,2.23a32.61,32.61,0,0,0,8.33.71c3.09-.3,5.72-1.87,6.42-5.36s-.92-5.85-3.57-7.63c-1.93-1.3-4.09-2.22-6.08-3.43C492,322.9,491.92,320.81,495.9,317.23Zm46.93,10.92h0c0,4-.06,8,.07,12,0,.51.87,1.15,1.47,1.42.2.09,1.13-.71,1.22-1.19a20.15,20.15,0,0,0,.14-3.48c0-5.15,0-10.31,0-15.46a4.24,4.24,0,0,1,.43-1.27,4.19,4.19,0,0,1,1.12.83c2.46,3.75,4.88,7.52,7.31,11.29,1.71,2.65,3.28,5.41,5.2,7.9a4.56,4.56,0,0,0,3.32,1.47c1.92,0,1.49-1.84,1.5-3.09,0-5.65,0-11.3,0-16.95a47.4,47.4,0,0,0-.16-5.47c-.06-.52-1-.93-1.59-1.38-.36.47-1,.91-1,1.43a22.38,22.38,0,0,0-.11,3.48c0,5.15,0,10.3,0,15.45a7.5,7.5,0,0,1-.39,1.72,6.89,6.89,0,0,1-1.38-1.24c-2.88-4.47-5.7-9-8.55-13.44-1.25-2-2.57-3.88-3.78-5.87-.91-1.51-2.31-2.18-3.76-1.44-.69.35-1.07,1.85-1.1,2.86C542.75,321.16,542.83,324.66,542.83,328.15Zm-56.56,12.93a3.41,3.41,0,0,0-.1-.64c-3.17-8.22-6.25-16.48-9.58-24.63-.82-2-3.16-1.7-4.07.58-3.14,7.87-6.12,15.81-9.13,23.74-.15.39-.1,1.23.07,1.29.57.21,1.47.44,1.8.15a5.94,5.94,0,0,0,1.6-2.34c1.91-5.23.67-4.84,7.47-4.88a23.89,23.89,0,0,0,3.49,0c2.27-.32,3.34.75,3.93,2.79a19.49,19.49,0,0,0,1.71,4.11c.23.41,1.16.55,1.77.57C485.6,341.79,486,341.3,486.27,341.08Zm85.8-13c0,3.66.1,7.32,0,11-.08,2.22.9,2.95,3,2.9s4.33.13,6.47-.05c1.69-.13,4.76.88,4.7-1.16-.07-2.66-3.18-1.25-4.9-1.33-6.62-.31-6.13,1.21-6.16-6.66,0-.33,0-.67,0-1-.09-1.69.72-2.39,2.39-2.36,2,0,4,0,6-.11.51,0,1-.67,1.44-1-.46-.54-.83-1.33-1.42-1.56a7.13,7.13,0,0,0-2.46-.14c-6.35-.1-5.92,1.3-5.93-6.28,0-.16,0-.33,0-.5-.17-1.67.54-2.43,2.26-2.4,2.33,0,4.66,0,7-.12.48,0,.92-.7,1.38-1.07-.48-.53-.94-1.48-1.44-1.5-3.15-.16-6.32,0-9.47-.15-2.29-.09-2.8,1.09-2.76,3.08C572.12,321.1,572.07,324.59,572.07,328.08Zm-60,.3c0,1.66,0,3.32,0,5a63.17,63.17,0,0,0,.09,6.46c.07.7,1,1.3,1.6,1.94.43-.59,1.11-1.14,1.23-1.79a22.26,22.26,0,0,0,.06-3.47c.07-4.28-.93-5.4,4.64-5.15a8.57,8.57,0,0,0,2.47-.24,8.74,8.74,0,0,0,6.59-8.85c-.2-4.05-2.81-6.82-7.3-7.44-2.13-.29-4.31-.13-6.46-.27s-3,.72-2.94,2.87C512.13,321.07,512.06,324.73,512.06,328.38Zm21.34-32h71c1.34,0,2.67,0,4,0a9,9,0,0,0,1.86-.51,9,9,0,0,0-1.74-.61,18.94,18.94,0,0,0-2.5-.05q-72.75,0-145.49,0a23.21,23.21,0,0,0-4,.71,32,32,0,0,0,3.88.45Q496.91,296.42,533.4,296.41Zm63.73,33.45c0,3.17,0,6.33,0,9.5,0,1.19,0,2.62,1.67,2.32.56-.1,1.24-1.42,1.26-2.2.12-5,0-10,.08-15,0-2.14-.44-4.74.59-6.26.73-1.06,3.64-.55,5.53-.93.64-.13,1.15-.86,1.72-1.31-.58-.47-1.14-1.33-1.73-1.35-4-.13-8-.2-12-.06-1.66.06-4.55-1-4.7,1.23-.18,2.64,2.77,1.54,4.28,1.48,2.78-.1,3.41,1.14,3.31,3.57C597,323.86,597.13,326.86,597.13,329.86Zm-62.25,8c-.85,1-1.86,1.73-1.84,2.39s1.05,1.32,1.64,2c.66-.61,1.75-1.14,1.86-1.83S535.67,339,534.88,337.89Z"/><path class="cls-4" d="M534.39,393.49c-2.3,0-4.6,0-6.9,0a6.07,6.07,0,0,1-1.64-.54,9.27,9.27,0,0,1,1.85-.4q6.9,0,13.81,0a6,6,0,0,1,1.64.53,9.27,9.27,0,0,1-1.85.4C539,393.52,536.7,393.49,534.39,393.49Z"/><path class="cls-5" d="M542.43,330.27c0-3.49-.08-7,.05-10.47,0-1,.42-2.51,1.11-2.86,1.45-.73,2.84-.06,3.76,1.44,1.2,2,2.52,3.91,3.77,5.87,2.85,4.48,5.68,9,8.55,13.44a7.49,7.49,0,0,0,1.38,1.24,7.57,7.57,0,0,0,.4-1.71c0-5.16,0-10.31,0-15.46a23.73,23.73,0,0,1,.11-3.48c.08-.52.68-1,1-1.43.55.46,1.52.86,1.59,1.38a45.31,45.31,0,0,1,.15,5.47c0,5.65,0,11.3,0,17,0,1.24.42,3-1.5,3.08a4.57,4.57,0,0,1-3.32-1.46c-1.92-2.49-3.49-5.25-5.2-7.91-2.43-3.76-4.86-7.54-7.32-11.28-.24-.37-.74-.56-1.11-.84a4.63,4.63,0,0,0-.44,1.28c0,5.15,0,10.3,0,15.45a19.16,19.16,0,0,1-.14,3.48c-.09.49-1,1.29-1.21,1.2-.61-.28-1.46-.91-1.48-1.43-.12-4-.07-8-.07-12Z"/><path class="cls-5" d="M485.88,343.21c-.31.22-.68.71-1,.7-.62,0-1.55-.16-1.78-.56a19.71,19.71,0,0,1-1.71-4.11c-.59-2.05-1.66-3.12-3.93-2.79a27.05,27.05,0,0,1-3.49,0c-6.79,0-5.55-.35-7.47,4.88a5.78,5.78,0,0,1-1.59,2.33c-.33.29-1.24.06-1.8-.14-.17-.06-.22-.91-.08-1.3,3-7.93,6-15.86,9.14-23.73.91-2.28,3.24-2.59,4.06-.58,3.34,8.15,6.42,16.4,9.58,24.62A3.49,3.49,0,0,1,485.88,343.21Zm-12-9.61h1.5c3.64-.08,3.74-.12,2.42-3.5-1.12-2.86-2.53-5.61-3.81-8.4-1.12,2.75-2.31,5.49-3.34,8.28-1.32,3.54-1.26,3.56,2.73,3.62Z"/><path class="cls-6" d="M571.67,330.2c0-3.49.06-7,0-10.47,0-2,.47-3.17,2.76-3.08,3.16.12,6.32,0,9.47.15.51,0,1,1,1.44,1.5-.46.37-.9,1-1.38,1.07-2.32.14-4.65.16-7,.12-1.73,0-2.44.73-2.27,2.41a4.17,4.17,0,0,1,0,.5c0,7.57-.43,6.18,5.92,6.27a7.2,7.2,0,0,1,2.47.14c.59.24.95,1,1.42,1.57-.48.35-.94,1-1.44,1-2,.15-4,.15-6,.11-1.66,0-2.48.68-2.39,2.37,0,.33,0,.66,0,1,0,7.87-.46,6.36,6.16,6.67,1.72.08,4.83-1.34,4.91,1.33,0,2-3,1-4.7,1.16-2.15.17-4.32,0-6.48,0s-3-.67-2.94-2.9C571.77,337.52,571.67,333.86,571.67,330.2Z"/><path class="cls-7" d="M511.66,330.5c0-3.65.08-7.3,0-10.95-.06-2.16.83-3,3-2.88s4.33,0,6.45.28c4.5.62,7.1,3.38,7.31,7.44a8.71,8.71,0,0,1-9.06,9.09c-5.58-.26-4.58.86-4.64,5.14a22.4,22.4,0,0,1-.07,3.48c-.12.65-.8,1.19-1.22,1.79-.56-.65-1.53-1.25-1.61-1.94-.21-2.14-.09-4.31-.09-6.47Zm3-5.29c0,.83,0,1.66,0,2.5.12,3.05.52,3.44,3.49,3.25a12,12,0,0,0,2.46-.39c3.49-.92,5-3.25,4.34-6.7-.59-3.23-3.31-4.69-7.78-4.41-4.13.26-1.95,3.38-2.51,5.25A2.09,2.09,0,0,0,514.65,325.21Z"/><path class="cls-8" d="M533,298.53q-36.51,0-73,0a31.87,31.87,0,0,1-3.87-.45,23.18,23.18,0,0,1,4-.7q72.74-.06,145.48,0a17.34,17.34,0,0,1,2.5.05,9.1,9.1,0,0,1,1.75.61,9.21,9.21,0,0,1-1.86.51c-1.33.08-2.67,0-4,0Z"/><path class="cls-7" d="M495.51,319.36c-4,3.57-3.87,5.67.56,8.36,2,1.21,4.15,2.14,6.07,3.43,2.66,1.78,4.26,4.22,3.58,7.63s-3.33,5.07-6.43,5.36a32.2,32.2,0,0,1-8.33-.71c-.56-.09-1.37-1.53-1.26-2.22.28-1.77,1.43-.44,2.24-.35,2.29.27,4.63.89,6.85.6a5.57,5.57,0,0,0,3.62-2.78,3.78,3.78,0,0,0-1.6-4.8c-1.23-.85-2.58-1.53-3.87-2.29-1.57-.94-3.21-1.78-4.67-2.86a5.89,5.89,0,0,1-2.51-6.59,6.32,6.32,0,0,1,5.44-4.92c2.89-.59,5.44-1,8.07.33.48.24.71,1,1.05,1.52l-1.84.29A6.57,6.57,0,0,0,495.51,319.36Z"/><path class="cls-9" d="M596.73,332c0-3-.1-6,0-9,.1-2.43-.53-3.67-3.31-3.57-1.5.05-4.45,1.15-4.28-1.48.16-2.25,3-1.17,4.7-1.23,4-.14,8-.08,12,.06.59,0,1.16.87,1.73,1.34-.57.45-1.08,1.18-1.71,1.31-1.9.38-4.81-.13-5.53.93-1,1.52-.57,4.12-.59,6.26-.06,5,0,10-.08,15,0,.77-.71,2.09-1.26,2.19-1.68.3-1.68-1.12-1.68-2.32C596.73,338.32,596.74,335.15,596.73,332Z"/><path class="cls-10" d="M534.49,340c.78,1.13,1.75,1.92,1.66,2.54s-1.2,1.23-1.87,1.83c-.59-.66-1.62-1.3-1.64-2S533.63,341.05,534.49,340Z"/><path class="cls-11" d="M495.51,319.36a6.57,6.57,0,0,1,7,0Z"/><path class="cls-3" d="M473.91,333.6h-.5c-4-.06-4.05-.08-2.73-3.62,1-2.79,2.22-5.53,3.34-8.28,1.28,2.79,2.69,5.54,3.81,8.4,1.32,3.38,1.22,3.42-2.42,3.5Z"/><path class="cls-3" d="M514.65,325.21a2.09,2.09,0,0,1,0-.5c.56-1.87-1.62-5,2.51-5.25,4.47-.28,7.19,1.18,7.78,4.41.63,3.45-.85,5.78-4.34,6.7a12,12,0,0,1-2.46.39c-3,.19-3.37-.2-3.49-3.25C514.62,326.87,514.65,326,514.65,325.21Z"/><path class="cls-12" d="M589.05,228.2h10.84c-.32.74-.6,1.5-.95,2.21-1.4,2.83-2.83,5.65-4.25,8.48L591.2,246l-3.48,7.2-3,5.84-13.51-.45,5.7-9.86a22.42,22.42,0,0,0,1.45-2.19c2.73-5.39,5.42-10.79,8.12-16.19Z"/><path class="cls-13" d="M523.93,275.22l-1.74-4.49c3.4.79,6.42-1.29,9.71-1.37l1.76,3.14,3.48,6.27a51.72,51.72,0,0,0,4.15,4.68c.81.72,2.12.83,3.2,1.22L540.63,286c-1.33-.47-2.85-.67-4-1.46a49.21,49.21,0,0,1-4.77-4.38C529.43,275.11,529.43,275.11,523.93,275.22Z"/><path class="cls-14" d="M531.9,269.36c-3.29.08-6.31,2.16-9.71,1.37-.55-1.8-1.09-3.6-1.64-5.4l5.22-.69c-.73-2.19-1.45-4.34-2.17-6.48L521,249.65h0l3.44-.42q1.74,4.49,3.47,9L531,266.7Z"/><path class="cls-15" d="M554.14,264.44c.26,1,.53,2.09.8,3.14-4.79,0-4.79,0-3.85,4.72l0,.22,2.13,7.12-1.27,1L551,281l-1.74-2.69-3-6.27-1.65-4.5c1.43-.55,3.1-.8,4.23-1.73C550.49,264.47,552.25,264.42,554.14,264.44Z"/><path class="cls-16" d="M601.25,228.16h8.16L603.89,238l-4.79-.9Z"/><path class="cls-17" d="M554.14,264.44c-1.89,0-3.65,0-5.31,1.4-1.13.93-2.8,1.18-4.23,1.73-.29-.76-.59-1.51-.88-2.26-.58-1.95-1.17-3.89-1.75-5.83l4.76-1.77,1.28,3.86,5.31-.28Z"/><path class="cls-18" d="M556.8,274.67l.87.57,6.6-7.62,3.42-4.05-.87,3.56-1.73,4.49-1.8,4.91-2.19,4-.87,1.33-.85.48-2.61-6.24Z"/><path class="cls-19" d="M503.11,253.7q-1.51,4.73-3,9.44l-2.2-.95c.28-.74.57-1.49.86-2.24l2.67-4.13-5.71-.8,3.92-5.82.38,0c3.79.64,3.79.64,3.14,4.3A1.64,1.64,0,0,0,503.11,253.7Z"/><path class="cls-20" d="M589.05,228.2c-.87.73-2.44,1.44-3.31,2.16-.88.15-2,0-2.6.51-2.25,1.65-4.36,3.52-6.53,5.31l-5.29-.91c4.62-6.27,7.17-6.92,11.58-7C584.55,228.31,587.4,228.34,589.05,228.2Z"/><path class="cls-20" d="M588.75,229l-2.06,1.71a.14.14,0,0,1-.1.05c-.87.14-1.91,0-2.54.5-2.33,1.71-4.51,3.65-6.76,5.5l-3-3.35a19.27,19.27,0,0,1,10-4.4c1.41-.23,2.85-.28,4.28-.38A.21.21,0,0,1,588.75,229Z"/><path class="cls-21" d="M599.1,237.09l4.79.9-6.54,11.66-2.19-1.81v-.43l2.64-7.63C598.23,238.89,598.66,238,599.1,237.09Z"/><path class="cls-22" d="M497,273c-.94,3.23-2.2,6.26-4.83,8.46-.46-.57-.83-1.46-1.41-1.64a10.81,10.81,0,0,0-3-.13c.16-.44.31-.88.47-1.33l2.17-4,1.71-2.25Z"/><path class="cls-23" d="M551,281l.94-.43,4.78,4.45,1.29,1.28H540.64c0-.13,0-.26,0-.38l3.86-1.29Z"/><path class="cls-24" d="M584.68,259.06l3-5.84,4.38.91c-.48,1-.88,2-1.45,3-.82,1.33-.86,2.42.56,3.29q-1.71,2.72-3.44,5.43a2,2,0,0,1-.36-3c1-1.56.64-2.6-1.3-2.83a8.07,8.07,0,0,1-1.42-.45C584.69,259.35,584.69,259.2,584.68,259.06Z"/><path class="cls-25" d="M550.15,248.32l2.16,8-5.58.9c-.72-2.69-1.45-5.38-2.17-8.07Z"/><path class="cls-26" d="M497,273l-4.86-.93.93-2.69,3-4.92,1.77-2.25,2.2.95Q498.54,268.06,497,273Z"/><path class="cls-27" d="M503.11,253.7a1.64,1.64,0,0,1,0-.22c.65-3.66.65-3.66-3.14-4.3l7.89-9c-.56,2.3-1.31,4.61.39,6.77Z"/><path class="cls-28" d="M477.78,287.85c-4.18.08-8.35.21-12.52.16-.47,0-1.44-1.27-1.31-1.67,1.46-4.8,3.08-9.55,4.66-14.32.33,2.26.67,4.52,1,6.78l-4.34,8.93H470l7.87-.09Z"/><path class="cls-29" d="M550.15,248.32l-5.59.87-.9-2.69-1.7-4.93,5.69,0Z"/><path class="cls-30" d="M558.05,286.33l-1.29-1.28,2.62-2.68.86-.48c1.88,3.85,3.47,4.46,7.17,2.71.85-.4,1.65-.89,2.48-1.34l4.77-3.13,1.28.85a13.59,13.59,0,0,1-10.29,5.37C563.12,286.45,560.58,286.34,558.05,286.33Z"/><path class="cls-31" d="M515.38,244.7,514.17,241l-.78-.48-2.45,3.3a14.22,14.22,0,0,1-.83-2.13c-.24-1.07-.32-2.18-.47-3.27l2.76-2.47,1.85,4.17,1.52-1.63q1.31,2.43,2.6,4.87C517.89,245,516.55,244.65,515.38,244.7Z"/><path class="cls-29" d="M521,249.65l2.64,8.51-4.8.45-2.1-8.51Z"/><path class="cls-4" d="M469.61,278.8c-.33-2.26-.67-4.52-1-6.78,1.16-2.84,2.33-5.67,3.49-8.51.32,2.4.63,4.8.95,7.2-.06.57-.11,1.14-.16,1.7l-.81,2.3Z"/><path class="cls-32" d="M584.69,259.5a8.07,8.07,0,0,0,1.42.45c1.94.23,2.34,1.27,1.3,2.83a2,2,0,0,0,.36,3c-.69,1.06-1.37,2.12-2.06,3.17l-1.69-.82-2.81-1.48,1.29-3.15Z"/><path class="cls-33" d="M529.25,229.55l2.17,0c2.64,1.72,5.61,3.06,7.07,6.2l-5.34.49h-.39c-1.53-2.3-3-4.69-6.08-5Z"/><path class="cls-34" d="M529.25,229.55l-2.57,1.71-7.44,4.45-1.74.94L515.76,238l-1.7-3,2.94-2,10.13-3.42Z"/><path class="cls-35" d="M562.44,261.3c.73-2.4,1.45-4.79,2.18-7.18a10.1,10.1,0,0,0,2.13,1.31,21.53,21.53,0,0,0,3.13.53q-.87,2.89-1.75,5.79Z"/><path class="cls-36" d="M547.65,241.55l-5.69,0-.42-.45-2.68-5.36,5.63-.44Z"/><path class="cls-37" d="M518.8,258.61l4.8-.45c.72,2.14,1.44,4.29,2.17,6.48l-5.22.69Z"/><path class="cls-38" d="M544.49,235.32l-5.63.44-.37,0c-1.46-3.14-4.43-4.48-7.07-6.2C536.8,229,541.31,230.58,544.49,235.32Z"/><path class="cls-32" d="M572,235.28l5.28.91-2.64,4.94c-2,1.29-4,.86-6.11.45Z"/><path class="cls-32" d="M571.58,235.28l5.29.91-2.65,4.94c-2,1.29-4,.86-6.11.45Z"/><path class="cls-39" d="M487.81,279.67a10.81,10.81,0,0,1,3,.13c.58.18,1,1.07,1.41,1.64-3.73,4.26-8.5,6.07-14,6.25,3.45-1.12,6.54-2.72,8.29-6.22Z"/><path class="cls-40" d="M540.63,286c0,.12,0,.25,0,.38-5.08.39-9.8-.24-13.11-4.86l4.37-1.36a49.21,49.21,0,0,0,4.77,4.38C537.78,285.29,539.3,285.49,540.63,286Z"/><path class="cls-13" d="M581.21,266.68l2.81,1.48,1.69.82-2.81,3.87c-1.9-1.39-2.23,1.15-3.45,1.46l-2.14-.92.84-1.34c.73-1.48,1.47-3,2.21-4.45Z"/><path class="cls-4" d="M562.44,261.3l5.69.45c0,.29,0,.59,0,.89l-.42.93-3.42,4.05-3.57-.94Z"/><path class="cls-4" d="M562.3,261.27l5.69.45,0,.89-.41.94-3.42,4-3.57-.93Z"/><path class="cls-41" d="M599.1,237.09c-.44.9-.87,1.8-1.3,2.69l-3.11-.9c1.42-2.83,2.85-5.65,4.25-8.48.35-.71.63-1.47.95-2.21l1.36,0C600.53,231.14,599.82,234.11,599.1,237.09Z"/><path class="cls-42" d="M473.05,270.71c-.32-2.4-.63-4.8-.95-7.2l3.5-7.16c.3,1.37.61,2.73.91,4.1Q474.77,265.58,473.05,270.71Z"/><path class="cls-43" d="M531.9,280.12l-4.37,1.36-3.6-6.26C529.43,275.11,529.43,275.11,531.9,280.12Z"/><path class="cls-44" d="M486.52,281.47c-1.75,3.5-4.84,5.1-8.29,6.22l-.45.16,0-.21,2.58-6.17Z"/><path class="cls-45" d="M569.88,256a21.53,21.53,0,0,1-3.13-.53,10.1,10.1,0,0,1-2.13-1.31c.42-1.36.85-2.71,1.27-4.07,1.8,1.48,3.78.62,5.7.49Z"/><path class="cls-46" d="M568.56,241.58c2.08.41,4.15.84,6.11-.45l-1.77,5.38-5.67-.92C567.67,244.25,568.12,242.91,568.56,241.58Z"/><path class="cls-46" d="M568.33,241.58c2.07.41,4.15.84,6.11-.45l-1.77,5.38-5.67-.92C567.44,244.25,567.88,242.91,568.33,241.58Z"/><path class="cls-47" d="M546.73,257.26l5.58-.9c.34,1.64.67,3.29,1,4.93l-5.31.28-1.28-3.86Z"/><path class="cls-48" d="M556.8,274.67l0,1.46-3.52,3.51-2.13-7.12,5.13,0C556.45,273.27,556.67,274.14,556.8,274.67Z"/><path class="cls-48" d="M557.78,273.84l0,1.47q-1.77,1.74-3.52,3.5l-2.13-7.12,5.13,0C557.43,272.44,557.65,273.32,557.78,273.84Z"/><path class="cls-48" d="M557.78,273.26l0,1.47q-1.77,1.74-3.52,3.5l-2.13-7.12,5.13,0Z"/><path class="cls-49" d="M567.23,245.59l5.67.92c-.14.74-.27,1.49-.41,2.24l-.9,1.79c-1.92.13-3.9,1-5.7-.49Z"/><path class="cls-49" d="M567.23,245.22l5.67.91c-.14.75-.27,1.49-.41,2.24l-.9,1.8c-1.92.13-3.9,1-5.7-.49C566.34,248.19,566.78,246.7,567.23,245.22Z"/><path class="cls-50" d="M517,232.93l-2.94,2c-2.54-2.1-4.84-4.61-8.32-5.07,0-.11,0-.23-.05-.34l6.58,0c.11.92.14,2.48,1.4,1.73C515.94,229.9,516.37,231.4,517,232.93Z"/><path class="cls-51" d="M476.51,260.45c-.3-1.37-.61-2.73-.91-4.1q2.19-3.78,4.4-7.56l.87,2.23Q478.68,255.73,476.51,260.45Z"/><path class="cls-37" d="M521,249.65l-4.26.45-1.32-5.4c1.17,0,2.51.31,3-1.35l.41,0,2.23,6.26Z"/><path class="cls-52" d="M556.25,272.49l-5.13,0,0-.22c-.94-4.74-.94-4.74,3.85-4.72Z"/><path class="cls-53" d="M517,232.93c-.63-1.53-1.06-3-3.33-1.68-1.26.75-1.29-.81-1.4-1.73h14.86Z"/><path class="cls-54" d="M480.87,251l-.87-2.23,5.64-7.67,1.32.9Z"/><path class="cls-55" d="M560.7,266.68l3.57.94-6.6,7.62Z"/><path class="cls-55" d="M560.29,266.68l3.57.94-6.6,7.62Z"/><path class="cls-56" d="M509.64,238.41c.15,1.09.23,2.2.47,3.27a14.22,14.22,0,0,0,.83,2.13l-2.67,3.12c-1.7-2.16-.95-4.47-.39-6.77,0-.25.05-.51.08-.76Z"/><path class="cls-57" d="M505.69,229.54c0,.11,0,.23.05.34-4.85-.29-8.47,2.22-11.8,5.43l-1.3.44-.87-.86C495.76,231.32,500.17,228.9,505.69,229.54Z"/><path class="cls-4" d="M595.16,247.84l2.19,1.81q-1.27,2.25-2.57,4.5l-2.23-.47Z"/><path class="cls-58" d="M592.55,253.68l2.23.47-3.57,6.23c-1.42-.87-1.38-2-.56-3.29.57-.93,1-2,1.45-3Z"/><path class="cls-59" d="M491.77,234.89l.87.86L487,242l-1.32-.9Z"/><path class="cls-60" d="M575.94,281l-1.28-.85,3.93-4,1.24.79Q577.9,278.94,575.94,281Z"/><path class="cls-43" d="M579.83,276.88l-1.24-.79.86-1.78c1.22-.31,1.55-2.85,3.45-1.46C581.88,274.19,580.86,275.54,579.83,276.88Z"/><path class="cls-61" d="M572.49,248.75c.14-.75.27-1.5.41-2.24l1.77-5.38,2.64-4.94c2.17-1.78,4.28-3.65,6.53-5.31.65-.48,1.72-.35,2.6-.51-2.7,5.4-5.39,10.8-8.12,16.19a22.42,22.42,0,0,1-1.45,2.19Z"/><path class="cls-62" d="M584.69,259.5l-2.19,4a13.16,13.16,0,0,0-3.06-.84c-3.62-.11-7.26-.05-10.89-.05l2.62-4,13.51.45C584.69,259.2,584.69,259.35,584.69,259.5Z"/><path class="cls-39" d="M571.17,258.61c-.87,1.34-1.74,2.69-2.62,4h-.44c0-.3,0-.6,0-.89q.89-2.89,1.75-5.79l1.71-5.42.9-1.79h4.38Z"/><path class="cls-36" d="M594.69,238.88l3.11.9-2.64,7.63-4-1.39Z"/><path class="cls-29" d="M591.2,246l4,1.39v.43l-2.61,5.84-.45.45-4.38-.91Z"/><path class="cls-44" d="M543.72,265.31c.29.75.59,1.5.88,2.26l1.65,4.5c-.8,0-1.6,0-2.4,0l-10.19.44-1.76-3.14L531,266.7c.78-.46,1.54-1.27,2.34-1.3C536.8,265.24,540.26,265.32,543.72,265.31Z"/><path class="cls-63" d="M533.66,272.5l10.19-.44c.8,0,1.6,0,2.4,0l3,6.27-12.16.43Z"/><path class="cls-34" d="M537.14,278.77l12.16-.43L551,281l-6.55,3.64c-1.08-.39-2.39-.5-3.2-1.22A51.72,51.72,0,0,1,537.14,278.77Z"/><path class="cls-62" d="M527.92,258.17q-1.74-4.47-3.47-9l-.42-1.36c1.8,0,3.6,0,5.4,0,2.86-.11,5.72-.29,8.59-.44l3.47,10.76Z"/><path class="cls-64" d="M527.92,258.17h13.57l.48,1.32c.58,1.94,1.17,3.88,1.75,5.83-3.46,0-6.92-.07-10.37.09-.8,0-1.56.84-2.34,1.3Z"/><path class="cls-15" d="M524,247.86l.42,1.36-3.44.42q-1.11-3.12-2.23-6.26l2.63-.9c.29.6.59,1.19.88,1.79Z"/><path class="cls-65" d="M553.25,279.64l3.52-3.51,2.61,6.24-2.62,2.68L552,280.6Z"/><path class="cls-26" d="M542,259.48l-.48-1.32q-1.74-5.37-3.47-10.76c0-.3,0-.6,0-.89h5.65l.9,2.69c.72,2.69,1.45,5.38,2.17,8.07v.45Z"/><path class="cls-66" d="M568.11,262.64h.44c3.63,0,7.27-.06,10.89.05a13.16,13.16,0,0,1,3.06.84l-1.29,3.15-.85.92a17.27,17.27,0,0,0-2.73-.45c-3.6,0-7.21,0-10.81,0l.87-3.56Z"/><path class="cls-67" d="M578.15,272.05l-.84,1.34L575.1,277a15.81,15.81,0,0,0-2.52-.43c-3.1-.06-6.2,0-9.29,0l1.8-4.91c1.08,0,2.15-.05,3.22,0C571.59,271.74,574.87,271.9,578.15,272.05Z"/><path class="cls-68" d="M578.15,272.05c-3.28-.15-6.56-.31-9.84-.44-1.07,0-2.14,0-3.22,0l1.73-4.49c3.6,0,7.21,0,10.81,0a17.27,17.27,0,0,1,2.73.45C579.62,269.08,578.88,270.57,578.15,272.05Z"/><path class="cls-69" d="M563.29,276.53c3.09,0,6.19,0,9.29,0a15.81,15.81,0,0,1,2.52.43l-3.5,4.4a10.82,10.82,0,0,0-2.57-.78c-2.64-.11-5.28,0-7.93-.05Z"/><path class="cls-34" d="M561.1,280.56c2.65,0,5.29-.06,7.93.05a10.82,10.82,0,0,1,2.57.78l-1.71,1.87c-.83.45-1.63.94-2.48,1.34-3.7,1.75-5.29,1.14-7.17-2.71Z"/><path class="cls-70" d="M508,239.4c0,.25-.06.51-.08.76l-7.89,9-.38,0a6,6,0,0,0-2.07-.48c-4.54.7-9.07,1.5-13.6,2.27l5.61-9.42c5.15-.95,10.29-1.95,15.45-2.79C505.93,238.63,507,239.18,508,239.4Z"/><path class="cls-71" d="M483.94,251c4.53-.77,9.06-1.57,13.6-2.27a6,6,0,0,1,2.07.48L495.69,255l-1.26,1.37c-2.41.35-4.82.73-7.24,1-2.26.29-4.53.49-6.79.73Z"/><path class="cls-72" d="M494.43,256.39l1.26-1.37,5.71.8L498.73,260l-5.67-.91Z"/><path class="cls-73" d="M493.06,259l5.67.91c-.29.75-.58,1.5-.86,2.24l-1.77,2.25L490,264Q491.54,261.52,493.06,259Z"/><path class="cls-74" d="M493.09,269.36l-.93,2.69-1.71,2.25-5.71-.9,2.63-5Z"/><path class="cls-75" d="M484.74,273.4l5.71.9-2.17,4-5.71-.46C483.29,276.39,484,274.9,484.74,273.4Z"/><path class="cls-70" d="M482.57,277.88l5.71.46c-.16.45-.31.89-.47,1.33l-1.29,1.8H480.4l.87-1.8Z"/><path class="cls-76" d="M493.09,269.36l-5.72-.92,0-.41,2.62-4,6.08.45Q494.58,266.9,493.09,269.36Z"/><path class="cls-77" d="M481.27,279.67l-.87,1.8-2.58,6.17-7.87.09q.46-3.57.94-7.15c2.34-.32,4.68-.7,7-.94A26.77,26.77,0,0,1,481.27,279.67Z"/><path class="cls-78" d="M470.89,280.58q-.48,3.59-.94,7.15h-4.68l4.34-8.93c.82-1.37,1.65-2.73,2.47-4.09C471.68,276.67,471.29,278.63,470.89,280.58Z"/><path class="cls-79" d="M543.66,246.5H538l-1.32-2.69-.88-2.69,5.73,0,.42.46C542.53,243.21,543.09,244.85,543.66,246.5Z"/><path class="cls-43" d="M569.89,283.26l1.71-1.87,3.5-4.4,2.21-3.6,2.14.92-.86,1.78-3.93,4Z"/><path class="cls-80" d="M508,239.4c-1-.22-2-.77-3-.62-5.16.84-10.3,1.84-15.45,2.79l4.39-6.26c3.33-3.21,6.95-5.72,11.8-5.43,3.48.46,5.78,3,8.32,5.07l1.7,3v.52l-1.52,1.63-1.85-4.17-2.76,2.47Z"/><path class="cls-81" d="M515.77,238.48V238l1.74-1.31,2.65,3.57,1.26,2.26-2.63.9-.41,0Q517.08,240.91,515.77,238.48Z"/><path class="cls-82" d="M470.89,280.58c.4-1.95.79-3.91,1.19-5.87l.81-2.3,1.88-3c3.43-.63,6.85-1.32,10.28-1.85a7,7,0,0,1,2.35.51l0,.41-2.63,5c-.72,1.5-1.45,3-2.17,4.48l-1.3,1.79a26.77,26.77,0,0,0-3.35,0C475.57,279.88,473.23,280.26,470.89,280.58Z"/><path class="cls-73" d="M474.77,269.37l-1.88,3c.05-.56.1-1.13.16-1.7q1.72-5.13,3.46-10.26,2.17-4.71,4.36-9.43l6.09-9,5.68-6.27,1.3-.44-4.39,6.26L483.94,251l-3.54,7.16Z"/><path class="cls-83" d="M520.15,240.22l-2.65-3.57,1.74-.94c.34.26.69.75,1,.75,4.16,0,8.33-.16,12.49-.25h.39c.62,1.34,1.23,2.68,1.84,4Z"/><path class="cls-84" d="M532.76,236.21c-4.16.09-8.33.21-12.49.25-.34,0-.69-.49-1-.75l7.44-4.45C529.78,231.52,531.23,233.91,532.76,236.21Z"/><path class="cls-18" d="M535,240.23c-.61-1.34-1.22-2.68-1.84-4l5.34-.49.37,0,2.68,5.36h-5.73Z"/><path class="cls-85" d="M536.69,243.82l1.32,2.69c0,.29,0,.59,0,.89-2.87.15-5.73.33-8.59.44-1.8.07-3.6,0-5.4,0l-1.74-3.59a18.7,18.7,0,0,1,2.75-.43C528.92,243.79,532.81,243.82,536.69,243.82Z"/><path class="cls-68" d="M536.69,243.82c-3.88,0-7.77,0-11.65,0a18.7,18.7,0,0,0-2.75.43c-.29-.6-.59-1.19-.88-1.79l-1.26-2.26H535l.82.9C536.1,242,536.4,242.92,536.69,243.82Z"/><path class="cls-83" d="M474.77,269.37l5.63-11.22c2.26-.24,4.53-.44,6.79-.73,2.42-.3,4.83-.68,7.24-1L493.06,259q-1.53,2.47-3,4.95l-2.62,4a7,7,0,0,0-2.35-.51C481.62,268.05,478.2,268.74,474.77,269.37Z"/></svg>