 <svg id="csharp" data-name="csharp" xmlns="http://www.w3.org/2000/svg" viewBox="0 0 1366 768">
                <defs>
                    <style>
                        .csharp-1 {
                            fill: #ddd;
                        }

                        .csharp-2 {
                            fill: #fdfdfd;
                        }

                        .csharp-3 {
                            fill: #848484;
                        }
                    </style>
                </defs>
                <title>C#-Vector</title>
                <path class="csharp-1" d="M532.24,459.53c0-21.5.13-43,0-64.49-.14-16.07,6.45-28.68,19.88-36.94,19.29-11.85,39.11-22.85,58.72-34.18,17.3-10,34.75-19.76,51.9-30,18.55-11.1,36.59-10.89,55.22,0,36.64,21.49,73.54,42.52,110.34,63.73,13.15,7.58,19.69,19.17,19.93,34.11q.75,46.71,1,93.43c0,15.64-.37,31.29-1,46.93-.52,13.29-6.83,23.84-18.12,30.5-37,21.84-74.39,43-111.4,64.87-19.93,11.76-38.92,10.58-58.49-1Q607,595.19,553.26,564.83c-15.27-8.63-20.51-22.26-20.87-38.31-.51-22.32-.13-44.66-.13-67Zm313,2.69h0c0-22.33.08-44.66,0-67-.07-15.5-6.14-27.38-20.13-35.36-36.9-21-73.51-42.58-110.27-63.86-16.77-9.71-33.39-9.82-50,.67-8.73,5.5-17.83,10.43-26.78,15.58q-41.37,23.79-82.74,47.58c-13,7.55-19.89,19.1-19.95,34.12-.18,43.83-.35,87.66.09,131.49.16,15.52,5.68,28.62,20.45,36.94q54.64,30.76,108.72,62.54c16.41,9.6,32.75,10.77,49.27,1.3,37.57-21.54,75-43.38,112.48-65,12.95-7.48,18.82-18.88,18.89-33.48C845.33,505.89,845.25,484.06,845.25,462.22Z"
                />
                <path class="csharp-2" d="M845.25,462.22c0,21.84.08,43.67,0,65.5-.07,14.6-5.94,26-18.89,33.48-37.51,21.65-74.91,43.49-112.48,65-16.52,9.47-32.86,8.3-49.27-1.3q-54.14-31.66-108.72-62.54c-14.77-8.32-20.29-21.42-20.45-36.94-.44-43.83-.27-87.66-.09-131.49.06-15,6.9-26.57,19.95-34.12q41.31-23.89,82.74-47.58c9-5.15,18-10.08,26.78-15.58,16.63-10.49,33.25-10.38,50-.67,36.76,21.28,73.37,42.82,110.27,63.86,14,8,20.06,19.86,20.13,35.36.1,22.33,0,44.66,0,67Zm-298-2.74h-.84c0,22.49-.26,45,.11,67.48.18,10.36,4.58,18.92,14,24.32,38,21.79,76,43.44,113.8,65.53,11.19,6.54,21.21,6.17,32.29-.31q55.17-32.26,110.89-63.59c11.46-6.4,16.54-15.84,16.61-28,.25-44.31.06-88.63-.14-132.94a20.3,20.3,0,0,0-2.38-9.5c-3.91-6.92-10.06-11.55-17.05-15.35-12.28-6.67-24.34-13.74-36.48-20.69q-36.62-21-73.19-42c-8.7-5-17.64-6.52-26.56-1.42q-59.85,34.15-119.46,68.73c-7.66,4.43-11.52,11.48-11.57,20.3C547.16,414.51,547.24,437,547.24,459.48Z"
                />
                <path class="csharp-3" d="M547.24,459.48c0-22.48-.08-45,0-67.45.05-8.82,3.91-15.87,11.57-20.3Q618.49,337.22,678.31,303c8.92-5.1,17.86-3.61,26.56,1.42q36.52,21.13,73.19,42c12.14,6.95,24.2,14,36.48,20.69,7,3.8,13.14,8.43,17.05,15.35A20.3,20.3,0,0,1,834,392c.2,44.6.39,89.25.14,132.94-.07,12.16-5.15,21.6-16.61,28q-55.79,31.2-110.89,63.59c-11.08,6.48-21.1,6.85-32.29.31-37.79-22.09-75.84-43.74-113.8-65.53-9.43-5.4-13.83-14-14-24.32-.37-22.49.73-45,.73-67.48Zm225.56,50c-.38-.5-.67-1.21-1.2-1.52-12.26-7.3-24.5-14.65-36.92-21.65-1.1-.62-4.24.48-5.16,1.72-12.26,16.69-32.87,24.18-52,18.76-20.58-5.8-33.2-23.25-35-43.37-1.79-20.41,10.93-39.7,30.18-47.16,20.34-7.88,41.94-1.88,55.55,15.44,1.21,1.54,2.4,3.1,3.93,5.1l40.94-23.76c-20.59-37.32-66.18-56.64-108.55-44.62-43.53,12.35-71.07,46.51-70.83,92.73.22,42.66,28.22,81.51,73.68,92.48C709.52,563.82,750.67,546,772.8,509.49Zm-20.06-75.87c-3.07,4.65,1.51,13.94-9,12.65v6.57l5.66,1.69c-.23,3.15-.45,6.22-.61,8.46-2.74,2.46-7.38-.86-7.65,4.85-.22,4.81,3.09,4.11,6.18,4.58V485c12.83,2.3,5.93-8.54,9.1-12.6h8.19c-.37,4.39-.7,8.43-1,12.58h8q1-6.54,1.89-12.55l6.46-.62v-7.29l-5.25-.59V453.83c8.58-1.13,8.58-1.13,7.31-7.3L776.26,445V434.28c-2.31,0-5.89-.7-6.28.12-1.56,3.28-2.14,7-3,10.47h-7.75V433.62Z"
                />
                <path class="csharp-2" d="M772.8,509.49c-22.13,36.51-63.28,54.33-105.41,44.15-45.46-11-73.46-49.82-73.68-92.48-.24-46.22,27.3-80.38,70.83-92.73,42.37-12,88,7.3,108.55,44.62l-40.94,23.76c-1.53-2-2.72-3.56-3.93-5.1-13.61-17.32-35.21-23.32-55.55-15.44-19.25,7.46-32,26.75-30.18,47.16,1.78,20.12,14.4,37.57,35,43.37,19.18,5.42,39.79-2.07,52-18.76.92-1.24,4.06-2.34,5.16-1.72,12.42,7,24.66,14.35,36.92,21.65C772.13,508.28,772.42,509,772.8,509.49Z"
                />
                <path class="csharp-2" d="M752.74,433.62h6.45v11.25h7.75c.9-3.45,1.48-7.19,3-10.47.39-.82,4-.12,6.28-.12V445c2,.53,3.77-.08,5.63.41.63,8.07,1.39,7.27-7.19,8.4v10.05l5.25.59v7.29l-6.46.62q-.9,6-1.89,12.55h-8c.35-4.15.68-8.19,1-12.58h-8.19c-3.17,4.06,3.73,14.9-9.1,12.6V472.42c-3.09-.47-6.4.23-6.18-4.58-.57-8.25,4.62-3.26,7.65-4.85.13-1.84.17-4.93.3-7.72a2,2,0,0,0-1.89-2.1,13.75,13.75,0,0,1-3.46-.33v-6.57C754.25,447.56,749.67,438.27,752.74,433.62ZM757,463.78h9.09c.26-3.45.49-6.52.71-9.55C757.46,452.68,757.46,452.68,757,463.78Z"
                />
                <path class="csharp-3" d="M757,463.78c-.75-11.66,0-10.28,9.8-9.55-.22,3-.45,6.1-.71,9.55Z" />
            </svg>