<svg id="es6" data-name="es6" xmlns="http://www.w3.org/2000/svg" viewBox="0 0 1366 768">
                <defs>
                    <style>
                        .es6-1 {
                            fill: #ddd;
                        }

                        .es6-2 {
                            fill: #fefefe;
                        }

                        .es6-3 {
                            fill: #b0b0b0;
                        }

                        .es6-4 {
                            fill: #333;
                        }

                        .es6-5 {
                            fill: #343434;
                        }
                    </style>
                </defs>
                <title>ES6-Gray-Responsive</title>
                <path class="es6-1" d="M856.55,554.63c-2.54,3.89-6.71,5.65-11.51,5.39H525c-9.38-.17-13.68-3.81-15.07-13.1a69.94,69.94,0,0,1-.84-10.42q-.07-151.61,0-303.22a71.57,71.57,0,0,1,.87-10.42c1.29-8.69,4.16-11.23,13.08-12l2-.88,320,0a31.79,31.79,0,0,0,3.25,1c7.15,1.38,9.22,3.43,10.82,10.71.24,1.11.63,2.19.94,3.28m-337-12c-7.32.42-9.68,5.07-9.86,11.58A14.87,14.87,0,0,1,513,226V544c1.8,11.39,2.61,12.45,10,13.06a67.46,67.46,0,0,0,7.84.9q89.46.07,178.91,0,65,0,129.93-.08c2.44,0,4.87-1.22,7.3-1.86,5.11-.93,7.76-4.3,9-9.06.67-2.43,1.91-4.85,1.92-7.28q.15-102.48.08-205c0-35,0-70-.09-105,0-2.26-1.24-4.52-1.91-6.78.11-6.13-4.88-7.65-9-10a41.8,41.8,0,0,0-6.31-1Q685,212,529.34,212A44.59,44.59,0,0,0,523,212.94Z"
                />
                <path class="es6-1" d="M525,560H845a43.09,43.09,0,0,1-6.34.93Q685,561,531.3,561A43.09,43.09,0,0,1,525,560Z"
                />
                <path class="es6-2" d="M847,213c4.12,2.31,9.11,3.83,9,10,.35,6.12,1,12.23,1,18.34q.1,133.71,0,267.43c0,12.74-.64,25.48-1,38.23-1.26,4.76-3.91,8.13-9,9.06a74.48,74.48,0,0,1-8.39.93q-156.29.07-312.58,0c-4.76-2.89-9.9-5.39-11-11.76-.09-.52-1.32-.85-2-1.26V226c.7-.41,1.93-.74,2-1.26,1.11-6.37,6.25-8.87,11-11.76q81.24,0,162.5,0Q767.76,213,847,213ZM847,385V231c0-8,0-8-7.83-8H530.78c-7.76,0-7.78,0-7.78,7.58V539.47c0,7.51,0,7.53,7.33,7.53H839.72c7.26,0,7.28,0,7.28-7.58Z"
                />
                <path class="es6-1" d="M856,547c.35-12.75,1-25.49,1-38.23q.13-133.71,0-267.43c0-6.11-.64-12.22-1-18.34.67,2.26,1.91,4.52,1.91,6.78.13,35,.09,70,.09,105q0,102.48-.08,205C857.91,542.15,856.67,544.57,856,547Z"
                />
                <path class="es6-1" d="M526,557q156.29,0,312.58,0a74.48,74.48,0,0,0,8.39-.93c-2.43.64-4.86,1.85-7.3,1.86q-65,.17-129.93.08-89.46,0-178.91,0a65.38,65.38,0,0,1-7.84-.91Z"
                />
                <path class="es6-1" d="M847,213q-79.25,0-158.49-.07-81.25,0-162.5,0l-3,0a44.59,44.59,0,0,1,6.34-.9Q685,212,840.69,212A41.8,41.8,0,0,1,847,213Z"
                />
                <path class="es6-2" d="M526,557l-3,0c-7.41-.6-8.22-1.66-10-13,.7.41,1.93.74,2,1.26C516.11,551.63,521.25,554.13,526,557Z"
                />
                <path class="es6-2" d="M523,212.94l3,0c-4.76,2.89-9.9,5.39-11,11.76-.09.52-1.32.85-2,1.26a14.87,14.87,0,0,0,.16-1.48C513.32,218,515.68,213.36,523,212.94Z"
                />
                <path class="es6-3" d="M847,385V539.42c0,7.56,0,7.58-7.28,7.58H530.33c-7.31,0-7.33,0-7.33-7.53V230.58c0-7.57,0-7.58,7.78-7.58H839.17c7.82,0,7.83,0,7.83,8ZM581.66,468.26q0,22.49,0,45c0,6.72,0,6.75,6.56,6.76h50c13.14,0,12.93,0,13.24-13.2.1-4.57-1.45-5.65-5.71-5.57-12.66.22-25.33,0-38,.12-3.58,0-5.21-1.15-5-4.9.2-4.65.17-9.33,0-14-.12-3.42,1.21-4.77,4.67-4.71,8.17.14,16.33.12,24.5,0,13.87-.18,11.64,2.07,12-12.34.12-4.3-1.19-5.93-5.65-5.81-9.83.27-19.67-.08-29.5.15-4.36.1-6.53-1-6.11-5.84a85.36,85.36,0,0,0,0-12.49c-.24-4.06,1.18-5.64,5.39-5.53,9.33.24,18.66.07,28,.07,13.51,0,13.38,0,13.24-13.62,0-4-1.51-5.16-5.3-5.13q-28.5.18-57,0c-4.15,0-5.49,1.44-5.44,5.53C581.77,437.92,581.66,453.09,581.66,468.26ZM805.08,419.2l-.74-1.51c-6.39,0-12.79.14-19.18-.06a8,8,0,0,0-7.47,3.84c-7.47,10.62-15.48,20.87-22.62,31.7-4.44,6.75-8.74,13.94-11.21,21.55-4.58,14.08-1.83,27.12,9.8,37.21,14,12.16,37.64,12.85,52.55,1.81,11.4-8.43,16.11-23.35,12-38.05-3.59-12.88-13.8-21-28.24-22.22-3.55-.3-7.15-.05-10.28-.05Zm-145.3,80.68c1.58,2.48,2.5,4.27,3.73,5.81,11.65,14.57,27.33,17.52,44.56,14.65,13.74-2.29,22.33-10.58,24.6-22.32,2.62-13.52-2.23-25-14.33-32.41C713,462.32,707,460,701.4,457.11a85.59,85.59,0,0,1-10.89-6c-3.46-2.45-4.32-6.28-3-10.3s4.35-5.69,8.38-6c5.23-.4,9.33,1.51,12.7,5.56.87,1.05,3.34,2.07,4.23,1.58,4.74-2.63,9.21-5.74,13.66-8.62C721,421,707.6,414.5,692.75,416.42c-13.91,1.79-23.19,9.44-25.91,21.36-3,12.91,1.9,24.83,13.46,32.31a107.16,107.16,0,0,0,11.5,6c4.64,2.25,9.43,4.2,14,6.59,4.34,2.26,6.91,5.89,6.06,11s-4.71,7.48-9.4,8.42c-9.37,1.88-17-1.12-23-8.52-1-1.24-3.54-2.75-4.47-2.3C669.91,493.73,665.15,496.75,659.78,499.88Z"
                />
                <path class="es6-4" d="M581.66,468.26c0-15.17.11-30.34-.07-45.5-.05-4.09,1.29-5.57,5.44-5.53q28.5.22,57,0c3.79,0,5.26,1.12,5.3,5.13.14,13.62.27,13.62-13.24,13.62-9.34,0-18.67.17-28-.07-4.21-.11-5.63,1.47-5.39,5.53a85.36,85.36,0,0,1,0,12.49c-.42,4.83,1.75,5.94,6.11,5.84,9.83-.23,19.67.12,29.5-.15,4.46-.12,5.77,1.51,5.65,5.81-.4,14.41,1.83,12.16-12,12.34-8.17.1-16.33.12-24.5,0-3.46-.06-4.79,1.29-4.67,4.71.16,4.66.19,9.34,0,14-.16,3.75,1.47,4.93,5,4.9,12.66-.12,25.33.1,38-.12,4.26-.08,5.81,1,5.71,5.57-.31,13.2-.1,13.2-13.24,13.2h-50c-6.53,0-6.56,0-6.56-6.76Q581.64,490.75,581.66,468.26Z"
                />
                <path class="es6-5" d="M805.08,419.2,779.7,453.42c3.13,0,6.73-.25,10.28.05,14.44,1.22,24.65,9.34,28.24,22.22,4.1,14.7-.61,29.62-12,38.05-14.91,11-38.53,10.35-52.55-1.81-11.63-10.09-14.38-23.13-9.8-37.21,2.47-7.61,6.77-14.8,11.21-21.55,7.14-10.83,15.15-21.08,22.62-31.7a8,8,0,0,1,7.47-3.84c6.39.2,12.79.06,19.18.06Zm-24.37,82.11c9.2,0,15.45-6.05,15.53-15.1s-6-15.36-15.15-15.47c-9.31-.12-16,6.3-15.93,15.34C765.2,495,771.67,501.28,780.71,501.31Z"
                />
                <path class="es6-5" d="M659.78,499.88c5.37-3.13,10.13-6.15,15.17-8.6.93-.45,3.45,1.06,4.47,2.3,6.06,7.4,13.67,10.4,23,8.52,4.69-.94,8.53-3.27,9.4-8.42s-1.72-8.74-6.06-11c-4.57-2.39-9.36-4.34-14-6.59a107.16,107.16,0,0,1-11.5-6c-11.56-7.48-16.41-19.4-13.46-32.31,2.72-11.92,12-19.57,25.91-21.36C707.6,414.5,721,421,726.52,433.35c-4.45,2.88-8.92,6-13.66,8.62-.89.49-3.36-.53-4.23-1.58-3.37-4.05-7.47-6-12.7-5.56-4,.31-7.06,2.09-8.38,6s-.5,7.85,3,10.3a85.59,85.59,0,0,0,10.89,6c5.63,2.87,11.58,5.21,16.94,8.5,12.1,7.42,16.95,18.89,14.33,32.41-2.27,11.74-10.86,20-24.6,22.32-17.23,2.87-32.91-.08-44.56-14.65C662.28,504.15,661.36,502.36,659.78,499.88Z"
                />
                <path class="es6-3" d="M780.71,501.31c-9,0-15.51-6.36-15.55-15.23,0-9,6.62-15.46,15.93-15.34,9.12.11,15.23,6.35,15.15,15.47S789.91,501.34,780.71,501.31Z"
                />
            </svg>