<svg id="html" data-name="Layer 1" xmlns="http://www.w3.org/2000/svg" viewBox="0 0 1366 768"><defs><style>.cls-1{fill:#fefefe;}.cls-2{fill:#5f5f5f;}.cls-3{fill:#fafafc;}.cls-4{fill:#6f6f6f;}.cls-5{fill:#e9e9e9;}.cls-6{fill:#7e7e7e;}.cls-7{fill:#7a7a7a;}.cls-8{fill:#7b7b7b;}.cls-9{fill:#797979;}.cls-10{fill:#fdfdfd;}.cls-11{fill:#737373;}</style></defs><title>HTML-Vector</title><path class="cls-1" d="M439.32,223.94H424l-8.65,15.45-9-15.53H391.52v45h14V247.77c3.56,5.69,6.46,10.33,9.64,15.4,3.3-5.24,6.25-9.94,9.2-14.64l.9.23v20.11h14ZM312.25,268.82v-14H325v14h14.24v-45H324.82v14.4H312V223.81H297.8v45ZM385.14,224h-39.4v15.27H358v29.61h14.67V238.76h12.52Zm75.58,0H446.5v44.77h34.06V253.56H460.72Z"/><path class="cls-2" d="M297.07,533.11q-10.2-121.3-20.45-243.1H501.49c-6.81,81.14-13.62,162.09-20.46,243.5-7.9,2.38-15.49,4.68-23.09,6.94-21.67,6.44-43.33,12.9-65,19.22a12.72,12.72,0,0,1-6.74.35c-29-8.47-58-17.12-87-25.74A16.68,16.68,0,0,1,297.07,533.11Zm90.09-56.33-29-7.89q-1.37-12.11-2.66-23.74H327.14c1.39,16,2.72,31.45,4.07,46.92l56.14,16.68a30.55,30.55,0,0,1,1,5.19c.11,7.87.07,15.75.07,23.62,1,2.24,2.5,2,4.52,1.39,6.16-1.92,12.4-3.55,18.59-5.37,15.72-4.62,31.41-9.32,47.14-13.89,3.43-1,5.44-2.87,5.73-6.55.95-12,2-24,3-36.05,1-12.34,2-24.69,3-37,1.29-15.3,2.68-30.59,4-45.89,1-12.34,2-24.7,3-37,1.26-14.63,2.66-29.25,3.82-43.9.09-1.14-1.2-2.4-1.85-3.6l-88.91,0-1.06,2a25.53,25.53,0,0,0-.95,4.66c-.11,6.15.09,12.32-.14,18.47-.06,1.58-1.24,3.12-1.91,4.69H318.77c-.83,11.12,6.71,88.21,9.05,91.25h60.52c0,13.69.06,27.39,0,41.08C388.3,473.43,387.56,475.1,387.16,476.78Z"/><path class="cls-3" d="M439.32,223.94v44.93h-14V248.76l-.9-.23c-2.95,4.7-5.9,9.4-9.2,14.64-3.18-5.07-6.08-9.71-9.64-15.4v21.07h-14v-45h14.77l9,15.53L424,223.94Z"/><path class="cls-3" d="M312.25,268.82H297.8v-45H312v14.41h12.82v-14.4h14.45v45H325v-14H312.25Z"/><path class="cls-3" d="M385.14,224v14.8H372.62v30.08H358V239.23H345.74V224Z"/><path class="cls-3" d="M460.72,223.94v29.62h19.84v15.15H446.5V223.94Z"/><path class="cls-4" d="M479.33,309.62c.65,1.2,1.94,2.46,1.85,3.6-1.16,14.65-2.56,29.27-3.82,43.9-1.06,12.34-2,24.7-3,37-1.3,15.3-2.69,30.59-4,45.89-1.05,12.35-2,24.7-3,37-1,12-2,24-3,36.05-.29,3.68-2.3,5.55-5.73,6.55-15.73,4.57-31.42,9.27-47.14,13.89-6.19,1.82-12.43,3.45-18.59,5.37-2,.63-3.55.85-4.52-1.39a25.47,25.47,0,0,0,.93-4.66c.11-6.29,0-12.6.09-18.89a31.15,31.15,0,0,1,1-5.26l30.89-9.16L446.85,492c2.6-30.78,5.16-61.24,7.77-92.16h-6.4c-16.81,0-33.63-.05-50.44,0-3.14,0-6.27.53-9.4.81-10.27-.1-20.53-.15-30.8-.31a39.16,39.16,0,0,1-5.22-.78c10.29,0,20.58,0,30.87-.07a29.11,29.11,0,0,0,5.15-.95,15.54,15.54,0,0,0,.94-3.63q.14-10.36,0-20.74a15,15,0,0,0-1-3.61H350.3v8.12c-.35-2.85-.7-5.69-1.15-9.27h108c.83-10.29,1.61-19.92,2.4-29.7H394.35l-5-.3q0-13.93,0-27.85l1.06-2a20,20,0,0,0,4.16.92q40.31.07,80.6,0A20,20,0,0,0,479.33,309.62Z"/><path class="cls-5" d="M389.36,369.45H349.15c.45,3.58.8,6.42,1.15,9.27q1,10.44,2.06,20.88a39.16,39.16,0,0,0,5.22.78c10.27.16,20.53.21,30.8.31,0,7.63-.08,15.26.05,22.88a34.7,34.7,0,0,0,1.17,6c10.1,0,19.38-.06,28.66.05a25.23,25.23,0,0,1,5.05,1.1l-33.95-.15-1,.12H327.82c-2.34-3-9.88-80.13-9.05-91.25h67.59l3,0,5,.3-6,1.58c0,7.13-.07,14.24.05,21.35A54.27,54.27,0,0,0,389.36,369.45Z"/><path class="cls-5" d="M387.35,508.75l-56.14-16.68c-1.35-15.47-2.68-30.93-4.07-46.92h28.39q1.31,11.63,2.66,23.74l29,7.89,2.24,1q0,15.36,0,30.72Z"/><path class="cls-6" d="M479.33,309.62a20,20,0,0,1-4.15.94q-40.31.07-80.6,0a20,20,0,0,1-4.16-.92Z"/><path class="cls-7" d="M389.4,477.79l-2.24-1c.4-1.68,1.14-3.35,1.15-5,.09-13.69,0-27.39,0-41.08l1-.12c0,13.78,0,27.56,0,41.33,0,1.77-1,4.23,2.07,4.77Z"/><path class="cls-8" d="M387.35,508.75l2-.24,1,.24a31.15,31.15,0,0,0-1,5.26c-.12,6.29,0,12.6-.09,18.89a25.47,25.47,0,0,1-.93,4.66c0-7.87,0-15.75-.07-23.62A30.55,30.55,0,0,0,387.35,508.75Z"/><path class="cls-9" d="M389.38,339.45l-3,0c.67-1.57,1.85-3.11,1.91-4.69.23-6.15,0-12.32.14-18.47a25.53,25.53,0,0,1,.95-4.66Q389.38,325.52,389.38,339.45Z"/><path class="cls-10" d="M390.38,508.75l-1-.24q0-15.36,0-30.72l2.07-1.14,28.74-7.93c1.09-13.33,2.09-25.67,3.1-38a25.23,25.23,0,0,0-5.05-1.1c-9.28-.11-18.56-.05-28.66-.05a34.7,34.7,0,0,1-1.17-6c-.13-7.62-.05-15.25-.05-22.88,3.13-.28,6.26-.79,9.4-.81,16.81-.08,33.63,0,50.44,0h6.4c-2.61,30.92-5.17,61.38-7.77,92.16l-25.58,7.58Z"/><path class="cls-10" d="M389.36,369.45a54.27,54.27,0,0,1-.94-6.77c-.12-7.11-.05-14.22-.05-21.35l6-1.58h65.19c-.79,9.78-1.57,19.41-2.4,29.7Z"/><path class="cls-2" d="M352.36,399.6q-1-10.44-2.06-20.88V370.6h38.05l0,28a29.11,29.11,0,0,1-5.15.95C372.94,399.63,362.65,399.59,352.36,399.6Z"/><path class="cls-11" d="M388.38,398.58l0-28a15,15,0,0,1,1,3.61q.14,10.38,0,20.74A15.54,15.54,0,0,1,388.38,398.58Z"/><path class="cls-4" d="M423.31,430.7c-1,12.35-2,24.69-3.1,38l-28.74,7.93c-3.08-.54-2.06-3-2.07-4.77-.07-13.77,0-27.55,0-41.33Z"/></svg>