<svg id="mongo' data-name="Layer 1" xmlns="http://www.w3.org/2000/svg" viewBox="0 0 1366 768"><defs><style>.cls-1{fill:#9a9a9a;}.cls-2{fill:#6a6a6a;}.cls-3{fill:#696969;}.cls-4{fill:#6b6b6b;}.cls-5{fill:#6c6c6c;}.cls-6{fill:#6d6d6d;}.cls-7{fill:#737373;}.cls-8{fill:#898989;}.cls-9{fill:#2e2e2e;}.cls-10{fill:#717171;}.cls-11{fill:#848484;}.cls-12{fill:#7a7a7a;}.cls-13{fill:#8d8d8d;}.cls-14{fill:#989898;}.cls-15{fill:#909090;}.cls-16{fill:#a5a5a5;}.cls-17{fill:#bcbcbc;}</style></defs><title>MongoDB-Vector</title><path class="cls-1" d="M352.62,357c19.51.08,38.92,1.29,57.88,6.28,11.17,2.94,21.84,7.09,31.52,13.57a19.11,19.11,0,0,1,7.39,9.17,102.32,102.32,0,0,1,6.23,26.67c.54,5.12,1.43,10.24,1.55,15.37a138.67,138.67,0,0,1-.73,17.41c-1.24,12.09-2.89,24.12-6.13,35.88-4.94,18-13.78,33.86-25.12,48.48A187,187,0,0,1,378,572.49c-6.84,4.39-14.36,7.74-21.57,11.55a8.12,8.12,0,0,1-7.66,0,189,189,0,0,1-45.07-29.3,178.13,178.13,0,0,1-35.48-42.3,126.22,126.22,0,0,1-16.61-46.25c-1.58-10-2.82-20.09-3.66-30.19-.41-4.92.29-10,.73-14.92,1-11,2.43-21.81,6.05-32.3a23.67,23.67,0,0,1,10.13-13.08c11.93-7.44,25-11.76,38.62-14.51C319.65,357.93,336.1,356.88,352.62,357Zm88,74.66c-.66-11.67-1.26-24-5-35.84-.95-3-2.33-5.65-5.25-6.93-7-3.08-13.88-6.53-21.13-8.79-15-4.68-30.66-6.19-46.29-6.82A236.29,236.29,0,0,0,303.9,378a103.9,103.9,0,0,0-28,10.19,13.13,13.13,0,0,0-6.5,8.37A114.77,114.77,0,0,0,264.83,429a230.29,230.29,0,0,0,1.67,26.35c3.44,32.84,18.91,59.59,42.4,82.07A183.23,183.23,0,0,0,346.8,565c4.13,2.3,7.18,2.54,11.37.13a194.67,194.67,0,0,0,37.1-26.9A151.14,151.14,0,0,0,424.1,502C436.25,480.38,439.86,456.67,440.66,431.65Z"/><path class="cls-2" d="M284.71,602.13c0,2.32.07,4.64.07,7,0,1.46-.42,2.89-2.18,2.5a3.08,3.08,0,0,1-1.79-2.32c-.16-5.27-.08-10.54-.08-15.66,5.8-1.34,6-1.27,7.53,3.16a31.38,31.38,0,0,0,3.39,7.44l2.58-7.38c1.48-4.26,1.48-4.26,7.14-3.52a139.5,139.5,0,0,1,.08,16.62,2.57,2.57,0,0,1-1.92,1.63,2.49,2.49,0,0,1-1.76-1.73c-.2-2.8-.09-5.62-.93-8.7-1,2.58-1.89,5.21-3,7.72a14,14,0,0,1-2.37,2.85c-1-1-2.29-1.78-2.81-3a52.53,52.53,0,0,1-2.09-6.62l-1.34-2.85c-.87.71-1,1.14-1,1.54A6.19,6.19,0,0,0,284.71,602.13Z"/><path class="cls-3" d="M408.81,611.8V592.88c3.74,0,7.19-.28,10.58.07s4.91,2.95,3.68,6.58c-.44,1.31-.81,2.06.07,3.49,2.69,4.39.77,8.15-4.42,8.72A95.12,95.12,0,0,1,408.81,611.8Zm3.32-15.95c.84,2.16,1.05,4.11,1.82,4.36a7,7,0,0,0,4.62-.37c1.46-.66,1-3-.61-3.46C416.59,596,415.07,596.09,412.13,595.85ZM417.8,604c-1.6,0-2.39-.23-2.87,0a14.12,14.12,0,0,0-2.19,2,13.44,13.44,0,0,0,2.11,2.09c.46.3,1.26.12,1.91.1,1.5-.05,3.36-.15,3.17-2.06C419.84,605.18,418.21,604.36,417.8,604Z"/><path class="cls-4" d="M386,592.79c3.71,0,6.35-.13,9,0,4.56.28,7.23,2.95,7.78,7.49.67,5.63-1.15,9.76-5.54,10.81-3.4.82-7.06.6-11,.88A115.5,115.5,0,0,1,386,592.79Zm4.19,15.06c3.27.4,5.91.95,7.66-1.87,1.25-2,1.06-6.28-.4-8-2-2.34-4.43-2.33-7.26-1.37Z"/><path class="cls-5" d="M359.55,598.61c0,4.36.13,8.66,0,12.94a5.14,5.14,0,0,1-4.37,5.29c-3.92.91-6.39,0-8.83-4.17,2.07.67,3.34,1,4.5,1.5,3.08,1.39,3.75,1,4.72-2.88-.26-.14-.58-.46-.78-.4-4.28,1.29-6.48.71-8.12-2.19s-1.31-7.81,1.11-9.73a8.61,8.61,0,0,1,4.93-1.66C354.68,597.27,356.71,598,359.55,598.61Zm-7.5,9.61c3-.52,3.75-2,3.66-4-.09-2.19-1.54-3.65-3.38-3.29a3,3,0,0,0-2.5,4.06C350.15,606.25,351.41,607.33,352.05,608.22Z"/><path class="cls-6" d="M321.85,604.86c.09,4.71-2.62,7.9-6.86,8.07s-7.3-3-7.45-7.55c-.17-4.8,2.88-8.32,7.18-8.31S321.76,600.09,321.85,604.86Zm-10.28.36c.08,2.55,1.44,4.3,3.26,4.2s3-1.87,3-4.45-1.19-4.18-3.21-4.09S311.49,602.63,311.57,605.22Z"/><path class="cls-6" d="M379.76,605.19c0,4.74-3,7.89-7.25,7.72s-7.1-3.45-7-8.07,3.1-7.8,7.34-7.76C376.9,597.12,379.81,600.52,379.76,605.19Zm-4,0c.09-2.58-1.12-4.35-3.07-4.31-2.33.05-3.05,1.62-3.18,3.66-.16,2.64.88,4.36,2.79,4.57S375.68,607.79,375.76,605.21Z"/><path class="cls-7" d="M327.63,598.72c3-.63,5.16-1.15,7.35-1.55,2.83-.52,5.13.85,5.47,3.71a51.66,51.66,0,0,1,.07,9,1.83,1.83,0,0,1-3.66,0c-.28-2,.07-4-.28-6a4,4,0,0,0-2-2.82c-1.79-.53-2.71.92-2.85,2.58-.18,2,0,4-.27,6-.11.76-1.07,1.39-1.64,2.08-.72-.7-2-1.37-2.07-2.11C327.51,605.86,327.63,602.1,327.63,598.72Z"/><path class="cls-8" d="M284.71,602.13a6.19,6.19,0,0,1-.52-1.3c-.05-.4.12-.83,1-1.54l1.34,2.85Z"/><path class="cls-9" d="M440.66,431.65c-.8,25-4.41,48.73-16.56,70.38a151.14,151.14,0,0,1-28.83,36.16,194.67,194.67,0,0,1-37.1,26.9c-4.19,2.41-7.24,2.17-11.37-.13a183.23,183.23,0,0,1-37.9-27.5c-23.49-22.48-39-49.23-42.4-82.07A230.29,230.29,0,0,1,264.83,429a114.77,114.77,0,0,1,4.52-32.52,13.13,13.13,0,0,1,6.5-8.37,103.9,103.9,0,0,1,28-10.19A236.29,236.29,0,0,1,363,373.27c15.63.63,31.26,2.14,46.29,6.82,7.25,2.26,14.14,5.71,21.13,8.79,2.92,1.28,4.3,3.91,5.25,6.93C439.4,407.69,440,420,440.66,431.65ZM348.59,531h0l1,1,2,8a2.23,2.23,0,0,0,.16.92l.81,10.13,2,1.08c2.06.88,2.2-.52,2.2-1.93,0-3.44-.31-6.91,0-10.32.25-2.69,1.23-5.32,1.89-8a21.92,21.92,0,0,1,2.38-2.52,70,70,0,0,0,17.61-20.07c4.11-7,8.26-14,9.05-22.4,2-8.94,3.32-17.78,2.26-27.12a101,101,0,0,0-20.46-50.72c-5-6.61-11.95-11.65-15.81-19.21l-1.12-2.07c-2.63,2.87-5.05,5.54-7.49,8.19s-4.92,5.33-7.38,8l-1,1.06L335.52,407l.06-.05-1,1.06h0l-.86,1-1.18,1.89-.92,1.17V412l-3,4.94-1,2v0c-3.93,6.14-7,12.64-8,19.93a5.6,5.6,0,0,0-.77,1.27,92.09,92.09,0,0,0-1.72,43.39c3,14.91,10.87,27.37,21.08,38.38,2.79,3,6.21,5.43,9.34,8.12l.06,0Z"/><path class="cls-10" d="M353.63,390c3.86,7.56,10.79,12.6,15.81,19.21a101,101,0,0,1,20.46,50.72c1.06,9.34-.26,18.18-2.26,27.12-2.15-.12-4.07-.4-3.43-3.4.58-2.75-1.16-3.61-3.4-3.54a51.88,51.88,0,0,0-6.31.82c-2.1.33-4.22,1.18-6.27,1-5.43-.44-10.07.76-13.63,5.09,0-19.42,0-38.85,0-58.27a36.82,36.82,0,0,0-.93-5.75Z"/><path class="cls-11" d="M353.63,423a36.82,36.82,0,0,1,.93,5.75c.07,19.42,0,38.85,0,58.27v9c-.33,1.67-.66,3.34-1,5l0,8v2q.5,6.5,1,13l-2.66-3.18a39.54,39.54,0,0,1-.4,5.87A27.28,27.28,0,0,1,349.7,531h-1.11l-1-1-.06,0,2.19-2.63c-2.21-6.9-4.22-13.41-6.39-19.86-3.07-9.14-6.13-18.3-9.45-27.35-4.78-13.08-7.4-26.92-14-39.36a6.15,6.15,0,0,1-.3-2c1.06-7.29,4.1-13.79,8-19.93,1.05,1.67,2.47,3.21,3.11,5q6.39,18.09,12.47,36.29c2.22,6.61,4.19,13.31,6.39,19.93.79,2.38,1.5,4.89,4.05,6.62V466q0-11.5,0-23Q353.61,433,353.63,423Z"/><path class="cls-12" d="M319.55,438.89a6.15,6.15,0,0,0,.3,2c6.58,12.44,9.2,26.28,14,39.36,3.32,9.05,6.38,18.21,9.45,27.35,2.17,6.45,4.18,13,6.39,19.86l-2.19,2.63c-3.13-2.69-6.55-5.11-9.34-8.12-10.21-11-18.09-23.47-21.08-38.38a92.09,92.09,0,0,1,1.72-43.39A5.6,5.6,0,0,1,319.55,438.89Z"/><path class="cls-2" d="M353.6,509l0-8c.32-1.67.65-3.34,1-5v-9c3.56-4.33,8.2-5.53,13.63-5.09,2,.16,4.17-.69,6.27-1a51.88,51.88,0,0,1,6.31-.82c2.24-.07,4,.79,3.4,3.54-.64,3,1.28,3.28,3.43,3.4-.79,8.36-4.94,15.41-9.05,22.4A70,70,0,0,1,361,529.47,21.92,21.92,0,0,0,358.6,532l-4-8q-.5-6.5-1-13Z"/><path class="cls-13" d="M353.6,466v20.85c-2.55-1.73-3.26-4.24-4.05-6.62-2.2-6.62-4.17-13.32-6.39-19.93Q337,442.1,330.69,424c-.64-1.82-2.06-3.36-3.11-5v0l1-2,3-4.94c.51.6.91,1.56,1.54,1.73,2,.57,2.88,2,3.47,3.82,4,12.26,7.83,24.58,12.14,36.72C350.18,458.25,350.11,462.89,353.6,466Z"/><path class="cls-14" d="M353.63,423q0,10,0,20c-.94-1.31-2.2-2.5-2.75-4-1.88-4.93-3.27-10.05-5.28-14.92-2.74-6.64-3.08-14.23-7.92-20,2.46-2.66,4.93-5.32,7.38-8s4.86-5.32,7.49-8.19l1.12,2.07Z"/><path class="cls-15" d="M337.64,404.06c4.84,5.8,5.18,13.39,7.92,20,2,4.87,3.4,10,5.28,14.92.55,1.46,1.81,2.65,2.75,4v23c-3.49-3.09-3.42-7.73-4.82-11.67-4.31-12.14-8.14-24.46-12.14-36.72-.59-1.82-1.43-3.25-3.47-3.82-.63-.17-1-1.13-1.54-1.73V412l.92-1.17,1.18-1.89.86-1h0l1-1.06-.06.05,1.12-1.85Z"/><path class="cls-16" d="M354.6,524l4,8c-.66,2.66-1.64,5.29-1.89,8-.32,3.41,0,6.88,0,10.32,0,1.41-.14,2.81-2.2,1.93a3.19,3.19,0,0,1,.19-.48c.29-1.56.59-3.12.88-4.68v-11c-3.16,1.89-3.16,1.89-4,4-.68-2.68-1.35-5.35-2-8l.18-1.05a27.28,27.28,0,0,0,1.84-4.34,39.54,39.54,0,0,0,.4-5.87Z"/><path class="cls-17" d="M351.55,540.09c.86-2.15.86-2.15,4-4v11c-.29,1.56-.59,3.12-.88,4.68a3.19,3.19,0,0,0-.19.48l-2-1.08L351.71,541A2.23,2.23,0,0,1,351.55,540.09Z"/><path class="cls-16" d="M351.71,541l.81,10.13Z"/><path class="cls-11" d="M328.6,417l-1,2Z"/><path class="cls-13" d="M336.64,405.12,335.52,407Z"/><path class="cls-13" d="M334.6,408l-.86,1Z"/><path class="cls-13" d="M335.58,406.92l-1,1.06Z"/><path class="cls-12" d="M349.7,531l-.18,1.05-1-1Z"/><path class="cls-12" d="M347.54,530l1,1Z"/><path class="cls-13" d="M332.56,410.82l-.92,1.17Z"/><path class="cls-10" d="M354.6,496c-.33,1.67-.66,3.34-1,5C353.94,499.32,354.27,497.65,354.6,496Z"/><path class="cls-10" d="M353.6,509v0Z"/></svg>