<svg id="Layer_1" data-name="Layer 1" xmlns="http://www.w3.org/2000/svg" viewBox="0 0 1366 768"><defs><style>.cls-1{fill:#b4b4b4;}.cls-2{fill:#4d4d4d;}.cls-3{fill:#b5b5b5;}.cls-4{fill:#4e4e4e;}</style></defs><title>MySQL-Vector</title><path class="cls-1" d="M484,357c-17.53-1-34.71-2.61-51.06-9.11a65.27,65.27,0,0,1-11.42-6.1,14.17,14.17,0,0,1-6.8-13.09c.19-5.33.21-10.67,0-16-.25-6.16,2.5-10.5,7.37-13.84,8.14-5.57,17.32-8.63,26.82-10.48,25.66-5,51.33-5.16,76.69,1.76a90.5,90.5,0,0,1,19.21,8.12c6.27,3.42,9.38,9.2,8.88,16.66a80.61,80.61,0,0,0,0,11c.56,7.89-3,13.39-9.42,17.46-8.16,5.21-17.27,8-26.65,9.53C506.5,354.69,495.23,355.65,484,357Z"/><path class="cls-2" d="M530.68,282.12c-1.95-14.18,0-18.94,12.3-25.44,10.3-5.43,21.58-7.77,33-9.2,21.83-2.74,43.58-2.23,64.89,3.66a98.32,98.32,0,0,1,18.82,7.8c6.35,3.31,9.78,8.71,9.1,16.37a100.34,100.34,0,0,0,0,14c.32,6-2.3,10.23-6.89,13.59-6.7,4.91-14.37,7.69-22.32,9.63-24.66,6-49.45,6.13-74.31,1.39a14.5,14.5,0,0,1-2.11-.77c-.55-14.46-10.45-21.4-22-26.84C537.68,284.68,534.06,283.46,530.68,282.12Z"/><path class="cls-2" d="M582,235.9c-11.38,2.49-21.83,4.49-32.1,7.15a67,67,0,0,0-13.79,5.72c-7.79,4-14,9.66-15.78,19.26-5.89,0-11.69.24-17.47,0-14.19-.69-28.21-2.67-41.43-8.15a65.79,65.79,0,0,1-12.83-7.54c-3.55-2.53-5.13-6.33-5-10.89.19-5.65.24-11.33,0-17-.23-5.36,1.8-9.66,6.11-12.37a76.19,76.19,0,0,1,15.45-7.92c19.83-6.86,40.38-8,61.15-6.61,11.65.8,23.22,2.42,34.2,6.58a87.28,87.28,0,0,1,15.06,7.63A13.21,13.21,0,0,1,582,224.43C581.78,228.38,582,232.36,582,235.9Z"/><path class="cls-1" d="M415.05,398c8.34,10.84,20.05,14.18,31.88,17a158.08,158.08,0,0,0,44.11,4c14.3-.72,28.52-2.43,42.1-7.46,7.56-2.8,14.78-6.16,19.92-14.18a40.94,40.94,0,0,1,.58,4.51c0,8-.17,16,.08,24,.24,7.53-3.3,12.7-9.37,16.45-10,6.17-21.09,8.93-32.48,10.78a170.57,170.57,0,0,1-34.82,2c-14.68-.65-29.16-2.59-43-7.75a75.32,75.32,0,0,1-7.7-3.53c-8.17-4.15-12.65-10.21-11.67-20,.69-6.92.12-14,.14-21C414.79,401.31,414.94,399.9,415.05,398Z"/><path class="cls-1" d="M414.78,347.6c6.56,8.59,15.73,12,25,14.75,20,6,40.57,6.81,61.31,5,11.5-1,22.77-3,33.59-7.12,7.07-2.68,13.69-6.12,18.46-13.49a30.43,30.43,0,0,1,.55,3.7c0,7.83-.24,15.67.08,23.48.38,9-3.87,14.79-11.39,18.87a85.23,85.23,0,0,1-27.42,8.94c-24.57,3.91-49,3.86-73.26-2.69-7.11-1.92-13.92-4.52-19.93-8.95-4.6-3.39-7.14-7.61-7-13.54C414.93,366.89,414.78,357.25,414.78,347.6Z"/><path class="cls-2" d="M563.12,361.43V325.88c3.9.59,7.45,1.2,11,1.65,23.87,3,47.53,2.49,70.76-4.47a79.4,79.4,0,0,0,10.67-4.22c5-2.35,9.52-5.46,12.92-11.28.13,2.07.28,3.28.28,4.48,0,8.5-.2,17,0,25.49.17,5.75-2,10.24-6.61,13.19a82.17,82.17,0,0,1-14.13,7.3c-9.83,3.87-20.21,5.61-30.69,6.5-17.16,1.45-34.28,1.22-51.23-2.3C565.21,362,564.28,361.73,563.12,361.43Z"/><path class="cls-2" d="M563.1,374.78c7.93,1,15.33,2.16,22.78,2.73,19.74,1.51,39.28.19,58.36-5.49a79.91,79.91,0,0,0,11.15-4.34c5-2.35,9.62-5.35,13-11.4.18,2.21.35,3.39.35,4.58,0,8.5-.19,17,.06,25.49.17,6-2.42,10.2-7,13.55-6.58,4.8-14.09,7.52-21.88,9.46-24.64,6.13-49.44,6.25-74.32,1.57a17.85,17.85,0,0,1-2.51-.91Z"/><path class="cls-3" d="M611.78,474.09V438.74l-1-.2-6.42,17.12c-1.93,5.15-3.94,10.27-5.75,15.45-1,3-3,4-6.06,4s-4.93-1.15-6-4.16c-3.1-9-6.38-17.88-9.6-26.81a8.74,8.74,0,0,0-2.05-3.54c-.1,1.38-.27,2.76-.27,4.14,0,8.5.05,17,0,25.49-.05,4.06-.85,4.74-4.65,4.81-4.1.07-5.09-.71-5.12-4.85q-.12-18.24,0-36.48c0-4.45,1.25-5.48,5.75-5.64,1.5-.06,3,0,4.5,0,4.07-.11,6.42,1.83,7.73,5.69,2.19,6.46,4.69,12.82,7.08,19.21.8,2.12,1.69,4.21,2.53,6.31l1.17,0c1-2.53,2.09-5.06,3.09-7.61,2.42-6.2,4.88-12.39,7.19-18.64,1.25-3.37,3.32-5,7.07-5.06,9.79-.15,9.8-.25,9.8,9.38q0,15.5,0,31C620.74,475.18,619.61,476,611.78,474.09Z"/><path class="cls-3" d="M738.44,470.54c2.31,1.51,4.15,2.86,6.13,4,4.6,2.55,4.88,3.16,3.23,9.31-7.12-.14-11.73-5.2-16.83-8.78-4.1.34-8.05,1-12,.92-10-.29-16.79-5.74-18.48-15.56a46,46,0,0,1-.18-15.82c2.76-14.79,15-19.45,27.91-17,9.7,1.84,13.9,7.1,15.64,16.95C745.5,453.62,744,462,738.44,470.54Zm-4.15-18.39c-.56-3.69-.69-6.55-1.45-9.24-1.55-5.44-5.14-7.9-10.73-7.85A10.89,10.89,0,0,0,711.24,443a28.45,28.45,0,0,0,0,17.69c1.39,4.63,4.74,7.08,9.59,7.36,5.22.3,9.21-1.64,10.95-6.09C733.08,458.6,733.59,455,734.29,452.15Z"/><path class="cls-3" d="M690.76,437.65a41.14,41.14,0,0,0-4.58-1.55c-2.09-.47-4.33-1.19-6.32-.82-1.68.31-3.94,1.76-4.39,3.19s.77,3.65,1.82,5.12c.79,1.12,2.44,1.66,3.77,2.34,1.62.83,3.35,1.47,5,2.31,6.68,3.44,9.27,7.89,8.68,14.79-.52,6.09-4.31,10.2-11.41,12.24a21.78,21.78,0,0,1-15.1-1c-4.52-2-5.34-4.71-2.77-10.06a28.59,28.59,0,0,0,4.82,2.05,40.32,40.32,0,0,0,9.18,1.48c2.41,0,4.27-1.73,5-4.26.74-2.74-.75-4.58-2.81-5.84-2.68-1.64-5.6-2.9-8.4-4.36-6.72-3.51-9.47-8.8-8.07-15.42,1.31-6.14,6.76-10.47,13.88-10.73a26.47,26.47,0,0,1,7.37.75C692.08,429.35,692.93,431.33,690.76,437.65Z"/><path class="cls-3" d="M660.83,441.27a56.5,56.5,0,0,1-1.36,6c-4,11.82-8.09,23.6-12.12,35.4-2.22,6.47-4,7.39-12,5.48a54.46,54.46,0,0,1,1.75-5.87c1.65-4,2.12-7.51.13-11.84-3.6-7.84-6.28-16.11-9.26-24.23a40.92,40.92,0,0,1-1.16-5.05c7.25-2.28,8.79-1.67,11.1,4.51,2,5.41,3.84,10.89,6.75,16.41,1.08-3,2.17-6.08,3.23-9.13.87-2.51,1.68-5.05,2.55-7.57C652.46,439.67,654.13,438.94,660.83,441.27Z"/><path class="cls-3" d="M763.15,467.05c4.38,0,8,.06,11.66,0,2.74-.06,4.56.82,4.67,3.85S778.3,475,774.63,475c-5.66.08-11.33.1-17,0-3.95-.08-4.73-.8-4.76-4.72q-.14-18.75,0-37.5c0-4,.83-4.67,4.71-4.73,4.17-.08,5.13.67,5.17,4.76.1,9.16,0,18.33,0,27.5C762.82,462.27,763,464.22,763.15,467.05Z"/><path class="cls-4" d="M470.48,276,444,279.56v-20C450.89,268.78,460.84,272,470.48,276Z"/></svg>