<svg id="node" data-name="Layer 1" xmlns="http://www.w3.org/2000/svg" viewBox="0 0 1366 768"><defs><style>.cls-1{fill:#666665;}.cls-2{fill:#46493c;}.cls-3{fill:#474a3c;}.cls-4{fill:#45483b;}.cls-5{fill:#fff;}</style></defs><title>Node-Vector</title><path class="cls-1" d="M669,535q-43.38-25.11-86.77-50.22c-11.38-6.59-22.71-13.28-34.18-19.7-5.22-2.92-7.45-6.91-7.43-12.95q.21-66.75,0-133.5c0-6.86,2.42-11.08,8.33-14.46q57.68-32.94,115.13-66.3a45.64,45.64,0,0,0,4-2.87h6l121.85,70.28c4.42,2.54,6.51,6.1,6.49,11.41q-.18,68.22,0,136.45c0,5.27-2,8.82-6.49,11.41q-58.62,33.75-117.22,67.59c-1.82,1.05-3.75,1.91-5.63,2.86ZM601.83,414a16.57,16.57,0,0,0,1.12-4.05q.15-12.4,0-24.82a18.84,18.84,0,0,0-1-4.14c-7.47-4.58-14.88-9.24-22.47-13.62-.91-.52-2.88.21-4.08.87-5.69,3.12-11.42,6.19-16.81,9.77a8.45,8.45,0,0,0-3.37,5.8c-.36,8.8-.19,17.63-.12,26.45a36.21,36.21,0,0,0,.78,4.95,30.39,30.39,0,0,1,2.93-1.51c9.6-3.49,13.89-9.7,12.23-20.39-1-6.48,5.49-9.71,11.37-6.64,3,1.58,3.67,3.71,3.67,6.84,0,14.06,0,14.09,12.17,20.2C599.25,414.2,600.64,413.91,601.83,414Zm15.35-7.89c7.35,4.48,14.65,9,22.12,13.32.93.53,2.89-.1,4.07-.74,5.82-3.2,11.67-6.39,17.21-10a8,8,0,0,0,3.12-5.42,165.72,165.72,0,0,0,0-19.43,8.13,8.13,0,0,0-3.07-5.43c-3.9-2.78-8.5-4.6-12.36-7.44-5.21-3.84-9.78-4.27-15.12-.11-3.75,2.94-8.33,4.8-12.4,7.37-1.45.91-2.46,2.49-3.67,3.77-.36,5.69-.87,11.37-1,17.07C616,401.38,616.78,403.75,617.18,406.1Zm93.28-36.88c-4.61,0-8.56-1-11.55.22-5.78,2.43-11.16,5.95-16.41,9.46a8.1,8.1,0,0,0-3.18,5.45,168.79,168.79,0,0,0,0,19.48,7.49,7.49,0,0,0,3,5.09c5.57,3.63,11.35,7,17.25,10a7.33,7.33,0,0,0,5.82.19A200.82,200.82,0,0,0,723,408.89a7.24,7.24,0,0,0,2.86-5.14c.2-18.49.15-37,.06-55.48,0-1.37-.39-3.4-1.32-4-4.24-2.71-8.74-5-14.15-8.06Zm62.08,28.52c4.32-2.52,8-4.63,11.62-6.78,5.28-3.13,5.45-9.59.27-12.7-5.71-3.42-11.41-6.88-17.31-9.95a6.68,6.68,0,0,0-5.38.12c-6,3.17-12,6.57-17.69,10.29a7.38,7.38,0,0,0-2.79,5.11c-.33,6.31,0,12.66-.2,19-.12,3.13,1.07,4.92,3.7,6.35,5.56,3,11,6.26,16.52,9.34,1.12.62,2.78,1.59,3.61,1.19,4.81-2.33,9.44-5,15.2-8.17-7.49-4.31-13.53-8.12-19.88-11.33-4.77-2.42-4.15-6.82-2.93-9.84,1-2.37,5.33-5.16,7.66-4.75,3,.52,7.89,1.78,7.13,7.28C771.9,394.1,772.29,395.39,772.54,397.74Zm-1.64-3.91c-2.86-2.28-4.68-4.77-6-4.54-1.8.32-3.22,2.74-4.81,4.26,1.45,1.51,2.76,4,4.39,4.23S767.86,395.82,770.9,393.83Z"/><path class="cls-2" d="M710.46,369.22v-33c5.41,3,9.91,5.35,14.15,8.06.93.6,1.32,2.63,1.32,4,.09,18.49.14,37-.06,55.48a7.24,7.24,0,0,1-2.86,5.14,200.82,200.82,0,0,1-17.69,10.26,7.33,7.33,0,0,1-5.82-.19c-5.9-3.06-11.68-6.41-17.25-10a7.49,7.49,0,0,1-3-5.09,168.79,168.79,0,0,1,0-19.48,8.1,8.1,0,0,1,3.18-5.45c5.25-3.51,10.63-7,16.41-9.46C701.9,368.19,705.85,369.22,710.46,369.22ZM695,393.93c0,3.76,4.38,8.67,7.69,8.61s7.48-4.58,7.5-8.3c0-4.36-3.58-8.65-7.42-8.82C699.27,385.27,695,390,695,393.93Z"/><path class="cls-3" d="M601.83,414c-1.19-.08-2.58.21-3.56-.29-12.13-6.11-12.19-6.14-12.17-20.2,0-3.13-.66-5.26-3.67-6.84-5.88-3.07-12.37.16-11.37,6.64,1.66,10.69-2.63,16.9-12.23,20.39a30.39,30.39,0,0,0-2.93,1.51,36.21,36.21,0,0,1-.78-4.95c-.07-8.82-.24-17.65.12-26.45a8.45,8.45,0,0,1,3.37-5.8c5.39-3.58,11.12-6.65,16.81-9.77,1.2-.66,3.17-1.39,4.08-.87,7.59,4.38,15,9,22.47,13.62Q601.9,397.48,601.83,414Z"/><path class="cls-2" d="M772.54,397.74c-.25-2.35-.64-3.64-.47-4.86.76-5.5-4.13-6.76-7.13-7.28-2.33-.41-6.7,2.38-7.66,4.75-1.22,3-1.84,7.42,2.93,9.84,6.35,3.21,12.39,7,19.88,11.33-5.76,3.15-10.39,5.84-15.2,8.17-.83.4-2.49-.57-3.61-1.19-5.53-3.08-11-6.33-16.52-9.34-2.63-1.43-3.82-3.22-3.7-6.35.24-6.32-.13-12.67.2-19a7.38,7.38,0,0,1,2.79-5.11c5.72-3.72,11.65-7.12,17.69-10.29a6.68,6.68,0,0,1,5.38-.12c5.9,3.07,11.6,6.53,17.31,9.95,5.18,3.11,5,9.57-.27,12.7C780.53,393.11,776.86,395.22,772.54,397.74Z"/><path class="cls-4" d="M770.9,393.83c-3,2-4.9,4.17-6.43,3.95s-2.94-2.72-4.39-4.23c1.59-1.52,3-3.94,4.81-4.26C766.22,389.06,768,391.55,770.9,393.83Z"/><path class="cls-3" d="M602,381a18.84,18.84,0,0,1,1,4.14q.15,12.4,0,24.82a16.57,16.57,0,0,1-1.12,4.05"/><path class="cls-5" d="M695,393.93c0-3.94,4.32-8.66,7.77-8.51,3.84.17,7.45,4.46,7.42,8.82,0,3.72-4.1,8.24-7.5,8.3S695,397.69,695,393.93Z"/><path class="cls-3" d="M647.86,392.67c0,3.77-3.87,8.12-7.41,8.33s-8.05-4.53-8.08-8.32c0-3.57,4.07-8.1,7.51-8.32S647.86,388.93,647.86,392.67Z"/></svg>