<?xml version="1.0" encoding="utf-8"?>
<!-- Generator: Adobe Illustrator 22.0.1, SVG Export Plug-In . SVG Version: 6.00 Build 0)  -->
<svg version="1.1" id="asp" xmlns="http://www.w3.org/2000/svg" xmlns:xlink="http://www.w3.org/1999/xlink" x="0px" y="0px"
	 viewBox="0 0 1366 768" style="enable-background:new 0 0 1366 768;" xml:space="preserve">
<style type="text/css">
	.st0{fill:#9F9F9F;}
	.st1{fill:#F6F6F6;}
	.st2{fill:#EDEDED;}
	.st3{fill:#F1F1F1;}
	.st4{fill:#DCDCDC;}
	.st5{fill:#E8E8E8;}
	.st6{fill:#E4E4E4;}
	.st7{fill:#DFDFDF;}
	.st8{fill:#878787;}
	.st9{fill:#A0A0A0;}
	.st10{fill:#A5A5A5;}
	.st11{fill:#999999;}
	.st12{fill:#EAEAEA;}
	.st13{fill:#9E9E9E;}
	.st14{fill:#929292;}
	.st15{fill:#AEAEAE;}
	.st16{fill:#A1A1A1;}
	.st17{fill:#E1E1E1;}
	.st18{fill:#9D9D9D;}
	.st19{fill:#6C6C6C;}
	.st20{fill:#B8B8B8;}
	.st21{fill:#B6B6B6;}
	.st22{fill:#A4A4A4;}
	.st23{fill:#BDBDBD;}
	.st24{fill:#DDDDDD;}
	.st25{fill:#C1C1C1;}
	.st26{fill:#747474;}
	.st27{fill:#A8A8A8;}
	.st28{fill:#D7D7D7;}
	.st29{fill:#ACACAC;}
	.st30{fill:#898989;}
	.st31{fill:#5D5D5D;}
	.st32{fill:#CDCDCD;}
	.st33{fill:#CBCBCB;}
	.st34{fill:#B7B7B7;}
	.st35{fill:#D4D4D4;}
	.st36{fill:#979797;}
	.st37{fill:#8B8B8B;}
	.st38{fill:#D6D6D6;}
	.st39{fill:#CFCFCF;}
	.st40{fill:#949494;}
	.st41{fill:#6D6D6D;}
	.st42{fill:#C3C3C3;}
	.st43{fill:#B5B5B5;}
	.st44{fill:#A9A9A9;}
	.st45{fill:#848484;}
	.st46{fill:#BCBCBC;}
	.st47{fill:#C4C4C4;}
	.st48{fill:#C9C9C9;}
	.st49{fill:#919191;}
	.st50{fill:#BBBBBB;}
	.st51{fill:#C0C0C0;}
	.st52{fill:#E0E0E0;}
	.st53{fill:#B3B3B3;}
	.st54{fill:#ABABAB;}
	.st55{fill:#CCCCCC;}
	.st56{fill:#B4B4B4;}
	.st57{fill:#828282;}
	.st58{fill:#8F8F8F;}
	.st59{fill:#818181;}
	.st60{fill:#646464;}
	.st61{fill:#767676;}
	.st62{fill:#676767;}
	.st63{fill:#797979;}
	.st64{fill:#6A6A6A;}
	.st65{fill:#727272;}
	.st66{fill:#616161;}
	.st67{fill:#757575;}
	.st68{fill:#707070;}
	.st69{fill:#A3A3A3;}
	.st70{fill:#9B9B9B;}
	.st71{fill:#858585;}
	.st72{fill:#7C7C7C;}
	.st73{fill:#909090;}
	.st74{fill:#5C5C5C;}
	.st75{fill:#969696;}
	.st76{fill:#9C9C9C;}
	.st77{fill:#7D7D7D;}
	.st78{fill:#8E8E8E;}
	.st79{fill:#626262;}
	.st80{fill:#6B6B6B;}
	.st81{fill:#656565;}
	.st82{fill:#787878;}
</style>
<title>Net-Vector</title>
<path class="st0" d="M413.1,473.1c-0.4-54.9,43.9-100.3,101.9-98.7c53.4,1.5,96.9,43.8,96.1,100.2c-0.8,55.5-42.7,97.9-99.8,97.8
	C455.8,572.3,413,529.3,413.1,473.1z M539.8,445.4c-0.3-3-1.6,4.7-4.6,10.2c-1.3,1.6-1.5-3.9-1.9-2.2c-0.7-0.6-1.6-1.1-1.9-1.9
	c-0.8-2-1.4-4-2-6l-2.1-7.8c-0.6-2.4-1.3-4.9-1.9-7.3l-1-3l-2.1-4.7l-4-6.2c-2-1-3-3.8-5.9-3.1c-0.6-2.5-2.5-1.6-4.1-1.7l-11.9,0.8
	c-1.2-0.4-2.4-0.7-3.7-0.9c-3.1-0.1-6.3,0.2-9.4,0c-3.1-0.2-5.9,0.5-8,2.9c-2.7,0.8-4.9,2.2-6,5c-4.7,1.3-6,5.4-7.8,9.1
	c-0.1,0.3,0.4,0.9,0.6,1.3c-0.2,0.1-0.4,0.3-0.6,0.5c-3.5,0.3-3.7,0.4-4.2,4.2l-0.9,1.7c-2.8,1.5-3.1,4.5-4.3,7.1
	c-1.7,2.8-3.7,5.5-2.9,9.1c-2.8,0.1-1.7,2.8-2.6,4.1l-1.1,5.9c-1,1.7-1.2,3.1,1.5,3.2c0.8,0,1.6-0.1,2.4-0.1l8-0.1l5-1l2-0.9l4.9-3
	c1-1.4,2.1-2.8,3.3-4.1c1.9-1.7,3-4.3,2.9-6.9l1.9-6.1l1.8-4.9c-0.1-2.2,0.8-4.4,2.3-5.9l0.7-1.1l1-2l1.4-1.9l1.8-1.9l1-1.1l3.9-2.1
	l3,8.1l0.9,3.9l1.2,5l1.1,5l1,3l1,3l1.9,4c1,4.5,4.5,8,8.9,9.1c0.9,0.4,1.8,0.7,2.8,0.8c9.5,0,18.9-0.1,28.3-0.2
	c4.9-1.6,9.2-4.1,11.8-8.8l1.3-2.7l5-6.9l2.9-4.2l4.2-7.9l2.8-5.1c3.3-5.4,6.6-10.8,9.9-16.1c1.5-1.6,0.4-2-1-2
	c-6.8,0-13.5,0.1-20.3,0.2c-0.6,0.1-1.2,0.4-1.8,0.8c-3.1,0.3-5.1,3.2-7.2,5.7c-1.8,5.1-6.6,36-13.1,25.1c-0.5,1.4,6-16.1,5.5-14.7
	l-1,3l-1.4,5.9c-0.6,2-1.2,4.1-1.8,6.1C537,443.1,540.1,444.7,539.8,445.4z M473.3,500.3h7l1.9-0.3c-0.4-0.5-0.6-1.3-1-1.5
	c-2.6-1.3-5.2-0.9-8.1-0.3c-2.7,0.3-4.9,2.3-5.5,4.9c-0.7,2.5,0.3,5.2,2.5,6.6c1.5,1.1,3.1,1.9,4.7,2.9c1.3,0.8,2.6,1.4,3.9,2.3
	c1.7,1.2,2.5,3.1,1.6,4.8c-0.7,1.4-2.1,2.4-3.6,2.8c-2.2,0.3-4.6-0.3-6.9-0.6c-0.8-0.1-2-1.4-2.2,0.4c-0.1,0.7,0.7,2.1,1.2,2.2
	c2.7,0.6,5.5,0.8,8.3,0.7c3.1-0.3,5.7-1.9,6.4-5.4s-0.9-5.8-3.6-7.6c-1.9-1.3-4.1-2.2-6.1-3.4C469.5,506,469.4,503.9,473.3,500.3z
	 M520.3,511.2L520.3,511.2c0,4-0.1,8,0.1,12c0,0.5,0.9,1.2,1.5,1.4c0.2,0.1,1.1-0.7,1.2-1.2c0.2-1.2,0.2-2.3,0.2-3.5
	c0-5.2,0-10.3,0-15.5c0.1-0.4,0.2-0.9,0.4-1.3c0.4,0.3,0.9,0.5,1.1,0.8c2.5,3.7,4.9,7.5,7.3,11.3c1.7,2.6,3.3,5.4,5.2,7.9
	c0.9,0.9,2.2,1.5,3.4,1.4c1.9,0,1.5-1.8,1.5-3.1c0-5.7,0-11.3,0-17c0.1-1.8,0-3.7-0.2-5.5c-0.1-0.5-1-0.9-1.6-1.4
	c-0.4,0.5-1,0.9-1,1.4c-0.1,1.2-0.2,2.3-0.1,3.5c0,5.1,0,10.3,0,15.5c-0.1,0.6-0.2,1.2-0.4,1.7c-0.5-0.3-1-0.8-1.4-1.2
	c-2.9-4.5-5.7-9-8.6-13.4c-1.2-2-2.6-3.9-3.8-5.9c-0.9-1.5-2.3-2.2-3.8-1.4c-0.7,0.4-1.1,1.9-1.1,2.9
	C520.2,504.2,520.3,507.7,520.3,511.2z M463.7,524.2c0-0.2,0-0.4-0.1-0.7c-3.2-8.2-6.2-16.5-9.6-24.6c-0.8-2-3.2-1.7-4.1,0.6
	c-3.1,7.9-6.1,15.8-9.1,23.7c-0.1,0.4-0.1,1.2,0.1,1.3c0.6,0.2,1.5,0.4,1.8,0.1c0.7-0.6,1.3-1.4,1.6-2.3c1.9-5.2,0.7-4.9,7.5-4.9
	c1.2,0.1,2.3,0.1,3.5,0c2.3-0.3,3.3,0.7,3.9,2.8c0.4,1.4,1,2.8,1.7,4.1c0.2,0.4,1.2,0.5,1.8,0.6C463,524.9,463.4,524.4,463.7,524.2z
	 M549.5,511.2c0,3.7,0.1,7.3,0,11c-0.1,2.2,0.9,2.9,2.9,2.9s4.3,0.1,6.5,0c1.7-0.1,4.8,0.9,4.7-1.2c-0.1-2.7-3.2-1.2-4.9-1.3
	c-6.6-0.3-6.1,1.2-6.2-6.7c0-0.3,0-0.7,0-1c-0.1-1.7,0.7-2.4,2.4-2.4c2,0,4,0,6-0.1c0.5,0,1-0.7,1.4-1c-0.5-0.5-0.8-1.3-1.4-1.6
	c-0.8-0.2-1.6-0.2-2.5-0.1c-6.3-0.1-5.9,1.3-5.9-6.3c0-0.2,0-0.3,0-0.5c-0.2-1.7,0.5-2.4,2.3-2.4c2.3,0,4.7,0,7-0.1
	c0.5,0,0.9-0.7,1.4-1.1c-0.5-0.5-0.9-1.5-1.4-1.5c-3.2-0.2-6.3,0-9.5-0.1c-2.3-0.1-2.8,1.1-2.8,3.1
	C549.6,504.2,549.5,507.7,549.5,511.2L549.5,511.2z M489.5,511.5c0,1.7,0,3.3,0,5c-0.1,2.2-0.1,4.3,0.1,6.5c0.1,0.7,1,1.3,1.6,1.9
	c0.4-0.6,1.1-1.2,1.2-1.8c0.1-1.2,0.1-2.3,0.1-3.5c0.1-4.3-0.9-5.4,4.6-5.1c0.8,0,1.7-0.1,2.5-0.2c4-1,6.8-4.7,6.6-8.9
	c-0.2-4-2.8-6.8-7.3-7.4c-2.1-0.3-4.3-0.1-6.5-0.3s-3,0.7-2.9,2.9C489.6,504.2,489.5,507.8,489.5,511.5L489.5,511.5z M510.8,479.5
	h71c1.3,0,2.7,0,4,0c0.6-0.1,1.3-0.2,1.9-0.5c-0.6-0.3-1.1-0.5-1.8-0.6c-0.8-0.1-1.7-0.1-2.5,0c-48.5,0-97,0-145.5,0
	c-1.4,0.1-2.7,0.4-4,0.7c1.3,0.2,2.6,0.4,3.9,0.5C462.2,479.5,486.5,479.5,510.8,479.5L510.8,479.5z M574.6,512.9v9.5
	c0,1.2,0,2.6,1.7,2.3c0.5-0.1,1.2-1.4,1.3-2.2c0.1-5,0-10,0.1-15c0-2.1-0.4-4.7,0.6-6.3c0.7-1.1,3.6-0.5,5.5-0.9
	c0.6-0.1,1.2-0.9,1.7-1.3c-0.6-0.5-1.1-1.3-1.7-1.3c-4-0.1-8-0.2-12-0.1c-1.7,0.1-4.5-1-4.7,1.2c-0.2,2.6,2.8,1.5,4.3,1.5
	c2.8-0.1,3.4,1.1,3.3,3.6C574.5,506.9,574.6,509.9,574.6,512.9L574.6,512.9z M512.3,520.9c-0.8,1-1.9,1.7-1.8,2.4c0,0.7,1,1.3,1.6,2
	c0.7-0.6,1.8-1.1,1.9-1.8S513.1,522.1,512.3,520.9L512.3,520.9z"/>
<path class="st0" d="M413.3,471.1c-0.4-54.9,43.9-100.3,101.9-98.7c53.4,1.5,96.9,43.8,96.1,100.2c-0.8,55.5-42.7,97.9-99.8,97.8
	C456.1,570.2,413.2,527.2,413.3,471.1z M540.1,443.3c-0.3-3-1.6,4.7-4.6,10.2c-1.3,1.6-1.5-3.9-1.9-2.2c-0.7-0.6-1.6-1.1-1.9-1.9
	c-0.8-2-1.4-4-2-6c-0.7-2.6-1.4-5.2-2.1-7.8c-0.7-2.6-1.3-4.9-1.9-7.3l-1-3l-2.1-4.7l-4-6.2c-2-1-3-3.8-5.9-3.1
	c-0.6-2.5-2.5-1.6-4.1-1.7l-11.9,0.8c-1.2-0.4-2.4-0.7-3.7-0.9c-3.1-0.1-6.3,0.2-9.4,0c-3.1-0.2-5.9,0.5-8,2.9c-2.7,0.8-4.9,2.2-6,5
	c-4.7,1.3-6,5.4-7.8,9.1c-0.1,0.3,0.4,0.9,0.6,1.3c-0.2,0.1-0.4,0.3-0.6,0.5c-3.5,0.3-3.7,0.4-4.2,4.2l-1,1.7
	c-2.8,1.5-3.1,4.5-4.3,7.1c-1.7,2.8-3.7,5.5-2.9,9.1c-2.8,0.1-1.7,2.8-2.6,4.1l-1.1,5.9c-1,1.8-1.2,3.1,1.5,3.2
	c0.8,0,1.6-0.1,2.4-0.1l8-0.1l5-1l2-0.9l4.9-3c1-1.4,2.1-2.8,3.3-4.1c1.9-1.7,3-4.3,2.9-6.9l1.9-6.1l1.8-4.9
	c-0.1-2.2,0.8-4.4,2.3-5.9l0.7-1.1l1-2l1.4-1.9l1.8-1.9l1-1.1l3.9-2.1l3,8.1l0.9,3.9l1.2,5l1.1,5l1,3l1,3l1.9,4c1,4.5,4.5,8,8.9,9.1
	c0.9,0.4,1.8,0.7,2.8,0.8c9.5,0,18.9-0.1,28.3-0.2c4.9-1.6,9.2-4.1,11.8-8.8l1.3-2.7l5-6.9l2.9-4.2l4.2-7.9c0.9-1.7,1.9-3.4,2.8-5.1
	l9.9-16.1c1.5-1.5,0.4-2-1-2c-6.8,0-13.5,0.1-20.3,0.2c-0.6,0.1-1.2,0.4-1.8,0.8c-3.1,0.3-5.1,3.2-7.2,5.7
	c-1.8,5.1-6.6,36-13.1,25.1c-0.5,1.4,6-16.1,5.5-14.7l-1,3l-1.4,5.9c-0.6,2-1.2,4.1-1.8,6.1C537.3,441,540.3,442.6,540.1,443.3z
	 M473.6,498.2h7l1.8-0.3c-0.3-0.5-0.6-1.3-1-1.5c-2.6-1.3-5.2-0.9-8.1-0.3c-2.7,0.3-4.9,2.3-5.4,4.9c-0.7,2.5,0.3,5.2,2.5,6.6
	c1.5,1,3.1,2,4.7,2.9c1.3,0.8,2.6,1.5,3.9,2.3c1.7,1.2,2.5,3.1,1.6,4.8c-0.8,1.4-2.1,2.4-3.6,2.8c-2.2,0.3-4.6-0.3-6.9-0.6
	c-0.8-0.1-2-1.4-2.2,0.3c-0.1,0.7,0.7,2.1,1.3,2.2c2.7,0.6,5.5,0.8,8.3,0.7c3.1-0.3,5.7-1.9,6.4-5.4s-0.9-5.9-3.6-7.6
	c-1.9-1.3-4.1-2.2-6.1-3.4C469.7,503.9,469.6,501.8,473.6,498.2z M520.5,509.2L520.5,509.2c0,4-0.1,8,0.1,12c0,0.5,0.9,1.2,1.5,1.4
	c0.2,0.1,1.1-0.7,1.2-1.2c0.1-1.2,0.2-2.3,0.1-3.5c0-5.2,0-10.3,0-15.5c0.1-0.4,0.2-0.9,0.4-1.3c0.4,0.2,0.8,0.5,1.1,0.8
	c2.5,3.8,4.9,7.5,7.3,11.3c1.7,2.7,3.3,5.4,5.2,7.9c0.9,0.9,2.1,1.5,3.3,1.5c1.9,0,1.5-1.8,1.5-3.1c0-5.7,0-11.3,0-17
	c0.1-1.8,0-3.7-0.2-5.5c-0.1-0.5-1-0.9-1.6-1.4c-0.4,0.5-1,0.9-1,1.4c-0.1,1.2-0.2,2.3-0.1,3.5c0,5.1,0,10.3,0,15.4
	c-0.1,0.6-0.2,1.2-0.4,1.7c-0.5-0.3-1-0.8-1.4-1.2c-2.9-4.5-5.7-9-8.5-13.4c-1.2-2-2.6-3.9-3.8-5.9c-0.9-1.5-2.3-2.2-3.8-1.4
	c-0.7,0.4-1.1,1.9-1.1,2.9C520.4,502.2,520.5,505.7,520.5,509.2L520.5,509.2z M464,522.1c0-0.2,0-0.4-0.1-0.6
	c-3.2-8.2-6.2-16.5-9.6-24.6c-0.8-2-3.2-1.7-4.1,0.6c-3.1,7.9-6.1,15.8-9.1,23.7c-0.1,0.4-0.1,1.2,0.1,1.3c0.6,0.2,1.5,0.4,1.8,0.1
	c0.7-0.6,1.3-1.4,1.6-2.3c1.9-5.2,0.7-4.8,7.5-4.9c1.2,0.1,2.3,0.1,3.5,0c2.3-0.3,3.3,0.8,3.9,2.8c0.4,1.4,1,2.8,1.7,4.1
	c0.2,0.4,1.2,0.5,1.8,0.6C463.3,522.8,463.7,522.3,464,522.1L464,522.1z M549.8,509.1c0,3.7,0.1,7.3,0,11c-0.1,2.2,0.9,3,3,2.9
	c2.1,0,4.3,0.1,6.5,0c1.7-0.1,4.8,0.9,4.7-1.2c-0.1-2.7-3.2-1.2-4.9-1.3c-6.6-0.3-6.1,1.2-6.2-6.7c0-0.3,0-0.7,0-1
	c-0.1-1.7,0.7-2.4,2.4-2.4c2,0,4,0,6-0.1c0.5,0,1-0.7,1.4-1c-0.5-0.5-0.8-1.3-1.4-1.6c-0.8-0.2-1.6-0.2-2.5-0.1
	c-6.3-0.1-5.9,1.3-5.9-6.3c0-0.2,0-0.3,0-0.5c-0.2-1.7,0.5-2.4,2.3-2.4c2.3,0,4.7,0,7-0.1c0.5,0,0.9-0.7,1.4-1.1
	c-0.5-0.5-0.9-1.5-1.4-1.5c-3.2-0.2-6.3,0-9.5-0.1c-2.3-0.1-2.8,1.1-2.8,3.1C549.8,502.1,549.8,505.6,549.8,509.1L549.8,509.1z
	 M489.8,509.4c0,1.7,0,3.3,0,5c-0.1,2.2-0.1,4.3,0.1,6.5c0.1,0.7,1,1.3,1.6,1.9c0.4-0.6,1.1-1.1,1.2-1.8c0.1-1.2,0.1-2.3,0.1-3.5
	c0.1-4.3-0.9-5.4,4.6-5.2c0.8,0,1.7,0,2.5-0.2c4-1,6.8-4.7,6.6-8.9c-0.2-4-2.8-6.8-7.3-7.4c-2.1-0.3-4.3-0.1-6.5-0.3s-3,0.7-2.9,2.9
	C489.8,502.1,489.7,505.7,489.8,509.4L489.8,509.4z M511.1,477.4h71c1.3,0,2.7,0,4,0c0.6-0.1,1.3-0.3,1.9-0.5
	c-0.6-0.3-1.1-0.5-1.7-0.6c-0.8-0.1-1.7-0.1-2.5,0c-48.5,0-97,0-145.5,0c-1.4,0.1-2.7,0.4-4,0.7c1.3,0.2,2.6,0.4,3.9,0.5
	C462.4,477.4,486.8,477.4,511.1,477.4L511.1,477.4z M574.8,510.8c0,3.2,0,6.3,0,9.5c0,1.2,0,2.6,1.7,2.3c0.6-0.1,1.2-1.4,1.3-2.2
	c0.1-5,0-10,0.1-15c0-2.1-0.4-4.7,0.6-6.3c0.7-1.1,3.6-0.5,5.5-0.9c0.6-0.1,1.2-0.9,1.7-1.3c-0.6-0.5-1.1-1.3-1.7-1.4
	c-4-0.1-8-0.2-12-0.1c-1.7,0.1-4.5-1-4.7,1.2c-0.2,2.6,2.8,1.5,4.3,1.5c2.8-0.1,3.4,1.1,3.3,3.6
	C574.7,504.9,574.8,507.9,574.8,510.8L574.8,510.8z M512.6,518.8c-0.8,1-1.9,1.7-1.8,2.4s1,1.3,1.6,2c0.7-0.6,1.8-1.1,1.9-1.8
	C514.3,520.7,513.4,520,512.6,518.8L512.6,518.8z"/>
<path class="st1" d="M520.1,511.3c0-3.5-0.1-7,0-10.5c0-1,0.4-2.5,1.1-2.9c1.5-0.7,2.8-0.1,3.8,1.4c1.2,2,2.5,3.9,3.8,5.9
	c2.8,4.5,5.7,9,8.5,13.4c0.4,0.5,0.9,0.9,1.4,1.2c0.2-0.6,0.3-1.1,0.4-1.7c0-5.2,0-10.3,0-15.5c0-1.2,0-2.3,0.1-3.5
	c0.1-0.5,0.7-1,1-1.4c0.5,0.5,1.5,0.9,1.6,1.4c0.2,1.8,0.2,3.6,0.2,5.5c0,5.6,0,11.3,0,17c0,1.2,0.4,3-1.5,3.1
	c-1.3,0-2.5-0.5-3.3-1.5c-1.9-2.5-3.5-5.2-5.2-7.9c-2.4-3.8-4.9-7.5-7.3-11.3c-0.2-0.4-0.7-0.6-1.1-0.8c-0.2,0.4-0.4,0.8-0.4,1.3
	c0,5.1,0,10.3,0,15.5c0.1,1.2,0,2.3-0.1,3.5c-0.1,0.5-1,1.3-1.2,1.2c-0.6-0.3-1.5-0.9-1.5-1.4C520.1,519.3,520.2,515.3,520.1,511.3
	L520.1,511.3z"/>
<path class="st1" d="M463.6,524.2c-0.3,0.2-0.7,0.7-1,0.7c-0.6,0-1.5-0.2-1.8-0.6c-0.7-1.3-1.3-2.7-1.7-4.1c-0.6-2-1.7-3.1-3.9-2.8
	c-1.2,0.1-2.3,0.1-3.5,0c-6.8,0-5.5-0.4-7.5,4.9c-0.3,0.9-0.9,1.7-1.6,2.3c-0.3,0.3-1.2,0.1-1.8-0.1c-0.2-0.1-0.2-0.9-0.1-1.3
	c3-7.9,6-15.9,9.1-23.7c0.9-2.3,3.2-2.6,4.1-0.6c3.3,8.1,6.4,16.4,9.6,24.6C463.5,523.8,463.6,524,463.6,524.2z M451.6,514.6h1.5
	c3.6-0.1,3.7-0.1,2.4-3.5c-1.1-2.9-2.5-5.6-3.8-8.4c-1.1,2.8-2.3,5.5-3.3,8.3c-1.3,3.5-1.3,3.6,2.7,3.6H451.6z"/>
<path class="st2" d="M549.4,511.2c0-3.5,0.1-7,0-10.5c0-2,0.5-3.2,2.8-3.1c3.2,0.1,6.3,0,9.5,0.1c0.5,0,1,1,1.4,1.5
	c-0.5,0.4-0.9,1-1.4,1.1c-2.3,0.1-4.7,0.2-7,0.1c-1.7,0-2.4,0.7-2.3,2.4c0,0.2,0,0.3,0,0.5c0,7.6-0.4,6.2,5.9,6.3
	c0.8-0.1,1.7,0,2.5,0.1c0.6,0.2,1,1,1.4,1.6c-0.5,0.4-0.9,1-1.4,1c-2,0.2-4,0.2-6,0.1c-1.7,0-2.5,0.7-2.4,2.4c0,0.3,0,0.7,0,1
	c0,7.9-0.5,6.4,6.2,6.7c1.7,0.1,4.8-1.3,4.9,1.3c0,2-3,1-4.7,1.2c-2.2,0.2-4.3,0-6.5,0s-3-0.7-2.9-2.9
	C549.5,518.5,549.4,514.9,549.4,511.2z"/>
<path class="st3" d="M489.3,511.5c0-3.6,0.1-7.3,0-11c-0.1-2.2,0.8-3,3-2.9s4.3,0,6.5,0.3c4.5,0.6,7.1,3.4,7.3,7.4
	c0.2,4.8-3.5,8.9-8.3,9.1c-0.2,0-0.5,0-0.7,0c-5.6-0.3-4.6,0.9-4.6,5.1c0.1,1.2,0,2.3-0.1,3.5c-0.1,0.7-0.8,1.2-1.2,1.8
	c-0.6-0.7-1.5-1.2-1.6-1.9c-0.2-2.1-0.1-4.3-0.1-6.5L489.3,511.5z M492.3,506.2c0,0.8,0,1.7,0,2.5c0.1,3,0.5,3.4,3.5,3.2
	c0.8,0,1.7-0.2,2.5-0.4c3.5-0.9,5-3.2,4.3-6.7c-0.6-3.2-3.3-4.7-7.8-4.4c-4.1,0.3-2,3.4-2.5,5.2C492.3,505.9,492.3,506,492.3,506.2
	L492.3,506.2z"/>
<path class="st4" d="M510.7,479.5c-24.3,0-48.7,0-73,0c-1.3-0.1-2.6-0.2-3.9-0.5c1.3-0.3,2.6-0.6,4-0.7c48.5,0,97,0,145.5,0
	c0.8,0,1.7,0,2.5,0c0.6,0.1,1.2,0.3,1.8,0.6c-0.6,0.2-1.2,0.4-1.9,0.5c-1.3,0.1-2.7,0-4,0L510.7,479.5z"/>
<path class="st3" d="M473.2,500.4c-4,3.6-3.9,5.7,0.6,8.4c2,1.2,4.1,2.1,6.1,3.4c2.7,1.8,4.3,4.2,3.6,7.6s-3.3,5.1-6.4,5.4
	c-2.8,0.1-5.6-0.1-8.3-0.7c-0.6-0.1-1.4-1.5-1.3-2.2c0.3-1.8,1.4-0.4,2.2-0.3c2.3,0.3,4.6,0.9,6.9,0.6c1.5-0.4,2.9-1.4,3.6-2.8
	c0.8-1.8,0.1-3.8-1.6-4.8c-1.2-0.9-2.6-1.5-3.9-2.3c-1.6-0.9-3.2-1.8-4.7-2.9c-2.2-1.4-3.2-4.1-2.5-6.6c0.6-2.6,2.8-4.6,5.4-4.9
	c2.9-0.6,5.4-1,8.1,0.3c0.5,0.2,0.7,1,1,1.5l-1.8,0.3C478,499,475.3,499,473.2,500.4z"/>
<path class="st5" d="M574.4,513c0-3-0.1-6,0-9c0.1-2.4-0.5-3.7-3.3-3.6c-1.5,0-4.5,1.1-4.3-1.5c0.2-2.2,3-1.2,4.7-1.2
	c4-0.1,8-0.1,12,0.1c0.6,0,1.2,0.9,1.7,1.3c-0.6,0.5-1.1,1.2-1.7,1.3c-1.9,0.4-4.8-0.1-5.5,0.9c-1,1.5-0.6,4.1-0.6,6.3
	c-0.1,5,0,10-0.1,15c0,0.8-0.7,2.1-1.3,2.2c-1.7,0.3-1.7-1.1-1.7-2.3C574.4,519.3,574.4,516.2,574.4,513z"/>
<path class="st6" d="M512.2,521c0.8,1.1,1.8,1.9,1.7,2.5s-1.2,1.2-1.9,1.8c-0.6-0.7-1.6-1.3-1.6-2S511.3,522,512.2,521z"/>
<path class="st7" d="M473.2,500.4c2.1-1.3,4.9-1.3,7,0H473.2z"/>
<path class="st0" d="M451.6,514.6h-0.5c-4-0.1-4-0.1-2.7-3.6c1-2.8,2.2-5.5,3.3-8.3c1.3,2.8,2.7,5.5,3.8,8.4
	c1.3,3.4,1.2,3.4-2.4,3.5H451.6z"/>
<path class="st0" d="M492.3,506.2c0-0.2,0-0.3,0-0.5c0.6-1.9-1.6-5,2.5-5.2c4.5-0.3,7.2,1.2,7.8,4.4c0.6,3.5-0.8,5.8-4.3,6.7
	c-0.8,0.2-1.6,0.3-2.5,0.4c-3,0.2-3.4-0.2-3.5-3.2C492.3,507.9,492.3,507,492.3,506.2z"/>
<path class="st8" d="M566.7,409.2h10.8c-0.3,0.7-0.6,1.5-1,2.2c-1.4,2.8-2.8,5.6-4.2,8.5l-3.5,7.1l-3.5,7.2l-3,5.8l-13.5-0.5
	l5.7-9.9c0.5-0.7,1-1.4,1.5-2.2c2.7-5.4,5.4-10.8,8.1-16.2L566.7,409.2z"/>
<path class="st9" d="M501.6,456.2l-1.7-4.5c3.4,0.8,6.4-1.3,9.7-1.4l1.8,3.1l3.5,6.3c1.3,1.6,2.7,3.2,4.2,4.7
	c0.8,0.7,2.1,0.8,3.2,1.2l-3.9,1.3c-1.3-0.5-2.8-0.7-4-1.5c-1.7-1.4-3.3-2.8-4.8-4.4C507.1,456.1,507.1,456.1,501.6,456.2z"/>
<path class="st10" d="M509.6,450.4c-3.3,0.1-6.3,2.2-9.7,1.4c-0.5-1.8-1.1-3.6-1.6-5.4l5.2-0.7c-0.7-2.2-1.5-4.3-2.2-6.5l-2.6-8.5
	l0,0l3.4-0.4c1.2,3,2.3,6,3.5,9l3.1,8.5L509.6,450.4z"/>
<path class="st11" d="M531.8,445.4c0.3,1,0.5,2.1,0.8,3.1c-4.8,0-4.8,0-3.8,4.7v0.2l2.1,7.1l-1.3,1l-1,0.4l-1.7-2.7l-3-6.3l-1.7-4.5
	c1.4-0.5,3.1-0.8,4.2-1.7C528.2,445.5,529.9,445.4,531.8,445.4z"/>
<path class="st12" d="M578.9,409.2h8.2l-5.5,9.8l-4.8-0.9L578.9,409.2z"/>
<path class="st13" d="M531.8,445.4c-1.9,0-3.7,0-5.3,1.4c-1.1,0.9-2.8,1.2-4.2,1.7c-0.3-0.8-0.6-1.5-0.9-2.3c-0.6-2-1.2-3.9-1.8-5.8
	l4.8-1.8l1.3,3.9l5.3-0.3L531.8,445.4z"/>
<path class="st14" d="M534.5,455.7l0.9,0.6l6.6-7.6l3.4-4l-0.9,3.6l-1.7,4.5l-1.8,4.9l-2.2,4l-0.9,1.3l-0.8,0.5l-2.6-6.2
	L534.5,455.7z"/>
<path class="st15" d="M480.8,434.7c-1,3.2-2,6.3-3,9.4l-2.2-1c0.3-0.7,0.6-1.5,0.9-2.2l2.7-4.1l-5.7-0.8l3.9-5.8h0.4
	c3.8,0.6,3.8,0.6,3.1,4.3C480.8,434.6,480.8,434.6,480.8,434.7z"/>
<path class="st16" d="M566.7,409.2c-0.9,0.7-2.4,1.4-3.3,2.2c-0.9,0.2-2,0-2.6,0.5c-2.2,1.6-4.4,3.5-6.5,5.3l-5.3-0.9
	c4.6-6.3,7.2-6.9,11.6-7C562.2,409.3,565.1,409.3,566.7,409.2z"/>
<path class="st16" d="M566.4,410l-2.1,1.7c0,0-0.1,0-0.1,0c-0.9,0.1-1.9,0-2.5,0.5c-2.3,1.7-4.5,3.6-6.8,5.5l-3-3.4
	c2.8-2.4,6.3-3.9,10-4.4c1.4-0.2,2.8-0.3,4.3-0.4c0.1,0,0.2,0,0.3,0.2C566.5,409.9,566.5,409.9,566.4,410z"/>
<path class="st17" d="M576.8,418.1l4.8,0.9l-6.5,11.7l-2.2-1.8v-0.4l2.6-7.6C575.9,419.9,576.3,419,576.8,418.1z"/>
<path class="st18" d="M474.7,454c-0.9,3.2-2.2,6.3-4.8,8.5c-0.5-0.6-0.8-1.5-1.4-1.6c-1-0.2-2-0.2-3-0.1c0.2-0.4,0.3-0.9,0.5-1.3
	l2.2-4l1.7-2.2L474.7,454z"/>
<path class="st19" d="M528.7,462l0.9-0.4l4.8,4.5l1.3,1.3h-17.4c0-0.1,0-0.3,0-0.4l3.9-1.3L528.7,462z"/>
<path class="st20" d="M562.4,440.1l3-5.8l4.4,0.9c-0.5,1-0.9,2-1.5,3c-0.8,1.3-0.9,2.4,0.6,3.3c-1.1,1.8-2.3,3.6-3.4,5.4
	c-0.9-0.6-1.2-1.9-0.5-2.8c0.1-0.1,0.1-0.2,0.2-0.2c1-1.6,0.6-2.6-1.3-2.8c-0.5-0.1-1-0.3-1.4-0.5
	C562.4,440.4,562.4,440.2,562.4,440.1z"/>
<path class="st21" d="M527.8,429.3l2.2,8l-5.6,0.9c-0.7-2.7-1.5-5.4-2.2-8.1L527.8,429.3z"/>
<path class="st22" d="M474.7,454l-4.9-0.9l0.9-2.7l3-4.9l1.8-2.2l2.2,1C476.7,447.4,475.7,450.7,474.7,454z"/>
<path class="st23" d="M480.8,434.7c0-0.1,0-0.1,0-0.2c0.6-3.7,0.6-3.7-3.1-4.3l7.9-9c-0.6,2.3-1.3,4.6,0.4,6.8L480.8,434.7z"/>
<path class="st24" d="M455.5,468.9c-4.2,0.1-8.4,0.2-12.5,0.2c-0.5,0-1.4-1.3-1.3-1.7c1.5-4.8,3.1-9.5,4.7-14.3
	c0.3,2.3,0.7,4.5,1,6.8l-4.3,8.9h4.7l7.9-0.1L455.5,468.9z"/>
<path class="st25" d="M527.8,429.3l-5.6,0.9l-0.9-2.7l-1.7-4.9h5.7L527.8,429.3z"/>
<path class="st26" d="M535.7,467.3l-1.3-1.3l2.6-2.7l0.9-0.5c1.9,3.9,3.5,4.5,7.2,2.7c0.8-0.4,1.7-0.9,2.5-1.3l4.8-3.1l1.3,0.9
	c-2.5,3.2-6.2,5.2-10.3,5.4C540.8,467.5,538.3,467.3,535.7,467.3z"/>
<path class="st27" d="M493.1,425.7l-1.2-3.7l-0.8-0.5l-2.5,3.3c-0.3-0.7-0.6-1.4-0.8-2.1c-0.2-1.1-0.3-2.2-0.5-3.3l2.8-2.5l1.8,4.2
	l1.5-1.6c0.9,1.6,1.7,3.2,2.6,4.9C495.6,426,494.2,425.6,493.1,425.7z"/>
<path class="st25" d="M498.7,430.6l2.6,8.5l-4.8,0.5l-2.1-8.5L498.7,430.6z"/>
<path class="st28" d="M447.3,459.8c-0.3-2.3-0.7-4.5-1-6.8c1.2-2.8,2.3-5.7,3.5-8.5c0.3,2.4,0.6,4.8,1,7.2c-0.1,0.6-0.1,1.1-0.2,1.7
	l-0.8,2.3L447.3,459.8z"/>
<path class="st29" d="M562.4,440.5c0.5,0.2,0.9,0.3,1.4,0.5c1.9,0.2,2.3,1.3,1.3,2.8c-0.7,0.8-0.7,2.1,0.1,2.8
	c0.1,0.1,0.1,0.1,0.2,0.2c-0.7,1.1-1.4,2.1-2.1,3.2l-1.7-0.8l-2.8-1.5l1.3-3.1L562.4,440.5z"/>
<path class="st30" d="M506.9,410.5h2.2c2.6,1.7,5.6,3.1,7.1,6.2l-5.3,0.5h-0.4c-1.5-2.3-3-4.7-6.1-5L506.9,410.5z"/>
<path class="st31" d="M506.9,410.5l-2.6,1.7l-7.4,4.5l-1.7,0.9l-1.7,1.3l-1.7-3l2.9-2l10.1-3.4L506.9,410.5z"/>
<path class="st32" d="M540.1,442.3c0.7-2.4,1.5-4.8,2.2-7.2c0.7,0.5,1.4,1,2.1,1.3c1,0.3,2.1,0.4,3.1,0.5c-0.6,1.9-1.2,3.9-1.8,5.8
	L540.1,442.3z"/>
<path class="st33" d="M525.3,422.5h-5.7l-0.4-0.4l-2.7-5.4l5.6-0.4L525.3,422.5z"/>
<path class="st34" d="M496.5,439.6l4.8-0.5c0.7,2.1,1.4,4.3,2.2,6.5l-5.2,0.7L496.5,439.6z"/>
<path class="st35" d="M522.2,416.3l-5.6,0.4h-0.4c-1.5-3.1-4.4-4.5-7.1-6.2C514.5,410,519,411.6,522.2,416.3z"/>
<path class="st29" d="M549.7,416.3l5.3,0.9l-2.6,4.9c-2,1.3-4,0.9-6.1,0.5L549.7,416.3z"/>
<path class="st29" d="M549.3,416.3l5.3,0.9l-2.7,4.9c-2,1.3-4,0.9-6.1,0.5L549.3,416.3z"/>
<path class="st36" d="M465.5,460.7c1-0.1,2-0.1,3,0.1c0.6,0.2,1,1.1,1.4,1.6c-3.7,4.3-8.5,6.1-14,6.2c3.5-1.1,6.5-2.7,8.3-6.2
	L465.5,460.7z"/>
<path class="st37" d="M518.3,467c0,0.1,0,0.2,0,0.4c-5.1,0.4-9.8-0.2-13.1-4.9l4.4-1.4c1.5,1.6,3.1,3,4.8,4.4
	C515.5,466.3,517,466.5,518.3,467z"/>
<path class="st9" d="M558.9,447.7l2.8,1.5l1.7,0.8l-2.8,3.9c-1.9-1.4-2.2,1.1-3.5,1.5l-2.1-0.9l0.8-1.3c0.7-1.5,1.5-3,2.2-4.5
	L558.9,447.7z"/>
<path class="st28" d="M540.1,442.3l5.7,0.5c0,0.3,0,0.6,0,0.9l-0.4,0.9l-3.4,4l-3.6-0.9L540.1,442.3z"/>
<path class="st28" d="M540,442.3l5.7,0.5v0.9l-0.4,0.9l-3.4,4l-3.6-0.9L540,442.3z"/>
<path class="st38" d="M576.8,418.1c-0.4,0.9-0.9,1.8-1.3,2.7l-3.1-0.9c1.4-2.8,2.8-5.6,4.2-8.5c0.3-0.7,0.6-1.5,1-2.2h1.4
	C578.2,412.1,577.5,415.1,576.8,418.1z"/>
<path class="st39" d="M450.7,451.7c-0.3-2.4-0.6-4.8-1-7.2l3.5-7.2c0.3,1.4,0.6,2.7,0.9,4.1C453,444.9,451.9,448.3,450.7,451.7z"/>
<path class="st40" d="M509.6,461.1l-4.4,1.4l-3.6-6.3C507.1,456.1,507.1,456.1,509.6,461.1z"/>
<path class="st41" d="M464.2,462.5c-1.8,3.5-4.8,5.1-8.3,6.2l-0.5,0.2v-0.2l2.6-6.2H464.2z"/>
<path class="st42" d="M547.6,437c-1.1-0.1-2.1-0.3-3.1-0.5c-0.8-0.3-1.5-0.8-2.1-1.3c0.4-1.4,0.8-2.7,1.3-4.1
	c1.8,1.5,3.8,0.6,5.7,0.5L547.6,437z"/>
<path class="st43" d="M546.2,422.6c2.1,0.4,4.2,0.8,6.1-0.5l-1.8,5.4l-5.7-0.9C545.4,425.2,545.8,423.9,546.2,422.6z"/>
<path class="st43" d="M546,422.6c2.1,0.4,4.2,0.8,6.1-0.5l-1.8,5.4l-5.7-0.9C545.1,425.2,545.6,423.9,546,422.6z"/>
<path class="st44" d="M524.4,438.3l5.6-0.9c0.3,1.6,0.7,3.3,1,4.9l-5.3,0.3l-1.3-3.9L524.4,438.3z"/>
<path class="st45" d="M534.5,455.7v1.5l-3.5,3.5l-2.1-7.1h5.1C534.1,454.3,534.4,455.1,534.5,455.7z"/>
<path class="st45" d="M535.5,454.8v1.5c-1.2,1.2-2.4,2.3-3.5,3.5l-2.1-7.1h5.1C535.1,453.4,535.3,454.3,535.5,454.8z"/>
<path class="st45" d="M535.5,454.3v1.5c-1.2,1.2-2.4,2.3-3.5,3.5l-2.1-7.1h5.1L535.5,454.3z"/>
<path class="st46" d="M544.9,426.6l5.7,0.9c-0.1,0.7-0.3,1.5-0.4,2.2l-0.9,1.8c-1.9,0.1-3.9,1-5.7-0.5L544.9,426.6z"/>
<path class="st46" d="M544.9,426.2l5.7,0.9c-0.1,0.8-0.3,1.5-0.4,2.2l-0.9,1.8c-1.9,0.1-3.9,1-5.7-0.5
	C544,429.2,544.5,427.7,544.9,426.2z"/>
<path class="st47" d="M494.7,413.9l-2.9,2c-2.5-2.1-4.8-4.6-8.3-5.1c0-0.1,0-0.2,0-0.3h6.6c0.1,0.9,0.1,2.5,1.4,1.7
	C493.6,410.9,494.1,412.4,494.7,413.9z"/>
<path class="st48" d="M454.2,441.5c-0.3-1.4-0.6-2.7-0.9-4.1c1.5-2.5,2.9-5,4.4-7.6l0.9,2.2C457.1,435.2,455.6,438.3,454.2,441.5z"
	/>
<path class="st34" d="M498.7,430.6l-4.3,0.4l-1.3-5.4c1.2,0,2.5,0.3,3-1.4h0.4L498.7,430.6L498.7,430.6z"/>
<path class="st49" d="M533.9,453.5h-5.1v-0.2c-0.9-4.7-0.9-4.7,3.8-4.7L533.9,453.5z"/>
<path class="st50" d="M494.7,413.9c-0.6-1.5-1.1-3-3.3-1.7c-1.3,0.8-1.3-0.8-1.4-1.7h14.9L494.7,413.9z"/>
<path class="st51" d="M458.6,432l-0.9-2.2l5.6-7.7l1.3,0.9L458.6,432z"/>
<path class="st52" d="M538.4,447.7l3.6,0.9l-6.6,7.6L538.4,447.7z"/>
<path class="st52" d="M538,447.7l3.6,0.9l-6.6,7.6L538,447.7z"/>
<path class="st53" d="M487.3,419.4c0.1,1.1,0.2,2.2,0.5,3.3c0.2,0.7,0.5,1.4,0.8,2.1l-2.7,3.1c-1.7-2.2-1-4.5-0.4-6.8
	c0-0.2,0-0.5,0.1-0.8L487.3,419.4z"/>
<path class="st54" d="M483.4,410.5c0,0.1,0,0.2,0,0.3c-4.9-0.3-8.5,2.2-11.8,5.4l-1.3,0.4l-0.9-0.9
	C473.4,412.3,477.9,409.9,483.4,410.5z"/>
<path class="st28" d="M572.8,428.8l2.2,1.8c-0.8,1.5-1.7,3-2.6,4.5l-2.2-0.5L572.8,428.8z"/>
<path class="st55" d="M570.2,434.7l2.2,0.5l-3.6,6.2c-1.4-0.9-1.4-2-0.6-3.3c0.6-0.9,1-2,1.5-3L570.2,434.7z"/>
<path class="st56" d="M469.5,415.9l0.9,0.9l-5.6,6.2l-1.3-0.9L469.5,415.9z"/>
<path class="st57" d="M553.6,462l-1.3-0.9l3.9-4l1.2,0.8C556.2,459.3,554.9,460.6,553.6,462z"/>
<path class="st40" d="M557.5,457.9l-1.2-0.8l0.9-1.8c1.2-0.3,1.5-2.9,3.5-1.5C559.6,455.2,558.5,456.5,557.5,457.9z"/>
<path class="st58" d="M550.2,429.8c0.1-0.8,0.3-1.5,0.4-2.2l1.8-5.4l2.6-4.9c2.2-1.8,4.3-3.7,6.5-5.3c0.7-0.5,1.7-0.4,2.6-0.5
	c-2.7,5.4-5.4,10.8-8.1,16.2c-0.4,0.8-0.9,1.5-1.5,2.2H550.2z"/>
<path class="st59" d="M562.4,440.5l-2.2,4c-1-0.4-2-0.7-3.1-0.8c-3.6-0.1-7.3,0-10.9,0l2.6-4l13.5,0.5
	C562.4,440.2,562.4,440.4,562.4,440.5z"/>
<path class="st36" d="M548.9,439.6c-0.9,1.3-1.7,2.7-2.6,4h-0.4c0-0.3,0-0.6,0-0.9c0.6-1.9,1.2-3.9,1.8-5.8l1.7-5.4l0.9-1.8h4.4
	L548.9,439.6z"/>
<path class="st33" d="M572.4,419.9l3.1,0.9l-2.6,7.6l-4-1.4L572.4,419.9z"/>
<path class="st25" d="M568.9,427l4,1.4v0.4l-2.6,5.8l-0.5,0.5l-4.4-0.9L568.9,427z"/>
<path class="st41" d="M521.4,446.3c0.3,0.8,0.6,1.5,0.9,2.3l1.7,4.5c-0.8,0-1.6,0-2.4,0l-10.2,0.4l-1.8-3.1l-0.9-2.7
	c0.8-0.5,1.5-1.3,2.3-1.3C514.5,446.2,517.9,446.3,521.4,446.3z"/>
<path class="st60" d="M511.3,453.5l10.2-0.4c0.8,0,1.6,0,2.4,0l3,6.3l-12.2,0.4L511.3,453.5z"/>
<path class="st31" d="M514.8,459.8l12.2-0.4l1.7,2.7l-6.5,3.6c-1.1-0.4-2.4-0.5-3.2-1.2C517.5,463,516.1,461.4,514.8,459.8z"/>
<path class="st59" d="M505.6,439.2c-1.2-3-2.3-6-3.5-9l-0.4-1.4c1.8,0,3.6,0,5.4,0c2.9-0.1,5.7-0.3,8.6-0.4l3.5,10.8L505.6,439.2z"
	/>
<path class="st61" d="M505.6,439.2h13.6l0.5,1.3c0.6,1.9,1.2,3.9,1.8,5.8c-3.5,0-6.9-0.1-10.4,0.1c-0.8,0-1.6,0.8-2.3,1.3
	L505.6,439.2z"/>
<path class="st11" d="M501.7,428.9l0.4,1.4l-3.4,0.4c-0.7-2.1-1.5-4.2-2.2-6.3l2.6-0.9c0.3,0.6,0.6,1.2,0.9,1.8L501.7,428.9z"/>
<path class="st62" d="M530.9,460.6l3.5-3.5l2.6,6.2l-2.6,2.7l-4.8-4.4L530.9,460.6z"/>
<path class="st22" d="M519.7,440.5l-0.5-1.3c-1.2-3.6-2.3-7.2-3.5-10.8c0-0.3,0-0.6,0-0.9h5.7l0.9,2.7c0.7,2.7,1.5,5.4,2.2,8.1v0.5
	L519.7,440.5z"/>
<path class="st63" d="M545.8,443.6h0.4c3.6,0,7.3-0.1,10.9,0c1.1,0.2,2.1,0.4,3.1,0.8l-1.3,3.1l-0.8,0.9c-0.9-0.2-1.8-0.4-2.7-0.5
	c-3.6,0-7.2,0-10.8,0l0.9-3.6L545.8,443.6z"/>
<path class="st64" d="M555.8,453l-0.8,1.3l-2.2,3.6c-0.8-0.2-1.7-0.4-2.5-0.4c-3.1-0.1-6.2,0-9.3,0l1.8-4.9c1.1,0,2.2,0,3.2,0
	C549.3,452.7,552.6,452.9,555.8,453z"/>
<path class="st65" d="M555.8,453c-3.3-0.1-6.6-0.3-9.8-0.4c-1.1,0-2.1,0-3.2,0l1.7-4.5c3.6,0,7.2,0,10.8,0c0.9,0.1,1.8,0.2,2.7,0.5
	C557.3,450.1,556.6,451.6,555.8,453z"/>
<path class="st66" d="M541,457.5c3.1,0,6.2,0,9.3,0c0.9,0.1,1.7,0.2,2.5,0.4l-3.5,4.4c-0.8-0.4-1.7-0.6-2.6-0.8
	c-2.6-0.1-5.3,0-7.9,0L541,457.5z"/>
<path class="st31" d="M538.8,461.6c2.7,0,5.3-0.1,7.9,0c0.9,0.2,1.7,0.4,2.6,0.8l-1.7,1.9c-0.8,0.5-1.6,0.9-2.5,1.3
	c-3.7,1.8-5.3,1.1-7.2-2.7L538.8,461.6z"/>
<path class="st67" d="M485.7,420.4c0,0.2-0.1,0.5-0.1,0.8l-7.9,9h-0.4c-0.7-0.3-1.4-0.4-2.1-0.5c-4.5,0.7-9.1,1.5-13.6,2.3l5.6-9.4
	c5.1-0.9,10.3-1.9,15.5-2.8C483.6,419.6,484.7,420.2,485.7,420.4z"/>
<path class="st68" d="M461.6,432c4.5-0.8,9.1-1.6,13.6-2.3c0.7,0,1.4,0.2,2.1,0.5l-3.9,5.8l-1.3,1.4c-2.4,0.4-4.8,0.7-7.2,1
	c-2.3,0.3-4.5,0.5-6.8,0.7L461.6,432z"/>
<path class="st69" d="M472.1,437.4l1.3-1.4l5.7,0.8l-2.7,4.2l-5.7-0.9L472.1,437.4z"/>
<path class="st70" d="M470.7,440l5.7,0.9c-0.3,0.8-0.6,1.5-0.9,2.2l-1.8,2.2l-6.1-0.4C468.7,443.3,469.7,441.7,470.7,440z"/>
<path class="st71" d="M470.8,450.4l-0.9,2.7l-1.7,2.2l-5.7-0.9l2.6-5L470.8,450.4z"/>
<path class="st72" d="M462.4,454.4l5.7,0.9l-2.2,4l-5.7-0.5C461,457.4,461.7,455.9,462.4,454.4z"/>
<path class="st67" d="M460.3,458.9l5.7,0.5c-0.2,0.5-0.3,0.9-0.5,1.3l-1.3,1.8h-6.1l0.9-1.8L460.3,458.9z"/>
<path class="st73" d="M470.8,450.4l-5.7-0.9V449l2.6-4l6.1,0.5C472.8,447.1,471.8,448.7,470.8,450.4z"/>
<path class="st74" d="M459,460.7l-0.9,1.8l-2.6,6.2l-7.9,0.1c0.3-2.4,0.6-4.8,0.9-7.1c2.3-0.3,4.7-0.7,7-0.9
	C456.7,460.6,457.8,460.6,459,460.7z"/>
<path class="st75" d="M448.6,461.6c-0.3,2.4-0.6,4.8-0.9,7.1H443l4.3-8.9c0.8-1.4,1.6-2.7,2.5-4.1
	C449.4,457.7,449,459.6,448.6,461.6z"/>
<path class="st76" d="M521.3,427.5h-5.7l-1.3-2.7l-0.9-2.7h5.7l0.4,0.5C520.2,424.2,520.8,425.9,521.3,427.5z"/>
<path class="st40" d="M547.6,464.3l1.7-1.9l3.5-4.4l2.2-3.6l2.1,0.9l-0.9,1.8l-3.9,4L547.6,464.3z"/>
<path class="st77" d="M485.7,420.4c-1-0.2-2-0.8-3-0.6c-5.2,0.8-10.3,1.8-15.5,2.8l4.4-6.3c3.3-3.2,7-5.7,11.8-5.4
	c3.5,0.5,5.8,3,8.3,5.1l1.7,3v0.5l-1.5,1.6l-1.8-4.2l-2.8,2.5L485.7,420.4z"/>
<path class="st78" d="M493.5,419.5V419l1.7-1.3l2.7,3.6l1.3,2.3l-2.6,0.9h-0.4C495.2,422.7,494.3,421.1,493.5,419.5z"/>
<path class="st79" d="M448.6,461.6c0.4-2,0.8-3.9,1.2-5.9l0.8-2.3l1.9-3c3.4-0.6,6.9-1.3,10.3-1.9c0.8,0,1.6,0.2,2.4,0.5v0.4l-2.6,5
	c-0.7,1.5-1.5,3-2.2,4.5l-1.3,1.8c-1.1-0.1-2.2-0.1-3.4,0C453.3,460.9,450.9,461.3,448.6,461.6z"/>
<path class="st70" d="M452.5,450.4l-1.9,3c0-0.6,0.1-1.1,0.2-1.7c1.1-3.4,2.3-6.8,3.5-10.3c1.4-3.1,2.9-6.3,4.4-9.4l6.1-9l5.7-6.3
	l1.3-0.4l-4.4,6.3l-5.6,9.5l-3.5,7.2L452.5,450.4z"/>
<path class="st80" d="M497.8,421.2l-2.7-3.6l1.7-0.9c0.3,0.3,0.7,0.8,1,0.8c4.2,0,8.3-0.2,12.5-0.2h0.4c0.6,1.3,1.2,2.7,1.8,4
	L497.8,421.2z"/>
<path class="st81" d="M510.4,417.2c-4.2,0.1-8.3,0.2-12.5,0.2c-0.3,0-0.7-0.5-1-0.8l7.4-4.5C507.5,412.5,508.9,414.9,510.4,417.2z"
	/>
<path class="st14" d="M512.7,421.2c-0.6-1.3-1.2-2.7-1.8-4l5.3-0.5h0.4l2.7,5.4h-5.7L512.7,421.2z"/>
<path class="st82" d="M514.4,424.8l1.3,2.7c0,0.3,0,0.6,0,0.9c-2.9,0.1-5.7,0.3-8.6,0.4c-1.8,0.1-3.6,0-5.4,0l-1.7-3.6
	c0.9-0.2,1.8-0.4,2.8-0.4C506.6,424.8,510.5,424.8,514.4,424.8z"/>
<path class="st65" d="M514.4,424.8c-3.9,0-7.8,0-11.7,0c-0.9,0.1-1.8,0.2-2.8,0.4c-0.3-0.6-0.6-1.2-0.9-1.8l-1.3-2.3h14.9l0.8,0.9
	C513.8,423,514.1,423.9,514.4,424.8z"/>
<path class="st80" d="M452.5,450.4l5.6-11.2c2.3-0.2,4.5-0.4,6.8-0.7c2.4-0.3,4.8-0.7,7.2-1l-1.4,2.6c-1,1.6-2,3.3-3,5l-2.6,4
	c-0.7-0.3-1.5-0.5-2.4-0.5C459.3,449,455.9,449.7,452.5,450.4z"/>
</svg>
