<?xml version="1.0" encoding="utf-8"?>
<!-- Generator: Adobe Illustrator 22.0.1, SVG Export Plug-In . SVG Version: 6.00 Build 0)  -->
<svg version="1.1" id="csharp" xmlns="http://www.w3.org/2000/svg" xmlns:xlink="http://www.w3.org/1999/xlink" x="0px" y="0px"
	 viewBox="0 0 1366 768" style="enable-background:new 0 0 1366 768;" xml:space="preserve">
<style type="text/css">
	.st0{fill:#DDDDDD;}
	.st1{fill:#848484;}
	.st2{fill:#FDFDFD;}
</style>
<title>C#-Vector</title>
<path class="st0" d="M509.3,355.6c0-21.5,0.1-43,0-64.5c-0.1-16.1,6.5-28.7,19.9-36.9c19.3-11.9,39.1-22.9,58.7-34.2
	c17.3-10,34.8-19.8,51.9-30c18.5-11.1,36.6-10.9,55.2,0c36.6,21.5,73.5,42.5,110.3,63.7c13.2,7.6,19.7,19.2,19.9,34.1
	c0.5,31.1,0.8,62.3,1,93.4c0,15.6-0.4,31.3-1,46.9c-0.5,13.3-6.8,23.8-18.1,30.5c-37,21.8-74.4,43-111.4,64.9
	c-19.9,11.8-38.9,10.6-58.5-1c-35.5-20.9-71.1-41.4-107-61.7c-15.3-8.6-20.5-22.3-20.9-38.3C508.9,400.3,509.3,378,509.3,355.6
	L509.3,355.6z M822.3,358.3L822.3,358.3c0-22.3,0.1-44.7,0-67c-0.1-15.5-6.1-27.4-20.1-35.4c-36.9-21-73.5-42.6-110.3-63.9
	c-16.8-9.7-33.4-9.8-50,0.7c-8.7,5.5-17.8,10.4-26.8,15.6c-27.6,15.9-55.2,31.7-82.7,47.6c-13,7.6-19.9,19.1-20,34.1
	c-0.2,43.8-0.3,87.7,0.1,131.5c0.2,15.5,5.7,28.6,20.5,36.9c36.4,20.5,72.7,41.4,108.7,62.5c16.4,9.6,32.8,10.8,49.3,1.3
	c37.6-21.5,75-43.4,112.5-65c13-7.5,18.8-18.9,18.9-33.5C822.4,402,822.3,380.2,822.3,358.3L822.3,358.3z"/>
<path class="st1" d="M524.3,355.6c0-22.5-0.1-45,0-67.4c0-8.8,3.9-15.9,11.6-20.3c39.8-23,79.6-45.9,119.5-68.7
	c8.9-5.1,17.9-3.6,26.6,1.4c24.3,14.1,48.7,28.1,73.2,42c12.1,7,24.2,14,36.5,20.7c7,3.8,13.1,8.4,17,15.4c1.6,2.9,2.4,6.2,2.4,9.5
	c0.2,44.6,0.4,89.2,0.1,132.9c-0.1,12.2-5.2,21.6-16.6,28c-37.2,20.8-74.2,42-110.9,63.6c-11.1,6.5-21.1,6.8-32.3,0.3
	c-37.8-22.1-75.8-43.7-113.8-65.5c-9.4-5.4-13.8-14-14-24.3C523.2,400.6,524.3,378.1,524.3,355.6L524.3,355.6z M749.9,405.6
	c-0.4-0.5-0.7-1.2-1.2-1.5c-12.3-7.3-24.5-14.6-36.9-21.6c-1.1-0.6-4.2,0.5-5.2,1.7c-12.3,16.7-32.9,24.2-52,18.8
	c-20.6-5.8-33.2-23.2-35-43.4c-1.8-20.4,10.9-39.7,30.2-47.2c20.3-7.9,41.9-1.9,55.5,15.4c1.2,1.5,2.4,3.1,3.9,5.1l40.9-23.8
	c-20.6-37.3-66.2-56.6-108.5-44.6c-43.5,12.4-71.1,46.5-70.8,92.7c0.2,42.7,28.2,81.5,73.7,92.5
	C686.6,459.9,727.7,442.1,749.9,405.6L749.9,405.6z M729.8,329.7c-3.1,4.6,1.5,13.9-9,12.6v6.6l5.7,1.7c-0.2,3.1-0.5,6.2-0.6,8.5
	c-2.7,2.5-7.4-0.9-7.7,4.9c-0.2,4.8,3.1,4.1,6.2,4.6v12.6c12.8,2.3,5.9-8.5,9.1-12.6h8.2c-0.4,4.4-0.7,8.4-1,12.6h8
	c0.7-4.4,1.3-8.5,1.9-12.5l6.5-0.6v-7.3l-5.2-0.6v-10.1c8.6-1.1,8.6-1.1,7.3-7.3l-5.8-1.5v-10.7c-2.3,0-5.9-0.7-6.3,0.1
	c-1.6,3.3-2.1,7-3,10.5h-7.8v-11.2L729.8,329.7z"/>
<path class="st2" d="M749.9,405.6c-22.1,36.5-63.3,54.3-105.4,44.2c-45.5-11-73.5-49.8-73.7-92.5c-0.2-46.2,27.3-80.4,70.8-92.7
	c42.4-12,88,7.3,108.5,44.6l-40.9,23.8c-1.5-2-2.7-3.6-3.9-5.1c-13.6-17.3-35.2-23.3-55.5-15.4c-19.2,7.5-32,26.8-30.2,47.2
	c1.8,20.1,14.4,37.6,35,43.4c19.2,5.4,39.8-2.1,52-18.8c0.9-1.2,4.1-2.3,5.2-1.7c12.4,7,24.7,14.4,36.9,21.6
	C749.2,404.4,749.5,405.1,749.9,405.6z"/>
<path class="st2" d="M729.8,329.7h6.5V341h7.8c0.9-3.5,1.5-7.2,3-10.5c0.4-0.8,4-0.1,6.3-0.1v10.7c2,0.5,3.8-0.1,5.6,0.4
	c0.6,8.1,1.4,7.3-7.2,8.4v10l5.2,0.6v7.3l-6.5,0.6c-0.6,4-1.2,8.2-1.9,12.5h-8c0.3-4.1,0.7-8.2,1-12.6h-8.2
	c-3.2,4.1,3.7,14.9-9.1,12.6v-12.5c-3.1-0.5-6.4,0.2-6.2-4.6c-0.6-8.2,4.6-3.3,7.7-4.9c0.1-1.8,0.2-4.9,0.3-7.7
	c0.1-1.1-0.8-2-1.9-2.1c-1.2,0-2.3-0.1-3.5-0.3v-6.6C731.3,343.7,726.7,334.4,729.8,329.7z M734.1,359.9h9.1
	c0.3-3.5,0.5-6.5,0.7-9.5C734.5,348.8,734.5,348.8,734.1,359.9z"/>
<path class="st1" d="M734.1,359.9c-0.8-11.7,0-10.3,9.8-9.5c-0.2,3-0.5,6.1-0.7,9.5H734.1z"/>
</svg>
