<svg id="css" data-name="Layer 1" xmlns="http://www.w3.org/2000/svg" viewBox="0 0 1366 768"><defs><style>.cls-1{fill:#6c6c6c;}.cls-2{fill:#fff;}.cls-3{fill:#979797;}.cls-4{fill:#e4e4e4;}.cls-5{fill:#e5e5e5;}</style></defs><title>CSS-Vector</title><path class="cls-1" d="M681.81,141.4c-5,54.28-10.07,108.29-15.11,162.41-4.13,1.94-8.42,2.68-12.55,3.81-15.73,4.3-31.53,8.37-47.26,12.67a20.09,20.09,0,0,1-10.69.09c-19.38-4.88-38.54-10.52-57.86-15.59a19.47,19.47,0,0,1-2.32-1q-7.5-80.81-15-161.86C524.77,140.66,672.41,140.15,681.81,141.4ZM577.94,205a198,198,0,0,0-22,8.93c-2.47,6.74-.08,13.19.64,20.27h44.34q0,13.14.07,26.28c0,1.65.15,3.34-1.07,4.71-6.65-1.32-13.24-2.88-20.08-4.87-1.64-5.14.31-10.83-2.73-15.9-6.11-.35-12.33-.32-18.4-.06-1.3,5.89-.29,20.33,2,31,12.75,4.59,26.1,7.94,39.26,11.9,1.92,4.32.58,8.88,1,13.31.21,2.23-.64,4.63.77,6.69,6.62-.58,50.05-12.7,53-14.94,4-45.6,8-91.5,11.94-137.28-5.48-1.64-61.26-1.34-65.28.33-1.34,5.44.49,11.37-1.06,16.79-2.14,1.29-4.18.86-6.14.87-12.48,0-25,0-37.46,0-1.95,0-4-.47-5.74,1-.49,6.75.64,13.26,2.21,19.87H600c.47.22,1.25.17,1,1.07-4,1.61-8,3.08-11.89,4.85C585.38,201.55,581.16,202.17,577.94,205Z"/><path class="cls-2" d="M648.73,107.56c-3.1.65-5.52-1.23-8.28.21,1.89,3.4,5.46,5.21,7.59,8.24,2.29,3.25,1.63,6.88,1,10.62H624.26c-.81-3.07-.27-6-.35-8.81,2.65-1.86,5.48-.35,8.32-1.41-2.2-3.42-5.27-5.91-8.16-8.92a44.23,44.23,0,0,1,.13-10.8c8.16-.37,16.16-.26,24.28-.07A57.76,57.76,0,0,1,648.73,107.56Z"/><path class="cls-2" d="M589.83,117.35c2.39-1,4.79-.14,7.4-.78-1.84-3.83-5.67-5.86-8-9.28,0-3.36-.55-6.83.61-10.49h23.27c.78,3.7.32,7.27.24,11.16h-8l8.56,7.63c.34,4.55.51,7.65-.07,11H590.1C589.07,123.49,589.37,120.41,589.83,117.35Z"/><path class="cls-2" d="M554.21,126.45V96.74c7.9-.54,15.61-.15,23.49-.23a36.73,36.73,0,0,1,.14,11.31c-4.31-.26-8.44-1.54-12.59.5-.83,2.44-.22,5.07-.39,7.81,4.5,1.64,9.08-.11,13.52,1.18,1.29,2.87.24,5.85.75,9.14Z"/><path class="cls-3" d="M551.05,174.07c1.71-1.49,3.79-1,5.74-1,12.49,0,25,0,37.46,0,2,0,4,.42,6.14-.87,1.55-5.42-.28-11.35,1.06-16.79,4-1.67,59.8-2,65.28-.33-4,45.78-8,91.68-11.94,137.28-3,2.24-46.4,14.36-53,14.94-1.41-2.06-.56-4.46-.77-6.69-.42-4.43.92-9-1-13.31l0-.45c2.19.53,4.26,0,6.35-.62,10.36-3,20.73-5.86,31.08-8.83,1.88-.54,3.88-1,5.27-3,.41-4.38.53-9,1.36-13.57,1.23-6.72.8-13.52,1.59-20.28.88-7.69,2-15.44,1.48-23.25a2,2,0,0,0,.05-2.73c-1.68-.8-3.52-.47-5.31-.48-10.55,0-21.1,0-31.65,0-1.75,0-3.67.51-5.17-1l44.51-19c.42-6.78,2-13.06,1.36-19.59a5.76,5.76,0,0,0-1.51-.46c-16.79,0-33.58-.36-50.36.19Z"/><path class="cls-4" d="M600,287.24c-13.16-4-26.51-7.31-39.26-11.9-2.33-10.68-3.34-25.12-2-31,6.07-.26,12.29-.29,18.4.06,3,5.07,1.09,10.76,2.73,15.9,6.84,2,13.43,3.55,20.08,4.87l1.12,1c0,4.13,0,8.27,0,12.4-.06,2.78.52,5.65-1,8.27Z"/><path class="cls-5" d="M599.07,174.21c3.21,6.44,2.29,13.07,1,19.73H553.26c-1.57-6.61-2.7-13.12-2.21-19.87Z"/><path class="cls-5" d="M600.91,234.17H556.57c-.72-7.08-3.11-13.53-.64-20.27,1.7,1.48,3.77,1.08,5.74,1.09q12.48,0,25,0c3.1,0,6,.55,8.1,3.25.33,3.74.59,7.53-.29,11.29-.6,1.5-2.85,1.1-3.46,3.46h10l1,.89Z"/><path class="cls-3" d="M600.91,234.17l1.09-.28c7.42.38,14.88-.33,23.09.5-.55,8.5-1.07,16.63-1.6,24.82L601,266.12l-1.12-1c1.22-1.37,1.07-3.06,1.07-4.71Q601,247.31,600.91,234.17Z"/><path class="cls-5" d="M601,233H591c.61-2.36,2.86-2,3.46-3.46.88-3.76.62-7.55.29-11.29-2.15-2.7-5-3.26-8.1-3.25q-12.5,0-25,0c-2,0-4,.39-5.74-1.09a198,198,0,0,1,22-8.93c3.45,2,7.21,2.19,11.08,2.06s8,0,12,0c.08,1.42.15,2.84.2,3.75,1,2.05,2.43,2.16,3.87,2.27,1.5,1.49,3.42,1,5.17,1,10.55,0,21.1,0,31.65,0,1.79,0,3.63-.32,5.31.48a2,2,0,0,1-.05,2.73c-.85-2.53-3-2.21-5-2.21q-17.88,0-35.76,0c-1.64,0-3.36-.18-5.17,1.86C600.69,221.8,601.14,227.41,601,233Z"/><path class="cls-5" d="M601,207c-4,0-8-.1-12,0s-7.63-.07-11.08-2.06c3.22-2.8,7.44-3.42,11.17-5.11C593,198.09,597,196.62,601,195Z"/></svg>