<?xml version="1.0" encoding="utf-8"?>
<!-- Generator: Adobe Illustrator 22.0.1, SVG Export Plug-In . SVG Version: 6.00 Build 0)  -->
<svg version="1.1" id="es6" xmlns="http://www.w3.org/2000/svg" xmlns:xlink="http://www.w3.org/1999/xlink" x="0px" y="0px"
	 viewBox="0 0 1366 768" style="enable-background:new 0 0 1366 768;" xml:space="preserve">
<style type="text/css">
	.st0{fill:#FEFEFE;}
	.st1{fill:#B0B0B0;}
	.st2{fill:#333333;}
	.st3{fill:#343434;}
</style>
<path class="st0" d="M672.2,713.5H346.7c-6.6,0-12-5.4-12-12V376c0-6.6,5.4-12,12-12h325.5c6.6,0,12,5.4,12,12v325.5
	C684.2,708.1,678.8,713.5,672.2,713.5z"/>
<title>ES6-Gray-Responsive</title>
<path class="st1" d="M671.2,537v154.4c0,7.6,0,7.6-7.3,7.6H354.5c-7.3,0-7.3,0-7.3-7.5V382.6c0-7.6,0-7.6,7.8-7.6h308.4
	c7.8,0,7.8,0,7.8,8V537z M405.8,620.3c0,15,0,30,0,45c0,6.7,0,6.8,6.6,6.8h50c13.1,0,12.9,0,13.2-13.2c0.1-4.6-1.5-5.6-5.7-5.6
	c-12.7,0.2-25.3,0-38,0.1c-3.6,0-5.2-1.1-5-4.9c0.2-4.7,0.2-9.3,0-14c-0.1-3.4,1.2-4.8,4.7-4.7c8.2,0.1,16.3,0.1,24.5,0
	c13.9-0.2,11.6,2.1,12-12.3c0.1-4.3-1.2-5.9-5.7-5.8c-9.8,0.3-19.7-0.1-29.5,0.1c-4.4,0.1-6.5-1-6.1-5.8c0.3-4.2,0.3-8.3,0-12.5
	c-0.2-4.1,1.2-5.6,5.4-5.5c9.3,0.2,18.7,0.1,28,0.1c13.5,0,13.4,0,13.2-13.6c0-4-1.5-5.2-5.3-5.1c-19,0.1-38,0.1-57,0
	c-4.2,0-5.5,1.4-5.4,5.5C405.9,590,405.8,605.1,405.8,620.3z M629.3,571.2l-0.7-1.5c-6.4,0-12.8,0.1-19.2-0.1
	c-3-0.2-5.9,1.3-7.5,3.8c-7.5,10.6-15.5,20.9-22.6,31.7c-4.4,6.8-8.7,13.9-11.2,21.5c-4.6,14.1-1.8,27.1,9.8,37.2
	c14,12.2,37.6,12.8,52.5,1.8c11.4-8.4,16.1-23.3,12-38c-3.6-12.9-13.8-21-28.2-22.2c-3.5-0.3-7.2,0-10.3,0L629.3,571.2z M484,651.9
	c1.6,2.5,2.5,4.3,3.7,5.8c11.7,14.6,27.3,17.5,44.6,14.7c13.7-2.3,22.3-10.6,24.6-22.3c2.6-13.5-2.2-25-14.3-32.4
	c-5.3-3.3-11.3-5.6-16.9-8.5c-3.8-1.7-7.4-3.7-10.9-6c-3.5-2.5-4.3-6.3-3-10.3c1.3-4,4.3-5.7,8.4-6c5.2-0.4,9.3,1.5,12.7,5.6
	c0.9,1,3.3,2.1,4.2,1.6c4.7-2.6,9.2-5.7,13.7-8.6c-5.5-12.3-18.9-18.8-33.7-16.9c-13.9,1.8-23.2,9.4-25.9,21.4
	c-3,12.9,1.9,24.8,13.5,32.3c3.7,2.2,7.5,4.2,11.5,6c4.6,2.2,9.4,4.2,14,6.6c4.3,2.3,6.9,5.9,6.1,11s-4.7,7.5-9.4,8.4
	c-9.4,1.9-17-1.1-23-8.5c-1-1.2-3.5-2.8-4.5-2.3C494.1,645.8,489.3,648.8,484,651.9z"/>
<path class="st2" d="M405.8,620.3c0-15.2,0.1-30.3-0.1-45.5c0-4.1,1.3-5.6,5.4-5.5c19,0.1,38,0.1,57,0c3.8,0,5.3,1.1,5.3,5.1
	c0.1,13.6,0.3,13.6-13.2,13.6c-9.3,0-18.7,0.2-28-0.1c-4.2-0.1-5.6,1.5-5.4,5.5c0.3,4.2,0.3,8.3,0,12.5c-0.4,4.8,1.8,5.9,6.1,5.8
	c9.8-0.2,19.7,0.1,29.5-0.2c4.5-0.1,5.8,1.5,5.7,5.8c-0.4,14.4,1.8,12.2-12,12.3c-8.2,0.1-16.3,0.1-24.5,0c-3.5-0.1-4.8,1.3-4.7,4.7
	c0.2,4.7,0.2,9.3,0,14c-0.2,3.8,1.5,4.9,5,4.9c12.7-0.1,25.3,0.1,38-0.1c4.3-0.1,5.8,1,5.7,5.6c-0.3,13.2-0.1,13.2-13.2,13.2h-50
	c-6.5,0-6.6,0-6.6-6.8C405.8,650.3,405.8,635.3,405.8,620.3z"/>
<path class="st3" d="M629.3,571.2l-25.4,34.2c3.1,0,6.7-0.2,10.3,0c14.4,1.2,24.7,9.3,28.2,22.2c4.1,14.7-0.6,29.6-12,38
	c-14.9,11-38.5,10.3-52.5-1.8c-11.6-10.1-14.4-23.1-9.8-37.2c2.5-7.6,6.8-14.8,11.2-21.5c7.1-10.8,15.2-21.1,22.6-31.7
	c1.6-2.6,4.5-4.1,7.5-3.8c6.4,0.2,12.8,0.1,19.2,0.1L629.3,571.2z M604.9,653.4c9.2,0,15.5-6,15.5-15.1c0.1-9.1-6-15.4-15.2-15.5
	c-9.3-0.1-16,6.3-15.9,15.3C589.4,647,595.8,653.3,604.9,653.4z"/>
<path class="st3" d="M484,651.9c5.4-3.1,10.1-6.1,15.2-8.6c0.9-0.5,3.5,1.1,4.5,2.3c6.1,7.4,13.7,10.4,23,8.5
	c4.7-0.9,8.5-3.3,9.4-8.4s-1.7-8.7-6.1-11c-4.6-2.4-9.4-4.3-14-6.6c-4-1.8-7.8-3.8-11.5-6c-11.6-7.5-16.4-19.4-13.5-32.3
	c2.7-11.9,12-19.6,25.9-21.4c14.9-1.9,28.3,4.6,33.8,16.9c-4.5,2.9-8.9,6-13.7,8.6c-0.9,0.5-3.4-0.5-4.2-1.6c-3.4-4-7.5-6-12.7-5.6
	c-4,0.3-7.1,2.1-8.4,6c-1.3,3.9-0.5,7.9,3,10.3c3.5,2.3,7.1,4.3,10.9,6c5.6,2.9,11.6,5.2,16.9,8.5c12.1,7.4,17,18.9,14.3,32.4
	c-2.3,11.7-10.9,20-24.6,22.3c-17.2,2.9-32.9-0.1-44.6-14.6C486.5,656.2,485.5,654.4,484,651.9z"/>
<path class="st1" d="M604.9,653.4c-9,0-15.5-6.4-15.5-15.2c0-9,6.6-15.5,15.9-15.3c9.1,0.1,15.2,6.4,15.2,15.5
	S614.1,653.4,604.9,653.4z"/>
</svg>
