<svg id="express" data-name="Layer 1" xmlns="http://www.w3.org/2000/svg" viewBox="0 0 1366 768"><defs><style>.cls-1{fill:#6c6c6c;}.cls-2{fill:#fff;}</style></defs><title>Express-Vector</title><path class="cls-1" d="M636.48,173c-.23,26.31-9.05,49.44-27.17,68.75q-25,26.7-61.73,30.34c-46.58,4.6-87.6-25.63-101.37-66.48-19.1-56.69,13.73-118.91,73.9-131,38-7.64,75.49,7.7,98.27,40.09C630.61,132.06,636.49,151.53,636.48,173Zm-128.25-.59v15.48a3.68,3.68,0,0,0,0,1c.19.59.46,1.15.7,1.72.45-.57,1.25-1.11,1.29-1.7.16-2.66.15-5.33.1-8,0-2.32.45-2.44,2.45-1.16,7.63,4.86,15.91,1.79,17.89-6.75a20.61,20.61,0,0,0,0-8.81c-2.15-9.78-10.39-12.72-18.36-6.72-1.17.89-1.82,1.51-2.05-.61-.06-.56-.84-1-1.29-1.57a7.48,7.48,0,0,0-.73,2.13C508.21,162.37,508.24,167.37,508.23,172.36ZM559.34,182c4-.2,7.49-1.59,9.52-5.29.63-1.15.55-2.68.8-4a19.27,19.27,0,0,0-2.34,2.71c-2.13,3.56-5.25,4.9-9.27,4.46-3.73-.4-6-2.66-7.3-6-1.47-3.84-.58-5.06,3.58-5.12,4.49-.08,9,0,13.47-.06,1.72,0,2.78-.5,2.86-2.55.17-4.52-2.9-9.56-7-11.14a11.38,11.38,0,0,0-13,3.64c-3.56,4.69-3.89,13.53-.64,18.41C552.2,180.39,555.41,181.85,559.34,182Zm-89.64,0c4.37.09,8.13-1.89,9.89-5.46a14.41,14.41,0,0,0,.73-3.66,17,17,0,0,0-2.34,2.56c-2.13,3.6-5.35,4.89-9.3,4.42s-6.27-2.73-7.44-6.42c-1.29-4.07-1-4.59,3.27-4.65,4.66-.07,9.31,0,14-.06,1.58,0,2.89-.2,3-2.36.29-5.78-4.63-11.6-10.4-12.08-7-.59-12.4,5.1-12.79,13.51C457.93,175.85,462.76,181.86,469.7,182Zm115,.41a44.51,44.51,0,0,0,6.54-2.09c2.6-1.28,3.68-3.62,3.43-6.62a6,6,0,0,0-4.34-5.53c-2.81-1-5.78-1.51-8.66-2.3-2.37-.65-4.33-1.68-4.32-4.65s1.92-3.89,4.37-4.52c4.85-1.24,7.85,0,10.18,4.48a9.67,9.67,0,0,0,1.09,1.41,6.25,6.25,0,0,0,.64-2.07c-.23-2.84-2.2-4.47-4.57-5.41a12.13,12.13,0,0,0-10.6.65,6.17,6.17,0,0,0-.19,10.92,29.75,29.75,0,0,0,6.12,2c1.58.48,3.21.81,4.8,1.28,2.41.73,3.41,2.42,3.33,4.91s-1.49,3.52-3.5,4.31c-5.21,2.05-9.31.5-12.55-4.73a7.82,7.82,0,0,0-1.64-1.48,6.83,6.83,0,0,0-.3,2.32C575.53,179.24,579.71,182,584.73,182.41ZM608,154.24a29.81,29.81,0,0,0-4.86,1.17,6.24,6.24,0,0,0-.78,11.16,31,31,0,0,0,5.13,1.84c2.07.63,4.2,1.05,6.24,1.73a4.32,4.32,0,0,1,3.25,4.51c-.09,2.2-1.35,3.6-3.4,4.47-5.27,2.26-9.63.67-12.93-4.78a8.12,8.12,0,0,0-1.23-1.26c-.24.67-.78,1.41-.65,2,.9,4.31,5.47,7.17,10.83,6.91s9-2.84,9.44-6.54c.53-4-2.11-6.84-7.63-8.29-1.13-.3-2.3-.42-3.42-.72-1.28-.34-2.78-.48-3.74-1.26-1.17-1-2.64-2.52-2.57-3.73a6.08,6.08,0,0,1,2.64-4.22c4.34-2.48,9.27-.66,11.64,3.81a8.3,8.3,0,0,0,1.48,1.61c.17-.86.65-1.8.44-2.56C616.83,156.42,613.52,154.33,608,154.24Zm-124.19-.1c.34,1.58.3,2.28.62,2.73,1.95,2.7,3.89,5.41,6,8,1.48,1.8,1.68,3.22.11,5.14-2.42,3-4.57,6.13-6.76,9.26-.29.42-.14,1.14-.19,1.72.59-.17,1.42-.13,1.72-.52,2.23-2.89,4.46-5.81,6.49-8.85,1.48-2.21,2.41-2.08,3.83.1,2,3.07,4.25,5.95,6.49,8.84.27.36,1.13.27,1.71.39-.05-.57.09-1.27-.19-1.68-1.8-2.6-3.69-5.13-5.55-7.69-3.38-4.63-3.42-3.42-.13-7.92,1.67-2.28,3.4-4.52,5-6.83.28-.4.14-1.11.19-1.67-.6.14-1.44.08-1.74.46-1.78,2.2-3.43,4.49-5.12,6.76-2.53,3.4-2.53,3.4-5,.17-1.6-2.13-3.16-4.29-4.82-6.37A17.73,17.73,0,0,0,483.77,154.14Zm52.87.58c-.47.86-.89,1.26-.89,1.66,0,7.67,0,15.33,0,23,0,.45.72.89,1.1,1.34.26-.54.75-1.07.76-1.62.09-3.66,0-7.33.09-11,.12-6.76,1.69-8.81,8.28-11.18.51-.18.88-.77,1.31-1.17-.52-.27-1.17-.89-1.54-.76a23.88,23.88,0,0,0-5.39,2.36c-1.6,1.08-2.74,2.44-2.76-.89C537.61,156,537.11,155.53,536.64,154.72Z"/><path class="cls-2" d="M508.23,172.36c0-5,0-10,0-15a7.48,7.48,0,0,1,.73-2.13c.45.52,1.23,1,1.29,1.57.23,2.12.88,1.5,2.05.61,8-6,16.21-3.06,18.36,6.72a20.61,20.61,0,0,1,0,8.81c-2,8.54-10.26,11.61-17.89,6.75-2-1.28-2.48-1.16-2.45,1.16.05,2.66.06,5.33-.1,8,0,.59-.84,1.13-1.29,1.7-.24-.57-.51-1.13-.7-1.72a3.68,3.68,0,0,1,0-1Zm2.14-3.32a26.21,26.21,0,0,0,.34,3.52c1.06,5.26,4.74,7.9,10.07,7.35s8.42-4.81,8.44-11.6c0-7.26-3.92-12.2-9.67-12.1S510.38,160.82,510.37,169Z"/><path class="cls-2" d="M559.34,182c-3.93-.19-7.14-1.65-9.34-4.95-3.25-4.88-2.92-13.72.64-18.41a11.38,11.38,0,0,1,13-3.64c4.12,1.58,7.19,6.62,7,11.14-.08,2-1.14,2.55-2.86,2.55-4.49,0-9,0-13.47.06-4.16.06-5.05,1.28-3.58,5.12,1.27,3.31,3.57,5.57,7.3,6,4,.44,7.14-.9,9.27-4.46a19.27,19.27,0,0,1,2.34-2.71c-.25,1.36-.17,2.89-.8,4C566.83,180.45,563.36,181.84,559.34,182Zm.22-15.41c2.16,0,4.33,0,6.49,0s2.48-1.15,2.18-2.93a9.07,9.07,0,0,0-8.76-7.47,9.53,9.53,0,0,0-9,7.88c-.23,1.71.41,2.52,2.13,2.51Z"/><path class="cls-2" d="M469.7,182c-6.94-.14-11.77-6.15-11.41-14.2.39-8.41,5.77-14.1,12.79-13.51,5.77.48,10.69,6.3,10.4,12.08-.11,2.16-1.42,2.35-3,2.36-4.66,0-9.31,0-14,.06-4.26.06-4.56.58-3.27,4.65,1.17,3.69,3.61,6,7.44,6.42s7.17-.82,9.3-4.42a17,17,0,0,1,2.34-2.56,14.41,14.41,0,0,1-.73,3.66C477.83,180.11,474.07,182.09,469.7,182Zm.14-15.34v0c2.31,0,4.62,0,6.93,0,2.13,0,2.46-1,2.08-2.86a8.93,8.93,0,0,0-17.16-1.88c-1.79,4.11-1.41,4.68,3.2,4.74C466.54,166.68,468.19,166.66,469.84,166.66Z"/><path class="cls-2" d="M584.73,182.41c-5-.45-9.2-3.17-10.17-7.07a6.83,6.83,0,0,1,.3-2.32,7.82,7.82,0,0,1,1.64,1.48c3.24,5.23,7.34,6.78,12.55,4.73,2-.79,3.42-1.94,3.5-4.31s-.92-4.18-3.33-4.91c-1.59-.47-3.22-.8-4.8-1.28a29.75,29.75,0,0,1-6.12-2,6.17,6.17,0,0,1,.19-10.92,12.13,12.13,0,0,1,10.6-.65c2.37.94,4.34,2.57,4.57,5.41a6.25,6.25,0,0,1-.64,2.07,9.67,9.67,0,0,1-1.09-1.41c-2.33-4.44-5.33-5.72-10.18-4.48-2.45.63-4.37,1.52-4.37,4.52s2,4,4.32,4.65c2.88.79,5.85,1.33,8.66,2.3a6,6,0,0,1,4.34,5.53c.25,3-.83,5.34-3.43,6.62A44.51,44.51,0,0,1,584.73,182.41Z"/><path class="cls-2" d="M608,154.24c5.56.09,8.87,2.18,9.88,5.85.21.76-.27,1.7-.44,2.56a8.3,8.3,0,0,1-1.48-1.61c-2.37-4.47-7.3-6.29-11.64-3.81a6.08,6.08,0,0,0-2.64,4.22c-.07,1.21,1.4,2.78,2.57,3.73,1,.78,2.46.92,3.74,1.26,1.12.3,2.29.42,3.42.72,5.52,1.45,8.16,4.33,7.63,8.29-.49,3.7-4.22,6.29-9.44,6.54s-9.93-2.6-10.83-6.91c-.13-.59.41-1.33.65-2a8.12,8.12,0,0,1,1.23,1.26c3.3,5.45,7.66,7,12.93,4.78,2.05-.87,3.31-2.27,3.4-4.47a4.32,4.32,0,0,0-3.25-4.51c-2-.68-4.17-1.1-6.24-1.73a31,31,0,0,1-5.13-1.84,6.24,6.24,0,0,1,.78-11.16A29.81,29.81,0,0,1,608,154.24Z"/><path class="cls-2" d="M483.77,154.14a17.73,17.73,0,0,1,2.72,2c1.66,2.08,3.22,4.24,4.82,6.37,2.43,3.23,2.43,3.23,5-.17,1.69-2.27,3.34-4.56,5.12-6.76.3-.38,1.14-.32,1.74-.46-.05.56.09,1.27-.19,1.67-1.62,2.31-3.35,4.55-5,6.83-3.29,4.5-3.25,3.29.13,7.92,1.86,2.56,3.75,5.09,5.55,7.69.28.41.14,1.11.19,1.68-.58-.12-1.44,0-1.71-.39-2.24-2.89-4.51-5.77-6.49-8.84-1.42-2.18-2.35-2.31-3.83-.1-2,3-4.26,6-6.49,8.85-.3.39-1.13.35-1.72.52.05-.58-.1-1.3.19-1.72,2.19-3.13,4.34-6.31,6.76-9.26,1.57-1.92,1.37-3.34-.11-5.14-2.11-2.56-4.05-5.27-6-8C484.07,156.42,484.11,155.72,483.77,154.14Z"/><path class="cls-2" d="M536.64,154.72c.47.81,1,1.27,1,1.74,0,3.33,1.16,2,2.76.89a23.88,23.88,0,0,1,5.39-2.36c.37-.13,1,.49,1.54.76-.43.4-.8,1-1.31,1.17-6.59,2.37-8.16,4.42-8.28,11.18-.06,3.66,0,7.33-.09,11,0,.55-.5,1.08-.76,1.62-.38-.45-1.09-.89-1.1-1.34-.06-7.66,0-15.32,0-23C535.75,156,536.17,155.58,536.64,154.72Z"/><path class="cls-1" d="M510.37,169c0-8.22,3.49-12.73,9.18-12.83s9.7,4.84,9.67,12.1c0,6.79-3.11,11-8.44,11.6s-9-2.09-10.07-7.35A26.21,26.21,0,0,1,510.37,169Z"/><path class="cls-1" d="M559.56,166.63h-7c-1.72,0-2.36-.8-2.13-2.51a9.53,9.53,0,0,1,9-7.88,9.07,9.07,0,0,1,8.76,7.47c.3,1.78-.05,3-2.18,2.93S561.72,166.63,559.56,166.63Z"/><path class="cls-1" d="M469.84,166.66c-1.65,0-3.3,0-4.95,0-4.61-.06-5-.63-3.2-4.74a8.93,8.93,0,0,1,17.16,1.88c.38,1.83,0,2.9-2.08,2.86-2.31-.05-4.62,0-6.93,0Z"/></svg>