<svg version="1.1" id="Layer_1" xmlns="http://www.w3.org/2000/svg" xmlns:xlink="http://www.w3.org/1999/xlink" x="0px" y="0px"
	 viewBox="0 0 2500 2021" style="enable-background:new 0 0 2500 2021;" xml:space="preserve">
<style type="text/css">
	.st0{fill:url(#SVGID_1_);}
	.st1{fill:url(#SVGID_2_);}
	.st2{fill:#F2232A;}
	.st3{fill:#000000;}
</style>
<g transform="matrix(.569 0 0 .569 199.451 -82.735)">
	
		<linearGradient id="SVGID_1_" gradientUnits="userSpaceOnUse" x1="-15915.4346" y1="-12469.7988" x2="-15681.1123" y2="-12608.2559" gradientTransform="matrix(0.1187 0 0 0.1187 3704.9626 3291.0876)">
		<stop  offset="0" style="stop-color:#909CA9"/>
		<stop  offset="1" style="stop-color:#EDEDEE"/>
	</linearGradient>
	<path class="st0" d="M2101.2,1514.2l-134.4,44.8l-117,52.7l-32.7,8.8c-8.3,8.1-17.1,16.3-26.5,24.6c-10.4,9.1-20,17.4-27.4,23.4
		c-8.2,6.6-20.4,19.1-26.6,27c-9.2,11.8-16.6,24.4-19.7,34c-5.6,17.4-2.8,35,7.9,51.3c13.8,20.7,41.4,41.9,73.5,56.3
		c16.4,7.4,43.9,16.8,64.6,22.1c34.4,8.9,101.1,18.6,137.8,20c7.4,0.3,17.4,0.3,17.8,0c0.8-0.5,6.5-11.6,13.1-25.4
		c22.6-47,38.8-91,47.7-128.7c5.3-22.8,9.4-53.2,12.2-89.2c0.7-10.1,1-43.8,0.4-55.2c-0.9-18.7-2.5-33.8-5.1-48.6
		c-0.4-2.2-0.5-4.1-0.3-4.3c0.4-0.3,1.6-0.7,18.2-5.6L2101.2,1514.2L2101.2,1514.2L2101.2,1514.2L2101.2,1514.2z M2070.5,1532.6
		c1.2,0,4.5,31.8,5.3,51.9c0.2,4.3,0.1,7.1-0.1,7.1c-0.8,0-17.2-9.8-28.9-17.3c-10.2-6.5-29.5-19.6-32.5-22.1
		c-1-0.7-0.9-0.8,7.4-3.7C2035.9,1543.6,2069.4,1532.6,2070.5,1532.6z M2002,1555.6c0.9,0,3.3,1.3,8.8,4.9
		c20.9,13.4,49.4,29.6,61.6,34.9c3.8,1.7,4.2,1-4.5,7.1c-18.5,12.9-41.6,25.5-69.8,38.3c-5,2.3-9.1,4-9.2,4c-0.2,0,0.4-2.6,1.2-5.7
		c6.8-25.8,10.7-51.9,10.9-72.9c0.1-10.4,0.1-10.4,1-10.7C2001.8,1555.6,2001.9,1555.6,2002,1555.6L2002,1555.6z M1987.9,1561.1
		c0.6,0.6,0.2,23.8-0.6,30.2c-1.8,15.1-4.7,29.2-9.3,45.1c-1.1,3.8-2.1,7.1-2.3,7.3c-0.4,0.5-14.3-13.4-18.9-18.8
		c-7.9-9.3-14.1-18.7-18.7-27.8c-2.3-4.7-6-13.8-5.7-14.1C1934,1581.9,1987.5,1560.7,1987.9,1561.1L1987.9,1561.1z M1921.5,1587.8
		c0.1,0,0.2,0,0.3,0.1c0.2,0.2,0.9,1.9,1.5,3.7c3.3,9,10.6,22.3,16.9,30.8c6.9,9.3,16,19.3,23.5,25.8c2.4,2.1,4.7,4,5,4.4
		c0.6,0.6,0.8,0.5-15.8,6.9c-19.2,7.5-40.1,14.9-64.1,22.8c-5.7,1.9-11.5,3.8-17.2,5.7c-0.9,0.3-0.6-0.2,2-4.5
		c11.9-19,30-56.2,40.1-82.5c1.7-4.6,3.5-9.1,3.8-10.2c0.4-1.5,0.9-2,2.2-2.7C1920.4,1588,1921.1,1587.8,1921.5,1587.8
		L1921.5,1587.8z M1901.1,1596.4c0.3,0.2-4.9,11.3-10,21.5c-9.9,19.6-20.6,38.9-35.1,62.3c-2.4,4-4.8,7.8-5.1,8.2
		c-0.5,0.7-0.7,0.5-2.3-2.7c-3.5-6.9-6.3-15.9-7.8-24.1c-1.5-8.1-1.2-22.2,0.5-30.9c1.3-6.4,1.2-6.3,4.3-7.9
		C1858.7,1616.1,1900.7,1596,1901.1,1596.4L1901.1,1596.4z M2076.4,1603.6v4.4c0,23.1-2.4,54.9-6,78c-0.6,4-1.1,7.4-1.2,7.5
		c0,0-2.9-0.8-6.4-1.9c-15.2-4.9-31.8-12-46.7-20.4c-9.9-5.5-24.2-14.5-23.8-14.9c0.1-0.1,4.4-2.4,9.3-5.1
		c19.9-10.6,39-22,55.6-33.3c6.2-4.3,15.5-11.1,17.6-13L2076.4,1603.6L2076.4,1603.6z M1824.4,1634.3c0.4,0,0.3,0.8-0.3,4.6
		c-0.4,2.7-0.9,7.7-1.1,11.1c-0.8,15.1,1.6,26.3,8.9,41.7c2,4.3,3.7,7.8,3.6,7.9c-0.7,0.6-68,20.7-89.1,26.6
		c-6.3,1.8-11.8,3.3-12.2,3.4c-0.7,0.2-0.8,0.1-0.5-1.7c2.3-15.2,13.7-35.1,29.6-51.9c10.6-11.2,19-17.7,33.4-26.1
		c10.4-6,26.3-15,27.5-15.4C1824.2,1634.3,1824.3,1634.3,1824.4,1634.3L1824.4,1634.3z M1982.9,1663.2c0.1-0.1,2.5,1.2,5.5,3
		c21.7,12.9,52,24.8,77.8,30.9l2.3,0.5l-3.3,1.9c-13.5,7.7-57.9,26.5-103.3,43.9c-6.6,2.5-13.1,5-14.3,5.5c-1.2,0.5-2.3,0.8-2.3,0.7
		c0-0.1,1.8-3.7,4.2-8.2c12.7-24.3,25.5-53.8,32-74.3C1982.3,1665.1,1982.8,1663.4,1982.9,1663.2L1982.9,1663.2z M1966.8,1668.6
		c0.1,0.1-0.7,2.3-1.7,4.8c-8.8,21.9-20.4,45.7-35.3,72.5c-3.8,6.8-6.9,12.3-7,12.3c-0.1,0-3.1-1.9-6.8-4.1
		c-21.5-13.5-40.6-30.1-53.1-46.1l-1.8-2.3l9.2-2.6c33.1-9.2,61.3-19.2,89.2-31.4C1963.4,1670,1966.7,1668.6,1966.8,1668.6z
		 M2067.2,1704.4C2067.2,1704.4,2067.3,1704.5,2067.2,1704.4c0.1,2.4-5.1,23.7-9.3,39.2c-3.6,13-6.6,23.1-12.2,41.1
		c-2.4,7.9-4.6,14.4-4.7,14.4c-0.1,0-0.7-0.1-1.3-0.3c-30.2-5.6-57.2-13.4-82.6-23.7c-7.1-2.9-17.3-7.6-17.9-8.1
		c-0.2-0.2,5.9-3.1,13.6-6.5c46.2-20.6,94.2-44.1,110.7-54.1C2065.3,1705,2066.9,1704.4,2067.2,1704.4L2067.2,1704.4z
		 M1835.4,1712.5c0.2,0.2-12.7,19.2-30.8,45c-6.3,9-13.6,19.6-16.4,23.5c-2.7,3.9-6.9,10.2-9.2,13.9l-4.3,6.7l-4.6-3.9
		c-5.4-4.6-14.7-14.3-18.9-19.7c-8.7-11.1-14.6-22.8-17-33.5c-1.1-5-1.1-7.5-0.1-7.8c1.5-0.4,28.7-6.9,54.1-13
		c14.1-3.3,30.5-7.3,36.4-8.7C1830.5,1713.6,1835.3,1712.5,1835.4,1712.5L1835.4,1712.5z M1848.4,1717.6l3.3,3.7
		c14.6,16.7,29.6,29,47.7,39.8c3.3,1.9,5.7,3.5,5.5,3.6c-0.7,0.5-62.8,23-91.6,33.2c-16.2,5.8-29.5,10.5-29.6,10.5
		c-0.1,0-1-0.6-2-1.3l-1.8-1.3l2.9-4.4c9.6-14.1,21.5-29.6,47.7-61.7L1848.4,1717.6L1848.4,1717.6z M1929.5,1776.8
		c0.1-0.1,4.6,1.6,10.1,3.6c13.2,5.1,23.7,8.3,37.7,11.9c17.3,4.5,42.3,8.8,57,10.1c2.2,0.2,3.5,0.4,3,0.7c-0.7,0.4-15.6,5.5-26.6,9
		c-17.5,5.6-70.8,21.7-114.3,34.4c-8,2.4-14.9,4.4-15.3,4.5c-1,0.2-4.4-0.7-4.4-1.1c0-0.2,2.4-3.4,5.4-6.9
		c14.6-17.8,29.2-37.7,41.3-56.6C1926.6,1781.1,1929.5,1776.9,1929.5,1776.8L1929.5,1776.8z M1911.6,1777.3
		c0.1,0.1-7.1,11.9-19.7,32.2c-5.4,8.6-11.4,18.4-13.5,21.8c-2,3.3-5.1,8.5-6.8,11.4l-2.9,5.3l-1.5-0.4c-3.7-1-29.4-10.3-36.2-13.1
		c-8.4-3.4-17.2-7.6-23.7-11.1c-8.1-4.5-18.3-11.1-17.5-11.3c0.2-0.1,14.1-3.9,30.9-8.6c44.5-12.3,69.2-19.5,85.4-24.7
		C1909,1777.9,1911.5,1777.2,1911.6,1777.3L1911.6,1777.3z M2038.1,1807.6h0.1c0.4,1-16.1,47.7-22.1,62.4c-1.3,3.3-1.8,4.1-2.5,4
		c-1.7-0.1-25.6-3.5-40.1-5.7c-25.3-3.9-67.8-11.5-78.4-14l-2.4-0.5l15.1-3.5c32.5-7.5,48.2-11.5,64-16.5c20-6.2,39.8-14,59.9-23.5
		C2034.8,1808.8,2037.4,1807.7,2038.1,1807.6L2038.1,1807.6z"/>
	
		<linearGradient id="SVGID_2_" gradientUnits="userSpaceOnUse" x1="-15906.875" y1="-17111.4863" x2="-15719.4297" y2="-17111.4863" gradientTransform="matrix(0.1187 0 0 0.1187 3704.9626 3291.0876)">
		<stop  offset="0" style="stop-color:#939FAB"/>
		<stop  offset="1" style="stop-color:#DCDEE1"/>
	</linearGradient>
	<path class="st1" d="M1962.6,1194.5c-2.2-0.3-38.3,13-61.6,22.6c-31.4,13.1-55.8,25.5-70.8,36.3c-5.6,4-12.6,11.2-13.7,14
		c-0.4,1-0.6,2.3-0.6,3.5l13.6,13.2l32.4,10.6l77.1,14.1l88.2,15.4l0.9-7.8c-0.3,0-0.5-0.1-0.8-0.1l-11.6-1.9l-2.3-4.3
		c-12-21.6-25.2-48.3-32.9-66.4c-6-14-11.7-30.2-14.8-41.8C1963.9,1195,1963.7,1194.6,1962.6,1194.5L1962.6,1194.5L1962.6,1194.5
		L1962.6,1194.5z M1961,1199.8h0.1c0.1,0.1,0.5,3,0.9,6.4c1.7,14.5,4.9,28.5,9.9,43.7c3.8,11.4,3.8,10.8-0.6,9.4
		c-10.4-2.9-56.8-11.1-90.4-15.9c-5.4-0.7-10-1.5-10-1.6c-0.4-0.4,24.3-13.6,35.2-18.8C1919.9,1216.6,1958.1,1200.3,1961,1199.8
		L1961,1199.8z M1863,1246.2l4,1.3c21.5,7.5,75.7,18,105.6,20.5c3.4,0.3,6.2,0.6,6.3,0.6c0.1,0.1-2.7,1.7-6.4,3.4
		c-14.4,7.4-30.3,16.4-41.3,23.3c-3.3,2.1-6.2,3.7-6.6,3.7c-0.4,0-2.5-0.4-4.8-0.7l-4.1-0.6l-10.2-10.2
		c-17.9-17.7-31.9-31.4-37.3-36.6L1863,1246.2z M1859,1249.4l14.3,18.2c7.8,10.1,15.8,19.9,17.5,22.1c1.7,2.2,3.1,3.9,3,4
		c-0.4,0.3-20.7-3.7-31.5-6.2c-11.1-2.6-15.6-3.8-22.5-6l-5.6-1.9v-1.5c0.1-6.9,8.7-17.3,23.4-27.9L1859,1249.4L1859,1249.4z
		 M1980.7,1274.3c0.4,0,0.9,0.9,2.1,3.7c3.5,7.8,14.2,28.7,16.9,32.8c0.8,1.3,2.2,1.5-12.1-0.9c-34.4-5.7-45.5-7.6-45.5-7.8
		c0-0.1,1-0.8,2.3-1.6c10.7-6,21.4-13.7,31-21.9c2.3-2,4.5-3.8,4.9-4.1C1980.4,1274.3,1980.6,1274.2,1980.7,1274.3L1980.7,1274.3z"
		/>
	<path class="st2" d="M1817.2,1265.9c0,0-2.2,3.6-0.1,9c1.3,3.3,5.2,7.4,9.6,11.5c0,0,45.2,45,50.7,51.4
		c25,29.4,35.9,58.5,36.9,98.5c0.6,25.7-4.2,48.3-16.1,74.6c-21.1,47.1-65.7,99-134.5,156.7l10.1-3.4c6.5-5,15.3-10.3,36.1-21.9
		c47.9-26.8,101.7-51.3,167.8-76.6c95.1-36.5,251.5-79.2,340.5-93.1l9.2-1.5l-1.4-2.3c-8.1-12.9-13.7-20.8-20.4-29.3
		c-19.5-24.7-43.2-44.7-72.1-61.3c-39.8-22.7-91.4-40.4-156.6-53.6c-12.3-2.5-39.3-7.3-61.3-10.7c-46.5-7.4-76.6-12.4-109.7-18.2
		c-11.9-2.1-29.7-5.2-41.5-7.8c-6.1-1.3-17.8-4.1-26.9-7.4C1830,1277.6,1819.4,1274.7,1817.2,1265.9L1817.2,1265.9z M1843.4,1291.8
		c0.1-0.1,1.7,0.5,3.9,1.2c3.9,1.3,8.8,2.9,14.7,4.6c4.5,1.3,8.9,2.5,13.4,3.6c6.1,1.6,11.2,3,11.3,3c0.7,0.7,11,34.2,14.4,47.1
		c1.3,4.9,2.3,9,2.2,9c-0.1,0.1-1.2-1.7-2.5-4c-11.9-21.4-30.7-43-52.4-60.5C1845.5,1293.8,1843.4,1291.9,1843.4,1291.8
		L1843.4,1291.8z M1893.4,1305.9c0.5,0,2.7,0.3,5.5,0.9c17.3,3.9,48.3,10,68.1,13.4c3.4,0.5,6,1.1,6,1.3c0,0.2-1.2,0.9-2.7,1.8
		c-3.4,1.8-16.9,10-21.3,13.1c-11.3,7.7-21.4,16-28.8,23.4c-2.9,3-5.5,5.5-5.5,5.5s-0.6-1.8-1.1-3.9c-3.7-14.4-11.3-35.8-18.2-50.8
		c-1.1-2.4-2-4.6-2-4.8C1893.3,1306,1893.3,1305.9,1893.4,1305.9L1893.4,1305.9z M1981.4,1323c0.6,0.2,1.6,3.7,3.7,11.5
		c3.8,15,5.5,31.8,4.9,47.5c-0.2,4.4-0.4,8.4-0.6,8.9l-0.3,1l-5.3-1.8c-10.9-3.5-28.6-8.8-43.7-13.2c-8.6-2.4-15.6-4.6-15.6-4.8
		c0-0.6,12.6-13.5,18-18.4C1952.6,1344.7,1980.5,1322.7,1981.4,1323L1981.4,1323z M1988.4,1324.1c0.3-0.3,42.1,7.1,61.1,10.8
		c14.1,2.8,34.7,7.2,35.9,7.7c0.6,0.2-1.5,1.5-8.3,4.6c-26.8,12.3-46.7,23.4-66.6,36.9c-5.2,3.5-9.6,6.4-9.7,6.4s-0.2-3-0.2-6.6
		c0-19.7-3.9-39.6-11-56.4C1988.9,1325.7,1988.3,1324.2,1988.4,1324.1z M2096.4,1345.9c0.3,0.3-1,8.7-2.2,13.7
		c-3.7,15.4-13.5,38.4-25.6,59.9c-2.1,3.8-4.1,6.9-4.3,7.1c-0.2,0.1-2.9-1.5-6.1-3.3c-11.8-7.1-25.2-13.7-39.8-19.9
		c-4.1-1.8-7.6-3.2-7.7-3.4c-0.7-0.6,32-22.7,49.3-33.3C2073.7,1358.1,2096,1345.4,2096.4,1345.9L2096.4,1345.9z M2104.2,1347.1
		c0.9,0,19.4,5.2,29.1,8.1c23.9,7.3,51.3,17.5,69.2,25.8l7.4,3.4l-5.2,1.2c-43.7,10.3-81.1,22.1-117.2,37c-2.9,1.2-5.6,2.3-5.8,2.3
		c-0.2,0,0.8-2.4,2.1-5.3c10.9-23.5,17.9-48.1,19.6-69.1C2103.6,1348.7,2103.9,1347.1,2104.2,1347.1L2104.2,1347.1z M1920,1390.2
		c0.3-0.3,14.4,3.1,22.1,5.3c11.6,3.3,36.2,11.7,36.2,12.3c0,0.1-2.7,2.5-6,5.4c-13.3,11.3-26.1,23.2-41.5,38.4
		c-4.6,4.5-8.4,8.1-8.6,8.1c-0.2,0-0.3-0.6-0.2-1.5c2.3-17.4,1.8-39.8-1.4-62.5C1920.2,1392.8,1919.9,1390.3,1920,1390.2z
		 M2216.9,1390.5c0.2,0.2-6.5,11-10.8,17.1c-6.1,8.9-15,20.7-35.3,46.7c-10.7,13.7-22.7,29.1-26.6,34.3c-4.1,5.2-7.4,9.5-7.5,9.5
		c-0.1,0-1.4-1.9-2.8-4.1c-11.4-17.4-25-32.7-41.2-46.3c-3-2.6-6.4-5.4-7.5-6.2c-1.1-0.8-2-1.7-2-1.8c0-0.3,17.3-7.9,30.4-13.3
		c23-9.5,54.3-20.9,77.7-28.3C2203.5,1394.2,2216.6,1390.3,2216.9,1390.5L2216.9,1390.5z M2224.7,1392.6c0.4-0.1,2.8,1.1,5.8,2.9
		c24.7,14.4,48.9,33,68,52.1c5.4,5.4,18.7,19.5,18.5,19.6c0,0-4.7,0.4-10.2,0.8c-42.8,3.3-97.6,12.5-150.2,25.5
		c-3.6,0.8-6.7,1.6-6.9,1.6c-0.2,0,3.8-4,8.7-8.9c30.9-30.4,45-49.6,61.7-83.8C2222.4,1397.3,2224.5,1392.9,2224.7,1392.6
		C2224.6,1392.6,2224.6,1392.6,2224.7,1392.6L2224.7,1392.6z M1998.4,1416.3c1.4,0.3,14.6,6.6,24.6,11.7
		c9.1,4.7,22.9,12.1,23.6,12.8c0.1,0.1-4.8,2.7-10.8,5.7c-19.1,9.7-35.5,19-52.5,29.6c-4.9,3-8.9,5.5-9,5.5c-0.4,0-0.3-0.4,2.4-5.5
		c9.1-17,16.5-37.3,20.6-57.1C1997.7,1417.3,1998.1,1416.3,1998.4,1416.3L1998.4,1416.3z M1985.2,1418.7c0.3,0.3-3.1,13.1-5.3,20
		c-4.2,13.2-11.2,29.7-18,42.1c-1.6,2.9-4.1,7.2-5.4,9.5l-2.5,4.1l-5.7-5.6c-6.6-6.5-12-10.6-18.9-14.2c-2.7-1.5-4.9-2.7-4.9-2.9
		c0-0.8,17.4-16.9,30.7-28.5C1964.7,1434.9,1984.9,1418.4,1985.2,1418.7L1985.2,1418.7z M2066,1452.7l5,3.3
		c11.4,7.6,24.8,17.6,35.1,26.4c5.8,4.9,17,15.1,19.2,17.6l1.2,1.3l-8.2,2.4c-46.5,13.2-82.5,24.9-124.5,40.6
		c-4.7,1.8-8.6,3.2-8.9,3.2c-0.6,0-1.1,0.5,9.4-9.3c26.8-25.2,50.6-53,68.3-80L2066,1452.7L2066,1452.7z M2044.7,1458
		c0.2,0.2-13.7,20.2-22.1,31.5c-10,13.5-27.6,36.1-39.8,50.8c-5.1,6.1-9.4,11.2-9.7,11.3c-0.3,0.1-0.4-1.5-0.4-3.8
		c0-12.5-3.1-25.9-8.6-37.3c-2.3-4.8-2.7-5.9-2.2-6.4c1.9-1.8,31.5-19,50.2-29.2C2024.7,1468,2044.4,1457.8,2044.7,1458L2044.7,1458
		z M1916.3,1490.2c0.3,0,2.6,1.2,5.3,2.7c6.5,3.6,12.3,7.7,17.5,12c0.2,0.2-2.4,2.4-5.9,5c-9.7,7.1-24.3,18.4-32.8,25.3
		c-8.9,7.3-9.2,7.5-8.2,5.9c6.7-10.5,10.1-16.4,13.6-24c3.1-6.7,6.3-14.7,8.5-21.7C1915.1,1492.5,1916.1,1490.2,1916.3,1490.2
		L1916.3,1490.2z M1950.5,1517.6c0.5-0.1,1.1,0.8,3.9,5c5.8,8.8,10.3,20.6,11.4,30.2l0.2,2.1l-13.9,5.5
		c-24.9,9.8-47.9,19.6-63.4,26.9c-4.4,2.1-12,5.8-17,8.3c-5,2.6-9,4.6-9,4.5s3.1-2.5,7-5.4c30.4-22.5,56.7-47.2,76.4-71.9
		c2.1-2.6,4.1-5,4.3-5.1L1950.5,1517.6L1950.5,1517.6z M1934.8,1521.5c0.4,0.4-11.2,13.8-19.1,22c-19.6,20.4-39,36.4-63.1,52
		c-3,2-5.8,3.7-6.1,3.9c-0.7,0.4,0.2-0.6,10.8-12.3c6.7-7.4,11.8-13.6,17.6-21.3c3.9-5.1,4.6-5.8,10.2-9.9
		C1899.9,1544.9,1934.4,1521.1,1934.8,1521.5z"/>
</g>
<path class="st3" d="M1050,1027.3c-1.1,0-2.1,0.1-3.2,0.1c-21.5,1.2-36.1,10.8-44.6,29.7c-7.3,17.1-6.5,39.4,0.1,56.6
	c7.6,16.8,19.9,25.7,40.5,29c4.3,0.7,7.3,3.2,15.7,13.2l10.4,12.4h18.8l-12.5-12.9c-6.9-7.1-12.5-13.2-12.5-13.7
	c0-0.5,2.6-1.7,5.8-2.7c10.5-3.3,19.3-11.6,25.4-24.3c5-10.2,5.7-13.4,6.4-26.1C1102.1,1050.7,1082.6,1027,1050,1027.3L1050,1027.3
	L1050,1027.3z M1066.4,1126.4c-9.1,4.5-22.4,5.4-31.1,2.2c-9-3.4-17.6-12.9-21.5-23.6c-4.3-11.8-3.7-33.4,1.2-43.2
	c8-15.6,18.5-22.7,33.9-22.7c22.9,0,35.9,14.3,37.6,41.1C1087.9,1102.6,1080.5,1119.4,1066.4,1126.4L1066.4,1126.4z M1391.2,1059.7
	c-7.9,0-13.9,3.3-18,9.7l-3.2,5.1v-13.2h-13.6v79.2h13.6v-25.3c0-23.2,0.3-25.9,3.5-32.2c4.4-8.7,11.9-13,19.2-10.9l4.9,1.5v-13.7
	L1391.2,1059.7L1391.2,1059.7L1391.2,1059.7z M1311,1058.9c-2.7,0-5.5,0.4-8.3,1c-18.3,4.9-28.6,22.7-27.9,41.1
	c0,15.4,2.9,23,10.2,31.1c14.9,12.5,28.4,13.5,46.5,6.8c3.1-1.3,6.5-2.9,6.5-2.9v-12.5l-6.5,3.4c-14.7,6.5-25.8,6.5-34.7-1.2
	c-5.7-5.9-8.1-12.9-9.3-21h55v-10.7C1342.5,1072.3,1329.7,1058.6,1311,1058.9L1311,1058.9L1311,1058.9z M1288.8,1093.7
	c0,0,2-13.6,9.6-18.9c3.6-2.6,7.8-3.9,11.9-3.9c4.1,0,8.2,1.3,11.5,4c6.9,5.4,8.1,18.7,8.1,18.7h-41L1288.8,1093.7L1288.8,1093.7
	L1288.8,1093.7z M959.7,1079.4c-14.8-9.1-21.4-15.7-20.6-23.5c2.3-21.5,28.4-18.5,42.8-10.4l0.1-14.5c0,0-8-3.5-19.4-3.7
	c-17.5-0.3-28.9,5.6-34.2,17.5c-7.8,17.6-0.9,30.9,24.1,45.7c14,8.3,20.2,15.6,20.2,23.4c0,16.3-19.2,22-39.1,11.7
	c-4.1-2.1-7.5-3.8-7.7-3.8c-0.7,4.6-0.3,15.7-0.3,15.7s6.1,2.6,15.2,4.4c22.7,4.6,43.3-6.2,45.3-23.9
	C987.8,1101.6,982,1092.9,959.7,1079.4L959.7,1079.4L959.7,1079.4z M1512,1058.8c-2.7,0-5.5,0.4-8.4,1
	c-18.2,4.9-28.5,22.7-27.8,41.1c0,15.3,2.9,23,10.2,31c14.9,12.5,28.4,13.5,46.6,6.8c3.1-1.3,6.5-2.9,6.5-2.9v-12.5l-6.5,3.4
	c-14.7,6.5-25.8,6.5-34.7-1.2c-5.7-5.9-8.2-12.8-9.3-21h54.9v-10.7C1543.5,1072.2,1530.6,1058.4,1512,1058.8L1512,1058.8
	L1512,1058.8z M1489.7,1093.5c0,0,2.1-13.6,9.6-19c3.6-2.6,7.8-3.9,11.9-3.9c4.1,0,8.2,1.3,11.5,4c6.9,5.4,8.1,18.8,8.1,18.8
	L1489.7,1093.5L1489.7,1093.5L1489.7,1093.5z M1239.6,1079.6c-14.8-9.1-21.3-15.7-20.5-23.5c2.3-21.5,28.4-18.5,42.8-10.4l0.1-14.5
	c0,0-8-3.5-19.4-3.7c-17.5-0.3-28.9,5.6-34.2,17.5c-7.8,17.6-0.8,30.9,24.1,45.7c14,8.3,20.2,15.4,20.2,23.3
	c0,16.3-19.2,22.1-39.1,11.7c-4.1-2.1-7.5-3.8-7.7-3.8c-0.7,4.6-0.3,15.7-0.3,15.7s6,2.5,15.1,4.4c22.7,4.6,43.3-6.2,45.3-23.8
	C1267.6,1101.8,1261.7,1093.1,1239.6,1079.6L1239.6,1079.6L1239.6,1079.6z M1592.1,1059.5c-7.9,0-14,3.3-18,9.7l-3.2,5.1V1061h-13.6
	v79.2h13.6v-25.3c0-23.1,0.3-25.9,3.5-32.2c4.4-8.7,11.9-13,19.2-10.9l4.9,1.5v-13.8L1592.1,1059.5L1592.1,1059.5z M1131,1079.1
	v-50.5h-13.8v111.8h57.9v-13.2H1131L1131,1079.1L1131,1079.1z M1449.2,1094.8l-11.3,30.1l-10.9-30.3l-11.1-33.6h-14.1
	c9.1,26.4,19.1,53.3,29.1,79.3c4.3,0.1,8.7,0,13,0l15.3-39.2l15.6-40h-13.5C1461.4,1061.1,1455.4,1077,1449.2,1094.8L1449.2,1094.8
	L1449.2,1094.8z M1162.7,998.2c2.2,0,4.1-0.7,5.6-2.3c1.5-1.5,2.3-3.3,2.3-5.6c0-2.3-0.8-4.1-2.3-5.6c-1.5-1.5-3.3-2.2-5.5-2.2
	c-2.2,0-4.1,0.7-5.6,2.3c-1.5,1.5-2.2,3.4-2.2,5.6c0,2.3,0.7,4.2,2.2,5.6C1158.7,997.5,1160.5,998.2,1162.7,998.2L1162.7,998.2
	L1162.7,998.2z M1157.9,985.3c1.3-1.3,2.9-2,5-2c1.9,0,3.5,0.6,4.9,2c1.3,1.3,2,3,2,5c0,2-0.7,3.7-2,5.1c-1.3,1.3-2.9,2-4.9,2
	c-2,0-3.6-0.6-4.9-2c-1.3-1.3-2-3.1-2-5.1C1155.9,988.3,1156.5,986.7,1157.9,985.3z M1161.2,991h0.9c0.6,0,1.3,0.6,1.8,1.8l1.1,2.4
	h1.7l-1.3-2.7c-0.5-1.1-1.1-1.7-1.7-1.9c0.8-0.2,1.4-0.5,1.8-1c0.4-0.5,0.6-1.1,0.6-1.8c0-0.8-0.3-1.5-0.8-1.9
	c-0.6-0.5-1.6-0.8-2.8-0.8h-2.8v10.1h1.4V991L1161.2,991L1161.2,991z M1161.2,986.3h1.2c0.9,0,1.5,0.2,1.9,0.5
	c0.3,0.3,0.4,0.6,0.4,1.3c0,1.2-0.7,1.7-2,1.7h-1.5L1161.2,986.3L1161.2,986.3L1161.2,986.3z M933.9,990.1c0-3.5-0.1-6.1-0.2-7.7
	h0.1c0.4,1.8,0.8,3.2,1.1,4.1l13.2,30.1h2.2l13.2-30.4c0.4-0.8,0.7-2.1,1.1-3.8h0.1c-0.3,3-0.4,5.6-0.4,7.7v26.6h4.5v-39.5h-5.7
	l-12.1,27.5c-0.4,1.1-1.1,2.7-1.9,4.9h-0.2c-0.3-1.1-0.9-2.7-1.8-4.7l-11.9-27.8h-6v39.5h4.3L933.9,990.1L933.9,990.1L933.9,990.1z
	 M978.9,990.2h3.9v24.6h-3.9V990.2z M980.8,981.2c0.8,0,1.5-0.3,2-0.8c0.5-0.5,0.9-1.2,0.9-2.1c0-0.8-0.3-1.5-0.9-2.1
	c-0.5-0.5-1.3-0.8-2.1-0.8c-0.8,0-1.5,0.3-2,0.8c-0.5,0.5-0.9,1.3-0.9,2.1c0,0.9,0.3,1.5,0.9,2.1C979.4,980.9,980,981.2,980.8,981.2
	L980.8,981.2L980.8,981.2z M1010.6,1015.4v-4.3c-2.1,1.6-4.4,2.4-6.8,2.4c-2.8,0-5.2-1-6.8-2.9c-1.7-1.9-2.6-4.5-2.6-7.8
	c0-3.4,0.9-6.1,2.7-8.2c1.8-2,4.1-3,6.9-3c2.3,0,4.5,0.7,6.6,2.2v-4.6c-1.9-1-4-1.5-6.4-1.5c-4.4,0-7.9,1.5-10.5,4.3
	c-2.6,2.8-3.9,6.6-3.9,11.2c0,4.1,1.1,7.5,3.5,10.1c2.5,2.7,5.7,4.1,9.6,4.1C1006,1017.3,1008.5,1016.6,1010.6,1015.4L1010.6,1015.4
	z M1021.8,1002.2c0-3.2,0.7-5.9,2-7.7c1.2-1.6,2.7-2.4,4.5-2.4c1.5,0,2.6,0.3,3.4,0.9v-4.7c-0.6-0.3-1.5-0.4-2.6-0.4
	c-1.6,0-3,0.5-4.3,1.6c-1.3,1.1-2.4,2.7-3,4.8h-0.1v-5.8h-4.4v28.2h4.4L1021.8,1002.2L1021.8,1002.2z M1047.2,1017.3
	c4.2,0,7.5-1.4,10-4.1c2.5-2.7,3.7-6.3,3.7-10.8c0-4.6-1.1-8.1-3.5-10.8c-2.3-2.6-5.5-3.9-9.7-3.9s-7.5,1.3-10,3.7
	c-2.7,2.7-4.1,6.5-4.1,11.4c0,4.3,1.1,7.8,3.5,10.4C1039.8,1015.9,1043.1,1017.3,1047.2,1017.3L1047.2,1017.3L1047.2,1017.3z
	 M1040.9,994.3c1.7-1.8,3.9-2.7,6.6-2.7c2.8,0,5,0.9,6.6,2.7c1.6,1.9,2.4,4.6,2.4,8.2c0,3.4-0.7,6.1-2.2,8c-1.5,1.9-3.7,2.9-6.6,2.9
	c-2.8,0-5.1-1-6.7-2.9c-1.7-1.9-2.5-4.5-2.5-8C1038.3,999.1,1039.1,996.3,1040.9,994.3L1040.9,994.3z M1080.3,1014.8
	c1.7-1.5,2.6-3.4,2.6-5.8c0-2.1-0.7-3.8-2-5.2c-1.1-1.1-2.7-2.1-5.2-3.1c-2.1-0.9-3.5-1.7-4.2-2.4c-0.7-0.7-1.1-1.6-1.1-2.9
	c0-1.2,0.4-2.1,1.3-2.8c0.9-0.7,2-1.1,3.6-1.1c2.4,0,4.4,0.6,6.3,2v-4.5c-1.8-0.9-3.7-1.3-5.9-1.3c-2.8,0-5.2,0.8-7,2.3
	c-1.9,1.5-2.7,3.5-2.7,5.9c0,2.1,0.6,3.8,1.8,5.1c1,1.1,2.6,2.2,5,3.2c2.2,1,3.7,1.9,4.5,2.6c0.8,0.7,1.1,1.6,1.1,2.7
	c0,2.6-1.8,4-5.2,4c-2.7,0-5-0.9-7.2-2.7v4.9c1.9,1.2,4.2,1.7,6.8,1.7C1076,1017.3,1078.5,1016.5,1080.3,1014.8L1080.3,1014.8
	L1080.3,1014.8z M1101.4,987.7c-4.2,0-7.5,1.3-10,3.7c-2.6,2.7-4.1,6.5-4.1,11.4c0,4.3,1.1,7.8,3.5,10.4c2.5,2.7,5.8,4.1,9.9,4.1
	c4.3,0,7.5-1.4,10-4.1c2.5-2.7,3.7-6.3,3.7-10.8c0-4.6-1.2-8.1-3.5-10.8C1108.7,989,1105.5,987.7,1101.4,987.7L1101.4,987.7
	L1101.4,987.7z M1110,1002.5c0,3.4-0.7,6.1-2.2,8c-1.5,1.9-3.7,2.9-6.6,2.9c-2.8,0-5.1-1-6.7-2.9c-1.7-1.9-2.5-4.5-2.5-8
	c0-3.6,0.9-6.4,2.7-8.3c1.7-1.8,3.9-2.7,6.6-2.7c2.7,0,4.9,0.9,6.5,2.7C1109.2,996.2,1110,998.9,1110,1002.5L1110,1002.5
	L1110,1002.5z M1122,1016.6h4.4v-24.4h6.5v-3.8h-6.5v-4.4c0-4,1.5-6,4.6-6c1,0,2.1,0.3,2.9,0.7v-4.1c-0.8-0.4-1.9-0.4-3.2-0.4
	c-2.4,0-4.3,0.7-5.9,2.3c-1.9,1.8-2.8,4.1-2.8,7.3v4.6h-4.7v3.8h4.7L1122,1016.6L1122,1016.6z M1140.2,1008.9c0,5.5,2.4,8.3,7.3,8.3
	c1.8,0,3.1-0.3,4.2-0.9v-3.9c-0.8,0.6-1.8,0.9-2.8,0.9c-1.5,0-2.6-0.4-3.2-1.2c-0.6-0.8-1-2.2-1-4.1v-15.9h7v-3.8h-7v-8.3
	c-1.5,0.5-3,1-4.4,1.5v6.9h-4.8v3.8h4.8L1140.2,1008.9L1140.2,1008.9z M1615.7,1060.9c-1.5-1.5-3.3-2.2-5.5-2.2
	c-2.2,0-4.1,0.7-5.6,2.3c-1.5,1.5-2.2,3.4-2.2,5.6c0,2.3,0.7,4.1,2.2,5.6c1.5,1.5,3.4,2.2,5.6,2.2c2.2,0,4.1-0.7,5.6-2.3
	c1.5-1.6,2.3-3.3,2.3-5.6C1618,1064.3,1617.2,1062.4,1615.7,1060.9L1615.7,1060.9z M1615,1071.6c-1.3,1.3-2.9,2-4.9,2
	c-1.9,0-3.5-0.6-4.9-2c-1.3-1.4-2-3.1-2-5.1c0-2,0.6-3.6,2-5c1.3-1.3,2.9-2,5-2c1.9,0,3.5,0.6,4.9,2c1.3,1.4,2,3,2,5
	C1617,1068.6,1616.4,1070.2,1615,1071.6z M1611,1067c0.8-0.2,1.4-0.5,1.9-1c0.4-0.5,0.6-1.1,0.6-1.8c0-0.8-0.3-1.5-0.8-1.9
	c-0.6-0.5-1.6-0.8-2.8-0.8h-2.8v10.1h1.4v-4.3h0.9c0.6,0,1.2,0.6,1.8,1.8l1.1,2.4h1.7l-1.3-2.7
	C1612.1,1067.7,1611.5,1067.2,1611,1067L1611,1067L1611,1067z M1610.1,1066.1h-1.5v-3.4h1.3c0.9,0,1.5,0.2,1.9,0.4
	c0.4,0.3,0.4,0.6,0.4,1.3C1612.1,1065.5,1611.4,1066.1,1610.1,1066.1L1610.1,1066.1L1610.1,1066.1z M1362.8,987.3h1.2v-10.1h3.3
	v-1.3h-7.8v1.3h3.3L1362.8,987.3L1362.8,987.3z M1370.4,979.6c0-1,0-1.8-0.1-2.2c0.1,0.5,0.3,0.9,0.3,1.2l3.8,8.7h0.6l3.8-8.8
	c0.1-0.3,0.2-0.6,0.4-1.1c-0.1,0.9-0.1,1.6-0.1,2.2v7.7h1.3v-11.4h-1.6l-3.5,7.9c-0.1,0.3-0.4,0.8-0.5,1.5h-0.1
	c-0.1-0.4-0.3-0.7-0.5-1.3l-3.5-8h-1.8v11.4h1.2L1370.4,979.6L1370.4,979.6L1370.4,979.6z"/>
</svg>
