            <svg id="react" data-name="react" xmlns="http://www.w3.org/2000/svg" viewBox="0 0 1366 768">
                <defs>
                    <style>
                        .react-1 {
                            fill: #98989b;
                        }

                    </style>
                </defs>
                <title>React-Vector</title>
                <path class="react-1" d="M648.88,201.85c-.89,6-1.87,13.34-3.1,20.68-1,6.14-.56,7.72,4.84,9.52,9.8,3.27,19.42,7,27.77,13.31,5.49,4.16,10.65,8.72,13,15.43,3.39,9.84-.2,18.19-7.12,24.88a66.51,66.51,0,0,1-15,10.48c-6,3.18-12.47,5.39-18.79,7.89-5.07,2-5.84,3.14-4.89,8.59.74,4.24,2,8.43,2.36,12.7.85,9.27,1.34,18.59-1.76,27.64-4.85,14.16-15.8,19.77-30.24,15.45-10.23-3.07-19-8.73-27-15.56-1.65-1.4-3.27-2.83-5-4.19-4.35-3.53-6.15-3.29-10.38,0-6.67,5.2-13.22,10.74-20.51,14.91a57.25,57.25,0,0,1-18.22,6.26c-10,1.76-20-6-23.13-16.47-3.53-11.79-3-23.57-.68-35.43.32-1.63.58-3.27.83-4.91,1-6.49.75-7.31-5.53-9.4-9.7-3.22-19-7.21-27.21-13.33a41.77,41.77,0,0,1-10.13-10.16c-6.47-10-5.84-18.63,4.42-29.66,4.4-4.74,10.46-8.17,16.24-11.31,5.36-2.91,11.33-4.71,17.08-6.89s6.19-3.25,5.2-9.26c-1.14-6.87-2.48-13.75-2.91-20.68-.48-7.83.41-15.86,3.89-22.88,6.13-12.38,16.91-16.2,31.25-11.2,10.19,3.56,19,9.5,26.87,16.84,7.5,7,7.39,6.89,15.32,0,9-7.75,18.47-14.74,30.24-17.75,15.86-4.06,27.11,2.63,30.81,19.56C648.27,191.3,648.28,195.85,648.88,201.85Zm-69.5,27.21c-5,0-10,.39-15-.1-5.65-.57-9.22,1.91-11.84,6.41q-8,13.77-15.89,27.63a9.23,9.23,0,0,0,0,9.54c5.36,9.57,10.87,19.06,16.17,28.66a10.6,10.6,0,0,0,9.66,5.94q16,.23,32,.09c4.85,0,8.4-2.34,10.81-6.72,5.2-9.47,10.59-18.84,16-28.21a8.29,8.29,0,0,0,0-8.95c-5.74-9.94-11.37-19.93-17.14-29.84a8.34,8.34,0,0,0-8.23-4.52C590.38,229.27,584.87,229.06,579.38,229.06Zm51.55,39.17c.65,2.28,1.19,4.87,2.1,7.31,2.13,5.77,4.55,11.43,6.66,17.21s3.9,6.92,9.71,5.09c3.63-1.14,7-3.09,10.6-4.35A52.06,52.06,0,0,0,680.66,280c7.68-8,7.72-15.49.3-23.73-.33-.37-.67-.75-1-1.09-8.86-8.5-19.66-13.52-31.21-17-5.89-1.8-6.83-1.11-8.9,4.41-2.39,6.37-5,12.66-7.37,19.05A52.26,52.26,0,0,0,630.93,268.23ZM642.4,335c-.87-6.74-1.46-13.53-2.7-20.21-1.2-6.41-3.53-7.61-9.92-6.47-6,1.07-12.1,2.08-18.17,2.93-4.45.62-8.05,2.13-10.87,6-4.26,5.93-9.11,11.43-13.76,17.08-3.14,3.84-3.14,5,.35,8.38,1.31,1.28,2.64,2.56,4,3.71,8.26,6.74,16.49,13.51,27.13,16.32,9.53,2.53,16.12-.39,20.57-9.16C642.08,347.78,641.82,341.44,642.4,335Zm-126.77-.34.78.1c0,3.82-.38,7.68.07,11.45,1.27,10.77,8.65,20.08,22,16.63s23.8-12.07,33.47-21.55c2.26-2.21,1.41-4.41-.42-6.58-5.13-6.08-10.18-12.22-15.25-18.35-2.06-2.5-4.25-4.38-7.85-4.56a111.22,111.22,0,0,1-12.79-1.72c-3.43-.56-6.79-1.62-10.23-1.94-5.08-.46-6.23.36-7,5.39C517.19,320.58,516.51,327.66,515.63,334.7ZM516.4,201l-.81.1c.93,7.22,1.66,14.47,2.86,21.65.92,5.5,2.39,6.18,7.95,5.2,7.34-1.28,14.71-2.47,22.08-3.64a11.14,11.14,0,0,0,7.8-4.68c4.41-6,9.17-11.81,14-17.5,3.47-4.08,3.59-6.68-.63-10-7.38-5.91-14.77-11.73-23.26-16.22-6.11-3.24-12.16-2.76-18.41-2.51a7.22,7.22,0,0,0-3.9,2c-4.58,4-7.39,9-7.66,15.13C516.27,194,516.4,197.47,516.4,201Zm-4.59,36.27a15.87,15.87,0,0,0-2.05.44c-11.3,3.7-22.18,8.38-31.09,16.41a20.86,20.86,0,0,0-6,10c-1.95,8.06,1.53,14.35,8,19.47,7.84,6.19,16.72,10.19,25.9,13.69,7,2.66,9.39,1.41,12-5.79,1.89-5.14,3.5-10.42,5.81-15.37,2.59-5.52,2.78-10.54.09-16.16-2.78-5.82-4.58-12.1-7-18.11C516.56,239.45,515.35,237.13,511.81,237.24Zm130.51-35.73c-.59-5.57-.63-10.46-1.73-15.09-1.37-5.82-4.45-11.4-10.5-12.89A25.71,25.71,0,0,0,613,175c-9.47,4.4-17.52,10.75-25.15,17.69-3.44,3.14-3.39,5.37-.46,9,4.67,5.83,9.55,11.51,13.92,17.56,2.4,3.3,5.35,4.62,9.15,5.14,6.56.91,13.11,1.9,19.61,3.13,6.15,1.17,8.3.25,9.51-6C640.9,214.68,641.5,207.73,642.32,201.51ZM579.84,312.25c-3.93.2-7.62,0-11.18.64-4,.68-5,3.13-2.66,6.36a117.86,117.86,0,0,0,9.16,11c2.88,3.1,5.16,3,7.93-.17,3.16-3.6,6.18-7.34,9.06-11.17,2.38-3.17,1.65-5.27-2.24-6A88.75,88.75,0,0,0,579.84,312.25Zm-39.24-6.82c5.54.09,7-1.65,5-5.16q-5.36-9.51-11-18.86c-1.72-2.85-4.89-3-6.24,0a105.64,105.64,0,0,0-5.28,14.4c-.92,3.2.69,6,3.48,6.66C531.49,303.68,536.53,304.59,540.6,305.43Zm76.12,0c5.09-1,10.63-2,16.06-3.38a3.82,3.82,0,0,0,2.65-5.18c-1.75-5.16-3.64-10.28-5.84-15.26-1.35-3.05-4.51-3.34-6.26-.55-3.69,5.88-7.21,11.88-10.41,18C611.09,302.6,612.82,305.34,616.72,305.4Zm-37.67-82.27h9.46a5.43,5.43,0,0,0,1-.07c4-.76,5.21-3.13,2.73-6.29A141.3,141.3,0,0,0,582.69,206c-2.53-2.6-5.39-2.56-7.81,0a133.8,133.8,0,0,0-8.63,10.26c-2.94,3.86-1.65,6.45,3.34,6.79C572.73,223.31,575.9,223.13,579.05,223.13Zm-56.44,16c2,5.38,3.76,10.87,6.14,16.08,1.27,2.8,3.78,2.39,5.66-.67,2.43-3.95,4.7-8,7-12,1.17-2,2.44-3.95,3.46-6,1.83-3.7.85-5.58-3.09-5.3-4.76.33-9.49,1.16-14.21,1.91C524.45,233.62,523.12,235.68,522.61,239.1ZM616.68,231c-.91.41-3.23.77-3.54,1.75a8,8,0,0,0,.57,5.56c2.71,5.12,5.82,10,8.8,15,2.49,4.15,5,4.24,7.11-.11,2-4.18,3.41-8.63,5.08-13,1.58-4.12.83-5.86-3.54-6.81C626.63,232.4,622,231.82,616.68,231Z"
                />
                <path class="react-1" d="M474.75,474.08c-6.13,3.1-9,2.53-12.19-2.41-5.3-8.26-10.75-16.44-15.6-25-2.83-5-6.29-7.42-12-6.71-2.46.3-5,0-7.49.09-4,.21-5,1.17-5.06,5.16-.09,7.49,0,15-.05,22.49a41.63,41.63,0,0,1-.34,4.46c-.31,2.81-2.18,3.28-4.63,3.27s-3.86-.78-4.15-3.23a39.23,39.23,0,0,1-.36-4.46q0-37,0-74c0-7.34.93-8.25,8.38-8.27,8.83,0,17.66,0,26.49,0a33.46,33.46,0,0,1,17.59,4.77c6.68,4,9.78,10.32,10.81,17.69,1.39,10-1,18.95-9.32,25.4-2.4,1.87-5.48,3-8.41,4-4.31,1.55-5,3-2.46,6.9,5.52,8.51,11.1,17,16.61,25.5C473.4,471.17,474,472.67,474.75,474.08Zm-53-61.18c0,4.16-.08,8.33,0,12.48.12,4.94,1.75,6.59,6.62,6.74,3.66.11,7.34.2,11,0,4.77-.29,9.69-.29,14.27-1.47,8.44-2.19,15-11.63,13.67-19.67-1.59-9.73-7.65-16.83-18.17-17.43-7-.4-14-.18-21,0-4.61.09-6.27,1.81-6.41,6.44C421.63,404.24,421.74,408.57,421.73,412.9Z"
                />
                <path class="react-1" d="M620.36,450.32c0,7.26,0,13.25,0,19.24,0,2.57-.06,5.14-3.08,6.12-2.76.89-4.81-.06-6.31-2.55s-3.48-2.41-5.5-.84c-4.22,3.29-9.22,4.56-14.29,5.43-7.54,1.3-21.53-3.19-24.46-15.31-3.43-14.22,4.59-25.78,20-26.83a28.7,28.7,0,0,1,18.87,5.1c3.66,2.55,5,1.8,5.23-2.57.11-2.16.07-4.33,0-6.49-.23-8.21-6.35-14.1-14.59-14.6-7.25-.44-13.84.89-19.65,5.46-1.64,1.28-3.45,2.25-5.13-.06-1.5-2-.76-3.72.82-5.28,4.07-4,9.3-5.83,14.66-6.9,7.42-1.47,14.83-1.42,21.85,2.19a19.15,19.15,0,0,1,9.82,11.92C621.44,433.32,619.89,442.51,620.36,450.32Zm-27.42,22.17c5.08.18,9.92-1.73,14.35-5,5.94-4.39,7.2-14.69,1.9-19.88-7.37-7.23-19.05-10.4-29.52-2.63a12.82,12.82,0,0,0-5.24,9.83C573.72,465.69,580.72,472.58,592.94,472.49Z"
                />
                <path class="react-1" d="M523.83,446.06c-6.66,0-13.31,0-20,0-5.73,0-6.56,1.35-5.34,7,1.69,7.77,12.1,18.3,22.21,17.61,6.62-.46,12.87-1.15,18.34-5.17,2.08-1.54,4-1.63,5.6.59s0,3.89-1.59,5c-7.84,5.23-16.46,7.75-25.91,6.44-8.14-1.13-15.35-4.16-20.71-10.76a34.9,34.9,0,0,1-8-25.79c.78-9.86,4.9-17.68,12.12-24.26,13.57-12.35,37.95-8.85,46.24,8.72a67.75,67.75,0,0,1,4.3,13.7c1.07,4.62-1,6.86-5.81,6.92-7.16.09-14.31,0-21.47,0Zm-3.92-4.93c5.83,0,11.66.12,17.48,0,4-.12,6.25-2.16,5.75-5.33-1.81-11.49-12.11-21.43-25.11-20-10.48,1.17-17.09,7.45-20.06,17.57-1.56,5.35-.07,7.64,5.46,7.77S514.42,441.14,519.91,441.13Z"
                />
                <path class="react-1" d="M647.41,443.8c.05,9.66,2.69,18.2,11.62,23.25,7.61,4.31,15.46,4.56,23.09-.33q1.89-1.2,3.76-2.45a3.24,3.24,0,0,1,4.82.74c1.39,1.72,1.3,3.51-.31,4.88-2.25,1.93-4.49,4.22-7.15,5.27-19.18,7.59-40.51-1.85-44.6-23.8-2.51-13.42.73-25.11,10.86-34.46s26.14-9.83,36.65-3.08a15.67,15.67,0,0,1,4.61,4.49c.61.93.52,3.23-.21,3.9-.94.88-2.81.94-4.29,1-.68,0-1.43-.78-2.06-1.31-7.19-6.06-15.17-6.37-23.35-2.72-8.58,3.83-12.4,11.14-13.41,20.14A39.55,39.55,0,0,0,647.41,443.8Z"
                />
                <path class="react-1" d="M730.31,469.46c.82,0,2-.33,2.77.08,1.22.64,2.84,1.65,3,2.74a4.17,4.17,0,0,1-2,3.44c-5.37,2.41-11.1,3.12-16.2-.19-2.25-1.46-4-4.46-4.85-7.12a35.55,35.55,0,0,1-1.24-10.33c-.14-11.15,0-22.31-.07-33.47,0-4.76-.28-4.75-4.95-5.64-1.79-.34-4-1.2-5-2.57-1.7-2.48.31-5.12,4-5.82,5.91-1.12,5.9-1.12,5.94-7.15a44.09,44.09,0,0,1,.13-6c.36-2.48,1.48-4.3,4.52-4.31s3.5,2.23,3.72,4.32a64.82,64.82,0,0,1,.14,8.48c-.07,3.12,1.28,4.64,4.46,4.58a38.28,38.28,0,0,1,5.46.3c2.24.28,3.51,1.37,3.51,3.94s-1.17,3.7-3.45,4c-1.81.23-3.64.24-5.46.36-3,.18-4.53,1.58-4.51,4.73.07,12-.29,24,.2,36C720.89,468.47,724.68,470.22,730.31,469.46Z"
                />
                <path class="react-1" d="M596.73,267.73c1.69,9.68-9.27,19.27-18.26,18.8-9.79-.51-18.08-8.57-18-18.39.11-10.57,8.32-19,18.61-18.86C588.08,249.4,598.18,258.18,596.73,267.73Z"
                />
<circle cx="420.9" cy="296.5" r="45.7"/>
<rect transform='rotate(45)'></rect>
            </svg>